<?xml version="1.0" encoding="utf-8"?>
<!-- Generator: Adobe Illustrator 23.1.0, SVG Export Plug-In . SVG Version: 6.00 Build 0)  -->
<svg version="1.1" id="Calque_1" xmlns="http://www.w3.org/2000/svg" xmlns:xlink="http://www.w3.org/1999/xlink" x="0px" y="0px"
	 viewBox="0 0 1140 750" style="enable-background:new 0 0 1140 750;" xml:space="preserve">
<style type="text/css">
	.st0{fill:none;}
	.st1{fill:#28253F;}
	.st2{fill:#3B4E57;}
	.st3{fill:#F0EEEB;}
	.st4{fill:#E2DED9;}
	.st5{fill:#EBEAE7;}
	.st6{fill:#729FB3;}
	.st7{fill:url(#SVGID_1_);}
	.st8{fill:#E5D597;}
	.st9{fill:url(#SVGID_2_);}
	.st10{fill:url(#SVGID_3_);}
	.st11{fill:url(#SVGID_4_);}
	.st12{fill:#D78262;}
	.st13{fill:#FABE6A;}
	.st14{fill:#E7A46C;}
	.st15{fill:#F18966;}
	.st16{fill:#834838;}
	.st17{fill:#C1694D;}
	.st18{fill:#FAF9F8;}
	.st19{fill:#C0BB69;}
	.st20{fill:url(#SVGID_5_);}
	.st21{fill:#937E6D;}
	.st22{fill:#A9CE57;}
	.st23{fill:#8CA860;}
	.st24{fill:url(#SVGID_6_);}
	.st25{fill:#C1E3E5;}
	.st26{fill:url(#SVGID_7_);}
	.st27{fill:#F8F2DA;}
	.st28{fill:#AA8B75;}
	.st29{fill:#D9C3B5;}
	.st30{fill:#846C61;}
	.st31{fill:#E8E5D9;}
	.st32{fill:#997D22;}
	.st33{fill:#BA5F1A;}
	.st34{fill:#EC675E;}
	.st35{fill:#717881;}
</style>
<pattern  y="750" width="57.4" height="57.4" patternUnits="userSpaceOnUse" id="SVGID_10_" viewBox="0 -57.4 57.4 57.4" style="overflow:visible;">
	<g>
		<rect y="-57.4" class="st0" width="57.4" height="57.4"/>
		<g>
			<rect y="-57.4" class="st0" width="57.4" height="57.4"/>
			<g>
				<rect y="-57.4" class="st0" width="57.4" height="57.4"/>
				<rect x="5.4" y="-53.1" class="st1" width="9.5" height="1.5"/>
				<rect x="42.6" y="-16.1" class="st1" width="9.5" height="1.5"/>
				<rect x="13.3" y="-23.1" class="st1" width="9.5" height="1.5"/>
				<rect x="26.6" y="-10.1" class="st1" width="9.5" height="1.5"/>
				<rect x="21.9" y="-46.1" class="st1" width="4.2" height="1.5"/>
				<rect x="35.7" y="-53" class="st1" width="4.2" height="1.5"/>
				<rect x="51" y="-45.8" class="st1" width="4.2" height="1.5"/>
				<rect x="51.3" y="-8.1" class="st1" width="4.2" height="1.5"/>
				<rect x="6.4" y="-8.5" class="st1" width="4.2" height="1.5"/>
				<rect x="29.9" y="-17.6" class="st1" width="4.2" height="1.5"/>
				<rect x="34" y="-28" class="st2" width="4.2" height="1.5"/>
				<rect x="44.2" y="-35.6" class="st2" width="4.2" height="1.5"/>
				<rect x="52.1" y="-35.6" class="st2" width="4.2" height="1.5"/>
				<rect x="22.9" y="-6.6" class="st2" width="4.2" height="1.5"/>
				<rect x="43.2" y="-10.8" class="st2" width="4.2" height="1.5"/>
				<rect x="8.5" y="-38.4" class="st1" width="9.5" height="1.5"/>
				<rect x="37.4" y="-42.2" class="st2" width="9.5" height="1.5"/>
				<rect x="28.7" y="-37.7" class="st2" width="9.5" height="1.5"/>
				<rect x="39.3" y="-22.7" class="st2" width="9.5" height="1.5"/>
				<path class="st1" d="M43.6-52.2c0,0.6-0.5,1-1,1s-1-0.5-1-1s0.5-1,1-1S43.6-52.8,43.6-52.2z"/>
				<path class="st1" d="M48.4-52.2c0,0.6-0.5,1-1,1s-1-0.5-1-1s0.5-1,1-1S48.4-52.8,48.4-52.2z"/>
				<path class="st1" d="M9.5-24.7c0,0.6-0.5,1-1,1c-0.6,0-1-0.5-1-1s0.5-1,1-1C9.1-25.7,9.5-25.2,9.5-24.7z"/>
				<path class="st1" d="M15.9-44.6c0,0.6-0.5,1-1,1s-1-0.5-1-1c0-0.6,0.5-1,1-1S15.9-45.1,15.9-44.6z"/>
				<path class="st1" d="M51.3-3.2c0,0.6-0.5,1-1,1c-0.6,0-1-0.5-1-1s0.5-1,1-1C50.9-4.3,51.3-3.8,51.3-3.2z"/>
				<path class="st1" d="M34.5-45.6c0,0.6-0.5,1-1,1c-0.6,0-1-0.5-1-1s0.5-1,1-1C34-46.7,34.5-46.2,34.5-45.6z"/>
				<path class="st2" d="M11.7-46.1c0,0.6-0.5,1-1,1c-0.6,0-1-0.5-1-1c0-0.6,0.5-1,1-1S11.7-46.6,11.7-46.1z"/>
				<circle class="st2" cx="25.6" cy="-29.8" r="1"/>
				<path class="st2" d="M30.9-29.8c0,0.6-0.5,1-1,1c-0.6,0-1-0.5-1-1s0.5-1,1-1S30.9-30.4,30.9-29.8z"/>
				<path class="st2" d="M43.2-29.8c0,0.6-0.5,1-1,1s-1-0.5-1-1s0.5-1,1-1S43.2-30.4,43.2-29.8z"/>
				<path class="st2" d="M23.9-15.3c0,0.6-0.5,1-1,1c-0.6,0-1-0.5-1-1s0.5-1,1-1C23.5-16.4,23.9-15.9,23.9-15.3z"/>
				<circle class="st2" cx="2.7" cy="-55.4" r="1"/>
				<path class="st2" d="M5.8-30.8c0,0.6-0.5,1-1,1c-0.6,0-1-0.5-1-1c0-0.6,0.5-1,1-1C5.3-31.9,5.8-31.4,5.8-30.8z"/>
			</g>
		</g>
	</g>
</pattern>
<pattern  y="750" width="57.4" height="57.4" patternUnits="userSpaceOnUse" id="SVGID_11_" viewBox="0 -57.4 57.4 57.4" style="overflow:visible;">
	<g>
		<rect y="-57.4" class="st0" width="57.4" height="57.4"/>
		<g>
			<rect y="-57.4" class="st0" width="57.4" height="57.4"/>
			<g>
				<rect y="-57.4" class="st0" width="57.4" height="57.4"/>
				<rect x="5.4" y="-53.1" class="st1" width="9.5" height="1.5"/>
				<rect x="42.6" y="-16.1" class="st1" width="9.5" height="1.5"/>
				<rect x="13.3" y="-23.1" class="st1" width="9.5" height="1.5"/>
				<rect x="26.6" y="-10.1" class="st1" width="9.5" height="1.5"/>
				<rect x="21.9" y="-46.1" class="st1" width="4.2" height="1.5"/>
				<rect x="35.7" y="-53" class="st1" width="4.2" height="1.5"/>
				<rect x="51" y="-45.8" class="st1" width="4.2" height="1.5"/>
				<rect x="51.3" y="-8.1" class="st1" width="4.2" height="1.5"/>
				<rect x="6.4" y="-8.5" class="st1" width="4.2" height="1.5"/>
				<rect x="29.9" y="-17.6" class="st1" width="4.2" height="1.5"/>
				<rect x="34" y="-28" class="st2" width="4.2" height="1.5"/>
				<rect x="44.2" y="-35.6" class="st2" width="4.2" height="1.5"/>
				<rect x="52.1" y="-35.6" class="st2" width="4.2" height="1.5"/>
				<rect x="22.9" y="-6.6" class="st2" width="4.2" height="1.5"/>
				<rect x="43.2" y="-10.8" class="st2" width="4.2" height="1.5"/>
				<rect x="8.5" y="-38.4" class="st1" width="9.5" height="1.5"/>
				<rect x="37.4" y="-42.2" class="st2" width="9.5" height="1.5"/>
				<rect x="28.7" y="-37.7" class="st2" width="9.5" height="1.5"/>
				<rect x="39.3" y="-22.7" class="st2" width="9.5" height="1.5"/>
				<path class="st1" d="M43.6-52.2c0,0.6-0.5,1-1,1s-1-0.5-1-1s0.5-1,1-1S43.6-52.8,43.6-52.2z"/>
				<path class="st1" d="M48.4-52.2c0,0.6-0.5,1-1,1s-1-0.5-1-1s0.5-1,1-1S48.4-52.8,48.4-52.2z"/>
				<path class="st1" d="M9.5-24.7c0,0.6-0.5,1-1,1c-0.6,0-1-0.5-1-1s0.5-1,1-1C9.1-25.7,9.5-25.2,9.5-24.7z"/>
				<path class="st1" d="M15.9-44.6c0,0.6-0.5,1-1,1s-1-0.5-1-1c0-0.6,0.5-1,1-1S15.9-45.1,15.9-44.6z"/>
				<path class="st1" d="M51.3-3.2c0,0.6-0.5,1-1,1c-0.6,0-1-0.5-1-1s0.5-1,1-1C50.9-4.3,51.3-3.8,51.3-3.2z"/>
				<path class="st1" d="M34.5-45.6c0,0.6-0.5,1-1,1c-0.6,0-1-0.5-1-1s0.5-1,1-1C34-46.7,34.5-46.2,34.5-45.6z"/>
				<path class="st2" d="M11.7-46.1c0,0.6-0.5,1-1,1c-0.6,0-1-0.5-1-1c0-0.6,0.5-1,1-1S11.7-46.6,11.7-46.1z"/>
				<circle class="st2" cx="25.6" cy="-29.8" r="1"/>
				<path class="st2" d="M30.9-29.8c0,0.6-0.5,1-1,1c-0.6,0-1-0.5-1-1s0.5-1,1-1S30.9-30.4,30.9-29.8z"/>
				<path class="st2" d="M43.2-29.8c0,0.6-0.5,1-1,1s-1-0.5-1-1s0.5-1,1-1S43.2-30.4,43.2-29.8z"/>
				<path class="st2" d="M23.9-15.3c0,0.6-0.5,1-1,1c-0.6,0-1-0.5-1-1s0.5-1,1-1C23.5-16.4,23.9-15.9,23.9-15.3z"/>
				<circle class="st2" cx="2.7" cy="-55.4" r="1"/>
				<path class="st2" d="M5.8-30.8c0,0.6-0.5,1-1,1c-0.6,0-1-0.5-1-1c0-0.6,0.5-1,1-1C5.3-31.9,5.8-31.4,5.8-30.8z"/>
			</g>
		</g>
	</g>
</pattern>
<pattern  y="750" width="55.9" height="55.9" patternUnits="userSpaceOnUse" id="SVGID_12_" viewBox="0 -55.9 55.9 55.9" style="overflow:visible;">
	<g>
		<rect x="0" y="-55.9" class="st0" width="55.9" height="55.9"/>
		<g>
			<rect y="-55.9" class="st0" width="55.9" height="55.9"/>
			<g>
				<rect y="-55.9" class="st0" width="55.9" height="55.9"/>
				<path class="st3" d="M16.3-48.6c0,1.5-1.2,2.7-2.7,2.7s-2.7-1.2-2.7-2.7s1.2-2.7,2.7-2.7S16.3-50.1,16.3-48.6z"/>
				<path class="st4" d="M27.9-36.8c0,1.5-1.2,2.7-2.7,2.7s-2.7-1.2-2.7-2.7s1.2-2.7,2.7-2.7C26.8-39.4,27.9-38.2,27.9-36.8z"/>
				<path class="st3" d="M50.7-10.9c0,0.7-0.6,1.2-1.2,1.2c-0.7,0-1.2-0.6-1.2-1.2c0-0.7,0.6-1.2,1.2-1.2
					C50.1-12.2,50.7-11.6,50.7-10.9z"/>
				<circle class="st4" cx="47.1" cy="-42.9" r="1.2"/>
				<path class="st3" d="M13.5-37.5c0,0.7-0.6,1.2-1.2,1.2c-0.7,0-1.2-0.6-1.2-1.2c0-0.7,0.6-1.2,1.2-1.2S13.5-38.2,13.5-37.5z"/>
				<path class="st3" d="M29.2-30.9c0,0.7-0.6,1.2-1.2,1.2c-0.7,0-1.2-0.6-1.2-1.2c0-0.7,0.6-1.2,1.2-1.2S29.2-31.5,29.2-30.9z"/>
				<circle class="st4" cx="4.1" cy="-47.3" r="1.2"/>
				<path class="st4" d="M11-16.3c0,0.7-0.6,1.2-1.2,1.2c-0.7,0-1.2-0.6-1.2-1.2c0-0.7,0.6-1.2,1.2-1.2C10.5-17.5,11-16.9,11-16.3z"
					/>
				<path class="st4" d="M50.7-28.4c0,0.7-0.6,1.2-1.2,1.2c-0.7,0-1.2-0.6-1.2-1.2c0-0.7,0.6-1.2,1.2-1.2
					C50.1-29.6,50.7-29.1,50.7-28.4z"/>
				<circle class="st3" cx="52.8" cy="-50" r="1.2"/>
				<path class="st3" d="M38.6-13.6c0,1.5-1.2,2.7-2.7,2.7s-2.7-1.2-2.7-2.7s1.2-2.7,2.7-2.7C37.4-16.3,38.6-15.1,38.6-13.6z"/>
				<path class="st4" d="M13.7-4.4c0,1.5-1.2,2.7-2.7,2.7S8.3-2.9,8.3-4.4S9.5-7.1,11-7.1S13.7-5.9,13.7-4.4z"/>
			</g>
		</g>
	</g>
</pattern>
<pattern  y="750" width="57.4" height="57.4" patternUnits="userSpaceOnUse" id="SVGID_13_" viewBox="0 -57.4 57.4 57.4" style="overflow:visible;">
	<g>
		<rect y="-57.4" class="st0" width="57.4" height="57.4"/>
		<g>
			<rect y="-57.4" class="st0" width="57.4" height="57.4"/>
			<g>
				<rect y="-57.4" class="st0" width="57.4" height="57.4"/>
				<rect x="5.4" y="-53.1" class="st1" width="9.5" height="1.5"/>
				<rect x="42.6" y="-16.1" class="st1" width="9.5" height="1.5"/>
				<rect x="13.3" y="-23.1" class="st1" width="9.5" height="1.5"/>
				<rect x="26.6" y="-10.1" class="st1" width="9.5" height="1.5"/>
				<rect x="21.9" y="-46.1" class="st1" width="4.2" height="1.5"/>
				<rect x="35.7" y="-53" class="st1" width="4.2" height="1.5"/>
				<rect x="51" y="-45.8" class="st1" width="4.2" height="1.5"/>
				<rect x="51.3" y="-8.1" class="st1" width="4.2" height="1.5"/>
				<rect x="6.4" y="-8.5" class="st1" width="4.2" height="1.5"/>
				<rect x="29.9" y="-17.6" class="st1" width="4.2" height="1.5"/>
				<rect x="34" y="-28" class="st2" width="4.2" height="1.5"/>
				<rect x="44.2" y="-35.6" class="st2" width="4.2" height="1.5"/>
				<rect x="52.1" y="-35.6" class="st2" width="4.2" height="1.5"/>
				<rect x="22.9" y="-6.6" class="st2" width="4.2" height="1.5"/>
				<rect x="43.2" y="-10.8" class="st2" width="4.2" height="1.5"/>
				<rect x="8.5" y="-38.4" class="st1" width="9.5" height="1.5"/>
				<rect x="37.4" y="-42.2" class="st2" width="9.5" height="1.5"/>
				<rect x="28.7" y="-37.7" class="st2" width="9.5" height="1.5"/>
				<rect x="39.3" y="-22.7" class="st2" width="9.5" height="1.5"/>
				<path class="st1" d="M43.6-52.2c0,0.6-0.5,1-1,1s-1-0.5-1-1s0.5-1,1-1S43.6-52.8,43.6-52.2z"/>
				<path class="st1" d="M48.4-52.2c0,0.6-0.5,1-1,1s-1-0.5-1-1s0.5-1,1-1S48.4-52.8,48.4-52.2z"/>
				<path class="st1" d="M9.5-24.7c0,0.6-0.5,1-1,1c-0.6,0-1-0.5-1-1s0.5-1,1-1C9.1-25.7,9.5-25.2,9.5-24.7z"/>
				<path class="st1" d="M15.9-44.6c0,0.6-0.5,1-1,1s-1-0.5-1-1c0-0.6,0.5-1,1-1S15.9-45.1,15.9-44.6z"/>
				<path class="st1" d="M51.3-3.2c0,0.6-0.5,1-1,1c-0.6,0-1-0.5-1-1s0.5-1,1-1C50.9-4.3,51.3-3.8,51.3-3.2z"/>
				<path class="st1" d="M34.5-45.6c0,0.6-0.5,1-1,1c-0.6,0-1-0.5-1-1s0.5-1,1-1C34-46.7,34.5-46.2,34.5-45.6z"/>
				<path class="st2" d="M11.7-46.1c0,0.6-0.5,1-1,1c-0.6,0-1-0.5-1-1c0-0.6,0.5-1,1-1S11.7-46.6,11.7-46.1z"/>
				<circle class="st2" cx="25.6" cy="-29.8" r="1"/>
				<path class="st2" d="M30.9-29.8c0,0.6-0.5,1-1,1c-0.6,0-1-0.5-1-1s0.5-1,1-1S30.9-30.4,30.9-29.8z"/>
				<path class="st2" d="M43.2-29.8c0,0.6-0.5,1-1,1s-1-0.5-1-1s0.5-1,1-1S43.2-30.4,43.2-29.8z"/>
				<path class="st2" d="M23.9-15.3c0,0.6-0.5,1-1,1c-0.6,0-1-0.5-1-1s0.5-1,1-1C23.5-16.4,23.9-15.9,23.9-15.3z"/>
				<circle class="st2" cx="2.7" cy="-55.4" r="1"/>
				<path class="st2" d="M5.8-30.8c0,0.6-0.5,1-1,1c-0.6,0-1-0.5-1-1c0-0.6,0.5-1,1-1C5.3-31.9,5.8-31.4,5.8-30.8z"/>
			</g>
		</g>
	</g>
</pattern>
<pattern  y="750" width="57.4" height="57.4" patternUnits="userSpaceOnUse" id="SVGID_14_" viewBox="0 -57.4 57.4 57.4" style="overflow:visible;">
	<g>
		<rect y="-57.4" class="st0" width="57.4" height="57.4"/>
		<g>
			<rect y="-57.4" class="st0" width="57.4" height="57.4"/>
			<g>
				<rect y="-57.4" class="st0" width="57.4" height="57.4"/>
				<rect x="5.4" y="-53.1" class="st1" width="9.5" height="1.5"/>
				<rect x="42.6" y="-16.1" class="st1" width="9.5" height="1.5"/>
				<rect x="13.3" y="-23.1" class="st1" width="9.5" height="1.5"/>
				<rect x="26.6" y="-10.1" class="st1" width="9.5" height="1.5"/>
				<rect x="21.9" y="-46.1" class="st1" width="4.2" height="1.5"/>
				<rect x="35.7" y="-53" class="st1" width="4.2" height="1.5"/>
				<rect x="51" y="-45.8" class="st1" width="4.2" height="1.5"/>
				<rect x="51.3" y="-8.1" class="st1" width="4.2" height="1.5"/>
				<rect x="6.4" y="-8.5" class="st1" width="4.2" height="1.5"/>
				<rect x="29.9" y="-17.6" class="st1" width="4.2" height="1.5"/>
				<rect x="34" y="-28" class="st2" width="4.2" height="1.5"/>
				<rect x="44.2" y="-35.6" class="st2" width="4.2" height="1.5"/>
				<rect x="52.1" y="-35.6" class="st2" width="4.2" height="1.5"/>
				<rect x="22.9" y="-6.6" class="st2" width="4.2" height="1.5"/>
				<rect x="43.2" y="-10.8" class="st2" width="4.2" height="1.5"/>
				<rect x="8.5" y="-38.4" class="st1" width="9.5" height="1.5"/>
				<rect x="37.4" y="-42.2" class="st2" width="9.5" height="1.5"/>
				<rect x="28.7" y="-37.7" class="st2" width="9.5" height="1.5"/>
				<rect x="39.3" y="-22.7" class="st2" width="9.5" height="1.5"/>
				<path class="st1" d="M43.6-52.2c0,0.6-0.5,1-1,1s-1-0.5-1-1s0.5-1,1-1S43.6-52.8,43.6-52.2z"/>
				<path class="st1" d="M48.4-52.2c0,0.6-0.5,1-1,1s-1-0.5-1-1s0.5-1,1-1S48.4-52.8,48.4-52.2z"/>
				<path class="st1" d="M9.5-24.7c0,0.6-0.5,1-1,1c-0.6,0-1-0.5-1-1s0.5-1,1-1C9.1-25.7,9.5-25.2,9.5-24.7z"/>
				<path class="st1" d="M15.9-44.6c0,0.6-0.5,1-1,1s-1-0.5-1-1c0-0.6,0.5-1,1-1S15.9-45.1,15.9-44.6z"/>
				<path class="st1" d="M51.3-3.2c0,0.6-0.5,1-1,1c-0.6,0-1-0.5-1-1s0.5-1,1-1C50.9-4.3,51.3-3.8,51.3-3.2z"/>
				<path class="st1" d="M34.5-45.6c0,0.6-0.5,1-1,1c-0.6,0-1-0.5-1-1s0.5-1,1-1C34-46.7,34.5-46.2,34.5-45.6z"/>
				<path class="st2" d="M11.7-46.1c0,0.6-0.5,1-1,1c-0.6,0-1-0.5-1-1c0-0.6,0.5-1,1-1S11.7-46.6,11.7-46.1z"/>
				<circle class="st2" cx="25.6" cy="-29.8" r="1"/>
				<path class="st2" d="M30.9-29.8c0,0.6-0.5,1-1,1c-0.6,0-1-0.5-1-1s0.5-1,1-1S30.9-30.4,30.9-29.8z"/>
				<path class="st2" d="M43.2-29.8c0,0.6-0.5,1-1,1s-1-0.5-1-1s0.5-1,1-1S43.2-30.4,43.2-29.8z"/>
				<path class="st2" d="M23.9-15.3c0,0.6-0.5,1-1,1c-0.6,0-1-0.5-1-1s0.5-1,1-1C23.5-16.4,23.9-15.9,23.9-15.3z"/>
				<circle class="st2" cx="2.7" cy="-55.4" r="1"/>
				<path class="st2" d="M5.8-30.8c0,0.6-0.5,1-1,1c-0.6,0-1-0.5-1-1c0-0.6,0.5-1,1-1C5.3-31.9,5.8-31.4,5.8-30.8z"/>
			</g>
		</g>
	</g>
</pattern>
<pattern  y="750" width="57.4" height="57.4" patternUnits="userSpaceOnUse" id="SVGID_8_" viewBox="0 -57.4 57.4 57.4" style="overflow:visible;">
	<g>
		<rect y="-57.4" class="st0" width="57.4" height="57.4"/>
		<g>
			<rect y="-57.4" class="st0" width="57.4" height="57.4"/>
			<g>
				<rect y="-57.4" class="st0" width="57.4" height="57.4"/>
				<rect x="5.4" y="-53.1" class="st1" width="9.5" height="1.5"/>
				<rect x="42.6" y="-16.1" class="st1" width="9.5" height="1.5"/>
				<rect x="13.3" y="-23.1" class="st1" width="9.5" height="1.5"/>
				<rect x="26.6" y="-10.1" class="st1" width="9.5" height="1.5"/>
				<rect x="21.9" y="-46.1" class="st1" width="4.2" height="1.5"/>
				<rect x="35.7" y="-53" class="st1" width="4.2" height="1.5"/>
				<rect x="51" y="-45.8" class="st1" width="4.2" height="1.5"/>
				<rect x="51.3" y="-8.1" class="st1" width="4.2" height="1.5"/>
				<rect x="6.4" y="-8.5" class="st1" width="4.2" height="1.5"/>
				<rect x="29.9" y="-17.6" class="st1" width="4.2" height="1.5"/>
				<rect x="34" y="-28" class="st2" width="4.2" height="1.5"/>
				<rect x="44.2" y="-35.6" class="st2" width="4.2" height="1.5"/>
				<rect x="52.1" y="-35.6" class="st2" width="4.2" height="1.5"/>
				<rect x="22.9" y="-6.6" class="st2" width="4.2" height="1.5"/>
				<rect x="43.2" y="-10.8" class="st2" width="4.2" height="1.5"/>
				<rect x="8.5" y="-38.4" class="st1" width="9.5" height="1.5"/>
				<rect x="37.4" y="-42.2" class="st2" width="9.5" height="1.5"/>
				<rect x="28.7" y="-37.7" class="st2" width="9.5" height="1.5"/>
				<rect x="39.3" y="-22.7" class="st2" width="9.5" height="1.5"/>
				<path class="st1" d="M43.6-52.2c0,0.6-0.5,1-1,1s-1-0.5-1-1s0.5-1,1-1S43.6-52.8,43.6-52.2z"/>
				<path class="st1" d="M48.4-52.2c0,0.6-0.5,1-1,1s-1-0.5-1-1s0.5-1,1-1S48.4-52.8,48.4-52.2z"/>
				<path class="st1" d="M9.5-24.7c0,0.6-0.5,1-1,1c-0.6,0-1-0.5-1-1s0.5-1,1-1C9.1-25.7,9.5-25.2,9.5-24.7z"/>
				<path class="st1" d="M15.9-44.6c0,0.6-0.5,1-1,1s-1-0.5-1-1c0-0.6,0.5-1,1-1S15.9-45.1,15.9-44.6z"/>
				<path class="st1" d="M51.3-3.2c0,0.6-0.5,1-1,1c-0.6,0-1-0.5-1-1s0.5-1,1-1C50.9-4.3,51.3-3.8,51.3-3.2z"/>
				<path class="st1" d="M34.5-45.6c0,0.6-0.5,1-1,1c-0.6,0-1-0.5-1-1s0.5-1,1-1C34-46.7,34.5-46.2,34.5-45.6z"/>
				<path class="st2" d="M11.7-46.1c0,0.6-0.5,1-1,1c-0.6,0-1-0.5-1-1c0-0.6,0.5-1,1-1S11.7-46.6,11.7-46.1z"/>
				<circle class="st2" cx="25.6" cy="-29.8" r="1"/>
				<path class="st2" d="M30.9-29.8c0,0.6-0.5,1-1,1c-0.6,0-1-0.5-1-1s0.5-1,1-1S30.9-30.4,30.9-29.8z"/>
				<path class="st2" d="M43.2-29.8c0,0.6-0.5,1-1,1s-1-0.5-1-1s0.5-1,1-1S43.2-30.4,43.2-29.8z"/>
				<path class="st2" d="M23.9-15.3c0,0.6-0.5,1-1,1c-0.6,0-1-0.5-1-1s0.5-1,1-1C23.5-16.4,23.9-15.9,23.9-15.3z"/>
				<circle class="st2" cx="2.7" cy="-55.4" r="1"/>
				<path class="st2" d="M5.8-30.8c0,0.6-0.5,1-1,1c-0.6,0-1-0.5-1-1c0-0.6,0.5-1,1-1C5.3-31.9,5.8-31.4,5.8-30.8z"/>
			</g>
		</g>
	</g>
</pattern>
<pattern  y="750" width="84.4" height="84.4" patternUnits="userSpaceOnUse" id="SVGID_9_" viewBox="0 -84.4 84.4 84.4" style="overflow:visible;">
	<g>
		<rect y="-84.4" class="st0" width="84.4" height="84.4"/>
		<g>
			<rect y="-84.4" class="st0" width="84.4" height="84.4"/>
			<g>
				<rect y="-84.4" class="st0" width="84.4" height="84.4"/>
				<polygon class="st5" points="42.8,-69.2 40.4,-69.2 40.7,-70.6 				"/>
				<g>
					<polygon class="st5" points="12.4,-81.8 15.7,-81.8 13.1,-80.1 					"/>
					<polygon class="st5" points="6.4,-67.9 13,-68.8 12.8,-64.8 					"/>
					<polygon class="st5" points="5.6,-76 3.7,-78.7 5.8,-77.6 					"/>
					<polygon class="st5" points="20.6,-51.3 22.9,-51.4 18.2,-46.3 19,-51.3 					"/>
					<polygon class="st5" points="7.7,-61.8 7.6,-60.3 5.7,-63 					"/>
					<polygon class="st5" points="26,-45 23.2,-44.5 24,-48.2 24,-48.2 24.3,-49.4 					"/>
				</g>
				<polygon class="st5" points="68.6,-61 68.8,-58.6 65.6,-61 				"/>
				<g>
					<polygon class="st5" points="16.6,-15.1 25,-19.4 20.3,-13.8 18.5,-14.4 18.5,-14.4 					"/>
					<polygon class="st5" points="45.1,-21.4 45.9,-18.3 44.2,-16.9 					"/>
					<polygon class="st5" points="11.5,-27.6 14.7,-24.2 10.5,-25.2 					"/>
					<polygon class="st5" points="57.7,-23.4 64.4,-16.1 55.4,-18.3 55.9,-19.5 					"/>
					<polygon class="st5" points="68.3,-9.1 76.6,-13.4 72.7,-8.7 71.9,-7.8 					"/>
				</g>
				<polygon class="st5" points="35.9,-58.2 40.4,-50.5 34.5,-46.5 				"/>
				<polygon class="st5" points="72.6,-77.5 77.6,-81 80.7,-77.2 				"/>
				<g>
					<polygon class="st5" points="63.2,-50.3 60.4,-53.5 61.7,-56 					"/>
					<polygon class="st5" points="67.1,-36.1 64.3,-34.3 65.6,-37.2 					"/>
					<polygon class="st5" points="59.3,-32 59.4,-30.5 57.2,-32.9 					"/>
					<polygon class="st5" points="59.2,-59.9 56.9,-62.3 59.1,-61.5 					"/>
					<polygon class="st5" points="52.7,-40.1 59,-45.7 57.7,-39.5 					"/>
				</g>
			</g>
		</g>
	</g>
</pattern>
<g>
	<path class="st6" d="M492.6,75.1h244.4c13.2,0,23.9-7.7,23.9-17.3v-5.4c0-9.5,10.6-17.3,23.9-17.3h80.9c13.2,0,23.9,7.7,23.9,17.3
		v5.4c0,9.5,10.6,17.3,23.9,17.3h51.4c13.2,0,23.9,7.7,23.9,17.3v116.2c0,9.5,10.6,17.3,23.9,17.3h15c13.2,0,23.9,7.7,23.9,17.3
		v163.7c0,9.5-10.6,17.3-23.9,17.3h-15.3c-13.2,0-23.9,7.7-23.9,17.3v27.7c0,9.5-10.6,17.3-23.9,17.3H784.6
		c-13.2,0-23.9,7.7-23.9,17.3v39.4c0,9.5-10.6,17.3-23.9,17.3H647c-13.2,0-23.9-7.7-23.9-17.3v-39.4c0-9.5-10.6-17.3-23.9-17.3
		H492.6c-13.2,0-23.9,7.7-23.9,17.3V525c0,9.5-10.6,17.3-23.9,17.3H340c-13.2,0-23.9-7.7-23.9-17.3v-21.3c0-9.5-10.6-17.3-23.9-17.3
		l0,0c-13.2,0-23.9-7.7-23.9-17.3v-47.3c0-9.5-10.6-17.3-23.9-17.3h-78.4c-13.2,0-23.9-7.7-23.9-17.3v-60.9
		c0-9.5,10.6-17.3,23.9-17.3h78.4c13.2,0,23.9-7.7,23.9-17.3v-87.7c0-9.5-10.6-17.3-23.9-17.3h-35.2c-13.2,0-23.9-7.7-23.9-17.3
		V34.5c0-9.5,10.6-17.3,23.9-17.3h235.5c13.2,0,23.9,7.7,23.9,17.3v23.4C468.8,67.3,479.6,75.1,492.6,75.1z"/>
	<path class="st6" d="M490.2,199.1h244.4c13.2,0,23.9-7.7,23.9-17.3v-5.4c0-9.5,10.6-17.3,23.9-17.3h80.9c13.2,0,23.9,7.7,23.9,17.3
		v5.4c0,9.5,10.6,17.3,23.9,17.3h51.4c13.2,0,23.9,7.7,23.9,17.3v116.2c0,9.5,10.6,17.3,23.9,17.3h15c13.2,0,23.9,7.7,23.9,17.3
		v163.7c0,9.5-10.6,17.3-23.9,17.3h-15.3c-13.2,0-23.9,7.7-23.9,17.3v27.7c0,9.5-10.6,17.3-23.9,17.3H782.2
		c-13.2,0-23.9,7.7-23.9,17.3v39.4c0,9.5-10.6,17.3-23.9,17.3h-89.9c-13.2,0-23.9-7.7-23.9-17.3v-39.4c0-9.5-10.6-17.3-23.9-17.3
		H490.2c-13.2,0-23.9,7.7-23.9,17.3v21.3c0,9.5-10.6,17.3-23.9,17.3h-105c-13.2,0-23.9-7.7-23.9-17.3v-21.3
		c0-9.5-10.6-17.3-23.9-17.3l0,0c-13.2,0-23.9-7.7-23.9-17.3v-47.3c0-9.5-10.6-17.3-23.9-17.3h-78.4c-13.2,0-23.9-7.7-23.9-17.3
		v-60.9c0-9.5,10.6-17.3,23.9-17.3h78.4c13.2,0,23.9-7.7,23.9-17.3v-87.7c0-9.5-10.6-17.3-23.9-17.3h-35.2
		c-13.2,0-23.9-7.7-23.9-17.3V158.5c0-9.5,10.6-17.3,23.9-17.3h235.5c13.2,0,23.9,7.7,23.9,17.3v23.4
		C466.3,191.5,477,199.1,490.2,199.1z"/>
	<path class="st6" d="M687.4,631.5h-30.1v-5c0-2.8-3.1-5-6.9-5h-13.1v-6.1c0-2.8-3.1-5-6.9-5h-43.3c-3.8,0-6.9,2.2-6.9,5v6.1h-16
		c-3.8,0-6.9,2.2-6.9,5v5h-11.4c-3.8,0-6.9,2.2-6.9,5v1.7c0,2.8,3.1,5,6.9,5h11.4v4.7c0,2.8,3.1,5,6.9,5h13v4.1c0,2.8,3.1,5,6.9,5
		h29.7c3.8,0,6.9-2.2,6.9-5v-4.3h29.7c3.8,0,6.9-2.2,6.9-5v-6.4h30.1c3.8,0,6.9-2.2,6.9-5C694.2,633.6,691.2,631.5,687.4,631.5z"/>
	<path class="st6" d="M201.9,48H232v5c0,2.8,3.1,5,6.9,5h13.1v6c0,2.8,3.1,5,6.9,5h43.3c3.8,0,6.9-2.2,6.9-5v-6.1h16
		c3.8,0,6.9-2.2,6.9-5V48h11.4c3.8,0,6.9-2.2,6.9-5v-1.7c0-2.8-3.1-5-6.9-5h-11.4v-4.7c0-2.8-3.1-5-6.9-5h-13v-4.1
		c0-2.8-3.1-5-6.9-5h-29.7c-3.8,0-6.9,2.2-6.9,5v4.2h-29.7c-3.8,0-6.9,2.2-6.9,5v6.4h-30.1c-3.8,0-6.9,2.2-6.9,5
		C195,45.8,198.1,48,201.9,48z"/>
	<path class="st6" d="M809.2,353.6h57.4v9.5c0,5.2,5.9,9.5,13.1,9.5h24.8v11.6c0,5.2,5.9,9.5,13.1,9.5h82.7c7.2,0,13.1-4.3,13.1-9.5
		v-11.6h30.6c7.2,0,13.1-4.3,13.1-9.5v-9.5h21.8c7.2,0,13.1-4.3,13.1-9.5v-3.2c0-5.2-5.9-9.5-13.1-9.5h-21.8v-9.1
		c0-5.2-5.9-9.5-13.1-9.5h-24.7V305c0-5.2-5.9-9.5-13.1-9.5h-56.6c-7.2,0-13.1,4.3-13.1,9.5v7.8h-56.6c-7.2,0-13.1,4.3-13.1,9.5
		v12.2h-57.4c-7.2,0-13.1,4.3-13.1,9.5C796.1,349.3,802,353.6,809.2,353.6z"/>
	<path class="st6" d="M982.9,140.9v58.7h-18.5c-10.2,0-18.5,6-18.5,13.3v25.5h-22.6c-10.2,0-18.5,6-18.5,13.3v84.5
		c0,7.4,8.3,13.3,18.5,13.3H946v31.2c0,7.4,8.3,13.3,18.5,13.3h18.5v22.3c0,7.4,8.3,13.3,18.5,13.3h6.1c10.2,0,18.5-6,18.5-13.3
		v-22.3h17.6c10.2,0,18.5-6,18.5-13.3v-25.3h15.2c10.2,0,18.5-6,18.5-13.3v-57.9c0-7.4-8.3-13.3-18.5-13.3h-15.2V213
		c0-7.4-8.3-13.3-18.5-13.3h-23.9V141c0-7.4-8.3-13.3-18.5-13.3C991.3,127.6,982.9,133.6,982.9,140.9z"/>
	<path class="st6" d="M451.9,669h-22.4v-6.4c0-7.3-8.2-13.2-18.2-13.2H332v-6.3c0-7.3-8.2-13.2-18.2-13.2h-57.4
		c-10,0-18.2,6-18.2,13.2v6.3H221c-10,0-18.2,6-18.2,13.2v10h-15.7c-10,0-18.2,6-18.2,13.2s8.2,13.2,18.2,13.2h15.7v11.6
		c0,7.3,8.2,13.2,18.2,13.2h56v1.5c0,7.3,8.2,13.2,18.2,13.2h50.4c10,0,18.2-6,18.2-13.2v-1.5h47.3c10,0,18.2-6,18.2-13.2v-9.6h22.5
		c10,0,18.2-6,18.2-13.2v-5.5C470.1,675,462.1,669,451.9,669z"/>
	<path class="st6" d="M886.7,434H904v5c0,5.7,6.4,10.2,14.2,10.2h61.5v4.9c0,5.7,6.4,10.2,14.2,10.2h44.5c7.8,0,14.2-4.6,14.2-10.2
		v-4.9h13.5c7.8,0,14.2-4.6,14.2-10.2v-7.8h12.2c7.8,0,14.2-4.6,14.2-10.2s-6.4-10.2-14.2-10.2h-12.2v-9.1c0-5.7-6.4-10.2-14.2-10.2
		h-43.7v-1.2c0-5.7-6.4-10.2-14.2-10.2h-39.1c-7.8,0-14.2,4.6-14.2,10.2v1.2h-36.8c-7.8,0-14.2,4.6-14.2,10.2v7.5h-17.4
		c-7.8,0-14.2,4.6-14.2,10.2v4.4C872.5,429.4,878.8,434,886.7,434z"/>
	<path class="st6" d="M266,406.9h-22.3v-5.1c0-3.8-4.3-6.9-9.5-6.9H165v-2.9c0-3.8-4.3-6.9-9.5-6.9h-55.3c-5.3,0-9.5,3.1-9.5,6.9
		v2.9H72.6c-5.3,0-9.5,3.1-9.5,6.9v5.1H50.4c-5.3,0-9.5,3.1-9.5,6.9c0,3.8,4.3,6.9,9.5,6.9h12.5v9.3c0,3.8,4.3,6.9,9.5,6.9h30
		c-0.1,0.5-0.2,1.1-0.2,1.6v5.1c0,3.8,4.3,6.9,9.5,6.9h28.6c5.3,0,9.5-3.1,9.5-6.9v-5.1c0-0.5-0.1-1.1-0.2-1.6H234
		c5.3,0,9.5-3.1,9.5-6.9v-9.3H266c5.3,0,9.5-3.1,9.5-6.9C275.5,410,271.2,406.9,266,406.9z"/>
	<path class="st6" d="M54.8,186.2h22.3v5.1c0,3.8,4.3,6.9,9.5,6.9h69.1v2.9c0,3.8,4.3,6.9,9.5,6.9h55.3c5.3,0,9.5-3.1,9.5-6.9v-2.9
		h18.1c5.3,0,9.5-3.1,9.5-6.9v-5.1h12.6c5.3,0,9.5-3.1,9.5-6.9c0-3.8-4.3-6.9-9.5-6.9h-12.6v-9.3c0-3.8-4.3-6.9-9.5-6.9h-30
		c0.1-0.5,0.2-1.1,0.2-1.6v-5.1c0-3.8-4.3-6.9-9.5-6.9h-28.6c-5.3,0-9.5,3.1-9.5,6.9v5.1c0,0.5,0.1,1.1,0.2,1.6H86.6
		c-5.3,0-9.5,3.1-9.5,6.9v9.3H54.8c-5.3,0-9.5,3.1-9.5,6.9C45.3,183.1,49.6,186.2,54.8,186.2z"/>
	<path class="st6" d="M221.1,203.2v-16.1h7.1c5.3,0,9.5-3.1,9.5-6.9v-50h4c5.3,0,9.5-3.1,9.5-6.9V83.1c0-3.8-4.3-6.9-9.5-6.9h-4v-13
		c0-3.8-4.3-6.9-9.5-6.9h-7.1v-9.1c0-3.8-4.3-6.9-9.5-6.9s-9.5,3.1-9.5,6.9v9.1h-12.8c-5.3,0-9.5,3.1-9.5,6.9v21.6
		c-0.7-0.1-1.5-0.2-2.2-0.2h-7.1c-5.3,0-9.5,3.1-9.5,6.9v20.8c0,3.8,4.3,6.9,9.5,6.9h7.1c0.7,0,1.5-0.1,2.2-0.2v61.1
		c0,3.8,4.3,6.9,9.5,6.9H202v16.1c0,3.8,4.3,6.9,9.5,6.9C216.8,210.1,221.1,207,221.1,203.2z"/>
	<path class="st6" d="M197.1,323.9v-16.1h7.1c5.3,0,9.5-3.1,9.5-6.9v-50h4c5.3,0,9.5-3.1,9.5-6.9v-40.1c0-3.8-4.3-6.9-9.5-6.9h-4
		v-13.1c0-3.8-4.3-6.9-9.5-6.9h-7.1v-9.1c0-3.8-4.3-6.9-9.5-6.9s-9.5,3.1-9.5,6.9v9.1h-12.8c-5.3,0-9.5,3.1-9.5,6.9v21.6
		c-0.7-0.1-1.5-0.2-2.2-0.2h-7.1c-5.3,0-9.5,3.1-9.5,6.9v20.8c0,3.8,4.3,6.9,9.5,6.9h7.1c0.7,0,1.5-0.1,2.2-0.2v61.1
		c0,3.8,4.3,6.9,9.5,6.9H178v16.1c0,3.8,4.3,6.9,9.5,6.9C192.8,330.8,197.1,327.8,197.1,323.9z"/>
	<path class="st6" d="M876.6,136.8h22.3v5.1c0,3.8,4.3,6.9,9.5,6.9h69.1v2.9c0,3.8,4.3,6.9,9.5,6.9h55.3c5.3,0,9.5-3.1,9.5-6.9v-2.9
		h18.1c5.3,0,9.5-3.1,9.5-6.9v-5.1h12.6c5.3,0,9.5-3.1,9.5-6.9c0-3.8-4.3-6.9-9.5-6.9h-12.6v-9.3c0-3.8-4.3-6.9-9.5-6.9h-30
		c0.1-0.5,0.2-1.1,0.2-1.6V100c0-3.8-4.3-6.9-9.5-6.9h-28.6c-5.3,0-9.5,3.1-9.5,6.9v5.1c0,0.5,0.1,1.1,0.2,1.6h-84.4
		c-5.3,0-9.5,3.1-9.5,6.9v9.3h-22.3c-5.3,0-9.5,3.1-9.5,6.9C867.1,133.7,871.4,136.8,876.6,136.8z"/>
</g>
<pattern  id="SVGID_1_" xlink:href="#SVGID_8_" patternTransform="matrix(1 0 0 1 -48.4425 16471.1797)">
</pattern>
<path class="st7" d="M1092.7,410.6h-12.2v-9.1c0-5.7-6.4-10.2-14.2-10.2h-10.9c4.2-2.5,6.7-6.2,6.7-10.3v-25.3h15.2
	c10.2,0,18.5-6,18.5-13.3v-57.9c0-7.4-8.3-13.3-18.5-13.3h-15.2v-57.9c0-7.4-8.3-13.3-18.5-13.3h-23.9v-41.1h22.5
	c5.3,0,9.5-3.1,9.5-6.9V149h18.1c5.3,0,9.5-3.1,9.5-6.9V137h12.6c5.3,0,9.5-3.1,9.5-6.9c0-3.8-4.3-6.9-9.5-6.9h-12.6v-9.3
	c0-3.8-4.3-6.9-9.5-6.9h-30c0.1-0.5,0.2-1.1,0.2-1.6v-5.1c0-3.8-4.3-6.9-9.5-6.9H1002c-5.3,0-9.5,3.1-9.5,6.9v5.1
	c0,0.5,0.1,1.1,0.2,1.6h-4.5V92.6c0-9.5-10.6-17.3-23.9-17.3H913c-13.2,0-23.9-7.7-23.9-17.3v-5.4c0-9.5-10.6-17.3-23.9-17.3h-80.9
	c-13.2,0-23.9,7.7-23.9,17.3v5.4c0,9.5-10.6,17.3-23.9,17.3h-244c-13.2,0-23.9-7.7-23.9-17.3V34.5c0-9.5-10.6-17.3-23.9-17.3H209.5
	c-13.2,0-23.9,7.7-23.9,17.3v22.3c-3.5,1-6.1,3.5-6.1,6.4v21.6c-0.7-0.1-1.5-0.2-2.2-0.2h-7.1c-5.3,0-9.5,3.1-9.5,6.9v20.8
	c0,3.8,4.3,6.9,9.5,6.9h7.1c0.7,0,1.5-0.1,2.2-0.2v23.6c-4.9,0.3-8.8,3.2-8.8,6.8v5.1c0,0.5,0.1,1.1,0.2,1.6H86.5
	c-5.3,0-9.5,3.1-9.5,6.9v9.3H54.7c-5.3,0-9.5,3.1-9.5,6.9c0,3.8,4.3,6.9,9.5,6.9H77v5.1c0,3.8,4.3,6.9,9.5,6.9h69v7.3
	c-0.7-0.1-1.5-0.2-2.2-0.2h-7.1c-5.3,0-9.5,3.1-9.5,6.9v20.8c0,3.8,4.3,6.9,9.5,6.9h7.1c0.7,0,1.5-0.1,2.2-0.2v61.1
	c0,3.8,4.3,6.9,9.5,6.9h12.8v1.2h-11.7c-13.2,0-23.9,7.7-23.9,17.3V385H100c-5.3,0-9.5,3.1-9.5,6.9v2.9H72.3c-5.3,0-9.5,3.1-9.5,6.9
	v5.1H50.2c-5.3,0-9.5,3.1-9.5,6.9c0,3.8,4.3,6.9,9.5,6.9h12.7v9.3c0,3.8,4.3,6.9,9.5,6.9h30c-0.1,0.5-0.2,1.1-0.2,1.6v5.1
	c0,3.8,4.3,6.9,9.5,6.9H140v60.7c0,9.5,10.6,17.3,23.9,17.3h78.4c13.2,0,23.9,7.7,23.9,17.3v47.3c0,9.5,10.6,17.3,23.9,17.3
	c13.2,0,23.9,7.7,23.9,17.3v2.2h-57.2c-10,0-18.2,6-18.2,13.2v6.3h-17.2c-10,0-18.2,6-18.2,13.2v10h-15.7c-10,0-18.2,6-18.2,13.2
	s8.2,13.2,18.2,13.2h15.7v11.6c0,7.3,8.2,13.2,18.2,13.2H277v1.5c0,7.3,8.2,13.2,18.2,13.2h50.4c10,0,18.2-6,18.2-13.2V724h47.3
	c10,0,18.2-6,18.2-13.2v-9.6h22.5c10,0,18.2-6,18.2-13.2v-5.5c0-7.3-8.2-13.2-18.2-13.2h-22.4v-2.7h13c13.2,0,23.9-7.7,23.9-17.3
	v-21.3c0-9.5,10.6-17.3,23.9-17.3h106.7c0.6,0,1.1,0,1.6,0.1h-11.4c-3.8,0-6.9,2.2-6.9,5v6.1h-16c-3.8,0-6.9,2.2-6.9,5v5h-11.3
	c-3.8,0-6.9,2.2-6.9,5v1.7c0,2.8,3.1,5,6.9,5h11.4v4.7c0,2.8,3.1,5,6.9,5h13v4.1c0,2.8,3.1,5,6.9,5h29.7c3.8,0,6.9-2.2,6.9-5v-4.7
	l0,0V667c0,9.5,10.6,17.3,23.9,17.3h89.9c13.2,0,23.9-7.7,23.9-17.3v-39.4c0-9.5,10.6-17.3,23.9-17.3H962c13.2,0,23.9-7.7,23.9-17.3
	v-27.7c0-9.5,10.6-17.3,23.9-17.3h15c13.2,0,23.9-7.7,23.9-17.3v-69.6c2.6-1.8,4.2-4.4,4.2-7.3V449h13.5c7.8,0,14.2-4.6,14.2-10.2
	V431h12.2c7.8,0,14.2-4.6,14.2-10.2S1100.5,410.6,1092.7,410.6z M243.7,404.4h1c4.4,0,8.6,0.9,12.1,2.5h-13.1L243.7,404.4
	L243.7,404.4z M242.6,433.1c0.6-1,1.1-2,1.1-3.1v-9.3h21.4C262.2,427.8,253.2,433,242.6,433.1z"/>
<path class="st8" d="M496.3,173.3h199.8c10.8,0,19.5-7.2,19.5-16.2V152c0-8.9,8.7-16.2,19.5-16.2h66.1c10.8,0,19.5,7.2,19.5,16.2
	v5.1c0,8.9,8.7,16.2,19.5,16.2h42c10.8,0,19.5,7.2,19.5,16.2v109c0,8.9,8.7,16.2,19.5,16.2h12.3c10.8,0,19.5,7.2,19.5,16.2v153.5
	c0,8.9-8.7,16.2-19.5,16.2H921c-10.8,0-19.5,7.2-19.5,16.2v26c0,8.9-8.7,16.2-19.5,16.2H735c-10.8,0-19.5,7.2-19.5,16.2V612
	c0,8.9-8.7,16.2-19.5,16.2h-73.5c-10.8,0-19.5-7.2-19.5-16.2v-36.9c0-8.9-8.7-16.2-19.5-16.2h-87.2c-10.8,0-19.5,7.2-19.5,16.2v20
	c0,8.9-8.7,16.2-19.5,16.2h-85.8c-10.8,0-19.5-7.2-19.5-16.2v-20c0-8.9-8.7-16.2-19.5-16.2l0,0c-10.8,0-19.5-7.2-19.5-16.2v-44.4
	c0-8.9-8.7-16.2-19.5-16.2h-64.1c-10.8,0-19.5-7.2-19.5-16.2v-57.1c0-8.9,8.7-16.2,19.5-16.2h64.1c10.8,0,19.5-7.2,19.5-16.2v-82.2
	c0-8.9-8.7-16.2-19.5-16.2h-28.8c-10.8,0-19.5-7.2-19.5-16.2V135.2c0-8.9,8.7-16.2,19.5-16.2h192.5c10.8,0,19.5,7.2,19.5,16.2v21.9
	C476.8,166.1,485.6,173.3,496.3,173.3z"/>
<pattern  id="SVGID_2_" xlink:href="#SVGID_9_" patternTransform="matrix(0.6 0 0 0.6 -9246.9521 6784.8984)">
</pattern>
<path class="st9" d="M496.3,173.3h199.8c10.8,0,19.5-7.2,19.5-16.2V152c0-8.9,8.7-16.2,19.5-16.2h66.1c10.8,0,19.5,7.2,19.5,16.2
	v5.1c0,8.9,8.7,16.2,19.5,16.2h42c10.8,0,19.5,7.2,19.5,16.2v109c0,8.9,8.7,16.2,19.5,16.2h12.3c10.8,0,19.5,7.2,19.5,16.2v153.5
	c0,8.9-8.7,16.2-19.5,16.2H921c-10.8,0-19.5,7.2-19.5,16.2v26c0,8.9-8.7,16.2-19.5,16.2H735c-10.8,0-19.5,7.2-19.5,16.2V612
	c0,8.9-8.7,16.2-19.5,16.2h-73.5c-10.8,0-19.5-7.2-19.5-16.2v-36.9c0-8.9-8.7-16.2-19.5-16.2h-87.2c-10.8,0-19.5,7.2-19.5,16.2v20
	c0,8.9-8.7,16.2-19.5,16.2h-85.8c-10.8,0-19.5-7.2-19.5-16.2v-20c0-8.9-8.7-16.2-19.5-16.2l0,0c-10.8,0-19.5-7.2-19.5-16.2v-44.4
	c0-8.9-8.7-16.2-19.5-16.2h-64.1c-10.8,0-19.5-7.2-19.5-16.2v-57.1c0-8.9,8.7-16.2,19.5-16.2h64.1c10.8,0,19.5-7.2,19.5-16.2v-82.2
	c0-8.9-8.7-16.2-19.5-16.2h-28.8c-10.8,0-19.5-7.2-19.5-16.2V135.2c0-8.9,8.7-16.2,19.5-16.2h192.5c10.8,0,19.5,7.2,19.5,16.2v21.9
	C476.8,166.1,485.6,173.3,496.3,173.3z"/>
<path class="st6" d="M980.3,290h-12.4v-54.3c0-6.9-6.8-12.5-15.1-12.5h-19.5v-55c0-6.9-6.8-12.5-15.1-12.5s-15.1,5.6-15.1,12.5v55
	H888c-8.3,0-15.1,5.6-15.1,12.5v23.9h-18.5c-8.3,0-15.1,5.6-15.1,12.5v79.2c0,6.9,6.8,12.5,15.1,12.5h17.8v82.9
	c0,13.5,13.3,24.6,29.6,24.6H953c16.3,0,29.6-11.1,29.6-24.6v-77.5c7.1-1,12.6-6.1,12.6-12.3v-54.3C995.4,295.7,988.6,290,980.3,290
	z"/>
<pattern  id="SVGID_3_" xlink:href="#SVGID_10_" patternTransform="matrix(1 0 0 1 -48.4425 16471.1797)">
</pattern>
<path class="st10" d="M980.3,290h-12.4v-54.3c0-6.9-6.8-12.5-15.1-12.5h-19.5v-55c0-6.9-6.8-12.5-15.1-12.5s-15.1,5.6-15.1,12.5v55
	H888c-8.3,0-15.1,5.6-15.1,12.5v23.9h-18.5c-8.3,0-15.1,5.6-15.1,12.5v79.2c0,6.9,6.8,12.5,15.1,12.5h17.8v82.9
	c0,13.5,13.3,24.6,29.6,24.6H953c16.3,0,29.6-11.1,29.6-24.6v-77.5c7.1-1,12.6-6.1,12.6-12.3v-54.3C995.4,295.7,988.6,290,980.3,290
	z"/>
<path class="st6" d="M308,98h-37.8c-8,0-14.7,4.7-16.3,10.9h-14.4c-11.2,0-20.4,7.6-20.4,16.9l0,0c0,1,0.1,1.9,0.3,2.8h-20.7
	c-12.6,0-22.9,8.5-22.9,19v58.7c0,10.4,10.3,19,22.9,19h103.2c12.6,0,22.9-8.5,22.9-19v-94.4C324.8,104.2,317.3,98,308,98z"/>
<pattern  id="SVGID_4_" xlink:href="#SVGID_11_" patternTransform="matrix(1 0 0 1 -48.4425 16471.1797)">
</pattern>
<path class="st11" d="M308,98h-37.8c-8,0-14.7,4.7-16.3,10.9h-14.4c-11.2,0-20.4,7.6-20.4,16.9l0,0c0,1,0.1,1.9,0.3,2.8h-20.7
	c-12.6,0-22.9,8.5-22.9,19v58.7c0,10.4,10.3,19,22.9,19h103.2c12.6,0,22.9-8.5,22.9-19v-94.4C324.8,104.2,317.3,98,308,98z"/>
<g>
	<path class="st12" d="M318.7,180.3c1.7,0,3.2,1.2,3.2,2.6c0,0.7-0.4,1.4-0.9,1.9c-0.6,0.5-1.4,0.8-2.2,0.8h-4.2H191.7h-9.3
		c-1.8,0-3.2-1.2-3.2-2.6c0-0.7,0.3-1.4,0.9-1.9c0.6-0.5,1.4-0.8,2.2-0.8H318.7"/>
	<path class="st13" d="M314.4,185.6L304,204.7c-1.9,3.6-6.2,5.9-11,5.9h-58.4c-14.8,0-28.6-6.3-36.6-16.7l-6.4-8.3L314.4,185.6"/>
	<path class="st14" d="M314.4,185.6h-3.7l-6.7,12.3c-1.9,3.6-6.2,5.9-11,5.9h-58.4c-14.8,0-28.6-6.3-36.6-16.7l-1.2-1.6h-5.2
		l6.4,8.3c8,10.4,21.8,16.7,36.6,16.7H293c4.7,0,9-2.3,11-5.9L314.4,185.6"/>
	<path class="st15" d="M312.1,163.8c0,0-30.8-0.5-51.8,10.6v-48.9C260.3,125.5,277.1,144.9,312.1,163.8z"/>
	<path class="st15" d="M254.2,125.5v48.9c-25-4.3-55.5,0-55.5,0C233.6,155.5,254.2,125.5,254.2,125.5z"/>
	<path class="st12" d="M300.3,192.3c0,2.2-2.2,4-4.9,4c-2.7,0-4.9-1.8-4.9-4s2.2-4,4.9-4C298.1,188.3,300.3,190.1,300.3,192.3z"/>
	<path class="st16" d="M298.9,192.3c0,1.6-1.5,2.8-3.4,2.8s-3.4-1.3-3.4-2.8c0-1.6,1.5-2.8,3.4-2.8
		C297.3,189.5,298.9,190.8,298.9,192.3z"/>
	<path class="st12" d="M285.2,192.3c0,2.2-2.2,4-4.9,4c-2.7,0-4.9-1.8-4.9-4s2.2-4,4.9-4S285.2,190.1,285.2,192.3z"/>
	<path class="st16" d="M283.8,192.3c0,1.6-1.5,2.8-3.4,2.8s-3.4-1.3-3.4-2.8c0-1.6,1.5-2.8,3.4-2.8
		C282.2,189.5,283.8,190.8,283.8,192.3z"/>
	<path class="st12" d="M270,192.3c0,2.2-2.2,4-4.9,4c-2.7,0-4.9-1.8-4.9-4s2.2-4,4.9-4C267.9,188.3,270,190.1,270,192.3z"/>
	<path class="st16" d="M268.6,192.3c0,1.6-1.5,2.8-3.4,2.8s-3.4-1.3-3.4-2.8c0-1.6,1.5-2.8,3.4-2.8S268.6,190.8,268.6,192.3z"/>
	<path class="st12" d="M254.9,192.3c0,2.2-2.2,4-4.9,4s-4.9-1.8-4.9-4s2.2-4,4.9-4S254.9,190.1,254.9,192.3z"/>
	<path class="st16" d="M253.5,192.3c0,1.6-1.5,2.8-3.4,2.8s-3.4-1.3-3.4-2.8c0-1.6,1.5-2.8,3.4-2.8S253.5,190.8,253.5,192.3z"/>
	<path class="st12" d="M239.8,192.3c0,2.2-2.2,4-4.9,4s-4.9-1.8-4.9-4s2.2-4,4.9-4S239.8,190.1,239.8,192.3z"/>
	<path class="st16" d="M238.4,192.3c0,1.6-1.5,2.8-3.4,2.8s-3.4-1.3-3.4-2.8c0-1.6,1.5-2.8,3.4-2.8
		C236.8,189.5,238.4,190.8,238.4,192.3z"/>
	<path class="st12" d="M224.7,192.3c0,2.2-2.2,4-4.9,4s-4.9-1.8-4.9-4s2.2-4,4.9-4S224.7,190.1,224.7,192.3z"/>
	<path class="st16" d="M223.2,192.3c0,1.6-1.5,2.8-3.4,2.8s-3.4-1.3-3.4-2.8c0-1.6,1.5-2.8,3.4-2.8S223.2,190.8,223.2,192.3z"/>
	<polyline class="st17" points="256.2,107.5 256.2,180.3 258.1,180.3 258.1,107.5 	"/>
	<path class="st17" d="M186.4,180.6c0,0,14-4.9,29.9-14.2s33.7-23,41.3-40.8l-0.4-0.1l-0.4,0.2c0,0,7.5,10,18.5,21.9
		c11.1,11.9,25.7,25.6,40.1,33l0.5-0.7c-14.2-7.3-28.8-21-39.9-32.8c-5.5-5.9-10.1-11.4-13.4-15.3c-1.6-2-2.9-3.6-3.8-4.7
		c-0.4-0.6-0.8-1-1-1.3s-0.3-0.4-0.3-0.4l-0.5-0.7l-0.3,0.8c-7.5,17.5-25.2,31.1-41,40.4c-7.9,4.6-15.3,8.2-20.8,10.6
		c-2.7,1.2-5,2.1-6.5,2.7c-0.8,0.3-1.4,0.5-1.8,0.7c-0.4,0.2-0.6,0.2-0.6,0.2L186.4,180.6L186.4,180.6z"/>
	<path class="st17" d="M256.7,125.6c0,0,5.5,31.3,28.8,54.9l0.7-0.5c-11.6-11.7-18.7-25.4-23-36.1c-2.1-5.4-3.5-10-4.4-13.3
		c-0.4-1.6-0.7-2.9-0.9-3.8c-0.1-0.4-0.2-0.8-0.2-1s-0.1-0.3-0.1-0.3L256.7,125.6L256.7,125.6z"/>
	<polygon class="st15" points="281.9,116.3 257.1,124.2 257.1,108.2 	"/>
	<polygon class="st18" points="263.5,112.8 264.5,114.5 266.7,114.8 265.1,116.1 265.5,118 263.5,117.1 261.4,118 261.8,116.1 
		260.2,114.8 262.5,114.5 	"/>
	<path class="st17" d="M256.7,125.4c0,0-0.1,0.2-0.2,0.5c-0.8,2.3-4.6,12.7-10.9,24c-6.2,11.4-14.9,23.8-25.3,30l0.6,0.6
		c11.4-6.9,20.5-20.6,26.9-32.6c6.3-12,9.9-22.3,9.9-22.3L256.7,125.4L256.7,125.4z"/>
	<path class="st17" d="M317.1,180.3c0,0.7-0.6,1.2-1.4,1.2s-1.4-0.5-1.4-1.2s0.6-1.2,1.4-1.2S317.1,179.6,317.1,180.3z"/>
	<path class="st17" d="M286.6,180.3c0,0.7-0.6,1.2-1.4,1.2s-1.4-0.5-1.4-1.2s0.6-1.2,1.4-1.2S286.6,179.6,286.6,180.3z"/>
	<path class="st17" d="M222,180.3c0,0.7-0.6,1.2-1.4,1.2c-0.8,0-1.4-0.5-1.4-1.2s0.6-1.2,1.4-1.2S222,179.6,222,180.3z"/>
	<path class="st17" d="M187.7,180.3c0,0.7-0.6,1.2-1.4,1.2c-0.8,0-1.4-0.5-1.4-1.2s0.6-1.2,1.4-1.2
		C187,179.1,187.7,179.6,187.7,180.3z"/>
</g>
<path class="st19" d="M799.7,444.3V278.4c0-8.9,8.7-16.2,19.5-16.2h6.1c10.8,0,19.5-7.2,19.5-16.2v-54.9c0-8.9-8.7-16.2-19.5-16.2
	h-6.1c-10.8,0-19.5-7.2-19.5-16.2v-34.8c0-8.9-8.7-16.2-19.5-16.2H648.9c-10.8,0-19.5-7.2-19.5-16.2V81.3c0-8.9-8.7-16.2-19.5-16.2
	H425.1c-10.8,0-19.5,7.2-19.5,16.2v10.2c0,8.9-8.7,16.2-19.5,16.2h-31.3c-10.8,0-19.5,7.2-19.5,16.2V246c0,8.9-8.7,16.2-19.5,16.2
	h-44.4c-10.8,0-19.5,7.2-19.5,16.2v61.1c0,8.9,8.7,16.2,19.5,16.2h44.4c10.8,0,19.5,7.2,19.5,16.2v72.5c0,8.9-8.7,16.2-19.5,16.2
	h-24.1c-10.8,0-19.5,7.2-19.5,16.2v71.3c0,8.9,8.7,16.2,19.5,16.2h24.1c10.8,0,19.5,7.2,19.5,16.2l0,0c0,8.9,8.7,16.2,19.5,16.2
	h53.4c10.8,0,19.5,7.2,19.5,16.2v53.2c0,8.9,8.7,16.2,19.5,16.2H516c10.8,0,19.5-7.2,19.5-16.2v-53.2c0-8.9,8.7-16.2,19.5-16.2h99
	c10.8,0,19.5,7.2,19.5,16.2v23.9c0,8.9,8.7,16.2,19.5,16.2h152.6c10.8,0,19.5-7.2,19.5-16.2V476.7c0-8.9-8.7-16.2-19.5-16.2h-26.4
	C808.4,460.5,799.7,453.2,799.7,444.3z"/>
<pattern  id="SVGID_5_" xlink:href="#SVGID_12_" patternTransform="matrix(0.3 0 0 0.3 -15994.6533 -580.8704)">
</pattern>
<path class="st20" d="M799.7,444.3V278.4c0-8.9,8.7-16.2,19.5-16.2h6.1c10.8,0,19.5-7.2,19.5-16.2v-54.9c0-8.9-8.7-16.2-19.5-16.2
	h-6.1c-10.8,0-19.5-7.2-19.5-16.2v-34.8c0-8.9-8.7-16.2-19.5-16.2H648.9c-10.8,0-19.5-7.2-19.5-16.2V81.3c0-8.9-8.7-16.2-19.5-16.2
	H425.1c-10.8,0-19.5,7.2-19.5,16.2v10.2c0,8.9-8.7,16.2-19.5,16.2h-31.3c-10.8,0-19.5,7.2-19.5,16.2V246c0,8.9-8.7,16.2-19.5,16.2
	h-44.4c-10.8,0-19.5,7.2-19.5,16.2v61.1c0,8.9,8.7,16.2,19.5,16.2h44.4c10.8,0,19.5,7.2,19.5,16.2v72.5c0,8.9-8.7,16.2-19.5,16.2
	h-24.1c-10.8,0-19.5,7.2-19.5,16.2v71.3c0,8.9,8.7,16.2,19.5,16.2h24.1c10.8,0,19.5,7.2,19.5,16.2l0,0c0,8.9,8.7,16.2,19.5,16.2
	h53.4c10.8,0,19.5,7.2,19.5,16.2v53.2c0,8.9,8.7,16.2,19.5,16.2H516c10.8,0,19.5-7.2,19.5-16.2v-53.2c0-8.9,8.7-16.2,19.5-16.2h99
	c10.8,0,19.5,7.2,19.5,16.2v23.9c0,8.9,8.7,16.2,19.5,16.2h152.6c10.8,0,19.5-7.2,19.5-16.2V476.7c0-8.9-8.7-16.2-19.5-16.2h-26.4
	C808.4,460.5,799.7,453.2,799.7,444.3z"/>
<path class="st21" d="M845,503.6h-13.6v-4.5c0-5.1-5-9.2-11.1-9.2h-48.2v-4.4c0-5.1-5-9.2-11.1-9.2h-34.9c-6.1,0-11.1,4.1-11.1,9.2
	v4.4h-10.5c-6.1,0-11.1,4.1-11.1,9.2v7H684c-6.1,0-11.1,4.1-11.1,9.2s5,9.2,11.1,9.2h9.5v8.1c0,5.1,5,9.2,11.1,9.2h34.1v1.1
	c0,5.1,5,9.2,11.1,9.2h30.6c6.1,0,11.1-4.1,11.1-9.2v-1.1h28.8c6.1,0,11.1-4.1,11.1-9.2v-6.7H845c6.1,0,11.1-4.1,11.1-9.2v-3.9
	C856.1,507.7,851.1,503.6,845,503.6z"/>
<path class="st21" d="M548.2,503.6h-24.1v-6.3c0-4.7-4.6-8.6-10.3-8.6H439V485c0-4.7-4.6-8.6-10.3-8.6h-59.9
	c-5.7,0-10.3,3.8-10.3,8.6v3.6h-19.6c-5.7,0-10.3,3.8-10.3,8.6v6.3H315c-5.7,0-10.3,3.8-10.3,8.6c0,4.7,4.6,8.6,10.3,8.6h13.6v11.6
	c0,4.7,4.6,8.6,10.3,8.6h32.4c-0.2,0.6-0.3,1.3-0.3,2v6.3c0,4.7,4.6,8.6,10.3,8.6h31c5.7,0,10.3-3.8,10.3-8.6v-6.3
	c0-0.7-0.1-1.4-0.3-2h91.4c5.7,0,10.3-3.8,10.3-8.6v-11.6h24.1c5.7,0,10.3-3.8,10.3-8.6C558.5,507.4,553.9,503.6,548.2,503.6z"/>
<path class="st21" d="M125.4,306.2H159v6.4c0,3.5,3.4,6.4,7.6,6.4h14.5v7.7c0,3.5,3.4,6.4,7.6,6.4H237c4.2,0,7.6-2.9,7.6-6.4V319
	h17.8c4.2,0,7.6-2.9,7.6-6.4v-6.4h12.7c4.2,0,7.6-2.9,7.6-6.4v-2.1c0-3.5-3.4-6.4-7.6-6.4H270v-6c0-3.5-3.4-6.4-7.6-6.4H248v-5.2
	c0-3.5-3.4-6.4-7.6-6.4h-33.2c-4.2,0-7.6,2.9-7.6,6.4v5.2h-33.2c-4.2,0-7.6,2.9-7.6,6.4v8.2h-33.5c-4.2,0-7.6,2.9-7.6,6.4
	C117.7,303.4,121.1,306.2,125.4,306.2z"/>
<g>
	<rect x="455.8" y="435.5" class="st17" width="2.4" height="17.3"/>
	<ellipse class="st22" cx="457" cy="423.9" rx="15.5" ry="12.9"/>
	<path class="st23" d="M465,412.9c1.4,1.9,2.2,4.2,2.2,6.7c0,7.1-6.9,12.9-15.5,12.9c-2.9,0-5.7-0.7-8-1.9c2.7,3.7,7.6,6.2,13.3,6.2
		c8.6,0,15.5-5.8,15.5-12.9C472.5,419.2,469.5,415,465,412.9z"/>
</g>
<g>
	<rect x="669.5" y="159" class="st17" width="1.9" height="13.2"/>
	<path class="st22" d="M678.8,150.5c0,5.4-3.7,9.5-8.4,9.5s-8.4-4-8.4-9.5c0-5.4,8.4-20.5,8.4-20.5S678.8,145,678.8,150.5z"/>
	<path class="st23" d="M675.9,141.1c1.2,9.1-2.9,16.8-9.5,17.7h-0.1c1.2,0.8,2.6,1.2,4.1,1.2c4.6,0,8.4-4,8.4-9.5
		C678.8,148.3,677.5,144.7,675.9,141.1z"/>
</g>
<path class="st6" d="M782.9,221.8v-1.2c0-0.8-0.7-1.5-1.6-1.5h-6.6c-0.9,0-1.6-0.7-1.6-1.5v-47.7c0-0.8-0.7-1.5-1.6-1.5H688
	c-0.9,0-1.6,0.7-1.6,1.5v30.2c0,0.8-0.7,1.5-1.6,1.5h-47.9c-0.9,0-1.6,0.6-1.6,1.5v7.8c0,0.8,0.7,1.5,1.6,1.5h12.8
	c0.9,0,1.6,0.7,1.6,1.5v3.9c0,0.8,0.7,1.5,1.6,1.5h17.5c0.9,0,1.6-0.7,1.6-1.5v-3.9c0-0.8,0.7-1.5,1.6-1.5h11.3
	c0.9,0,1.6,0.7,1.6,1.5v11.2c0,0.8-0.7,1.5-1.6,1.5h-7.3c-0.9,0-1.6,0.7-1.6,1.5v1.9c0,0.8-0.7,1.5-1.6,1.5h-0.9
	c-0.9,0-1.6,0.7-1.6,1.5v1.3c0,0.8,0.7,1.5,1.6,1.5h0.9c0.9,0,1.6,0.6,1.6,1.5v1.4c0,0.8,0.7,1.5,1.6,1.5h10.2
	c0.9,0,1.6,0.7,1.6,1.5l0,0c0,0.8,0.7,1.5,1.6,1.5h13.5c0.9,0,1.6-0.7,1.6-1.5l0,0c0-0.8,0.7-1.5,1.6-1.5h4.7c0.9,0,1.6-0.6,1.6-1.5
	v-8c0-0.8,0.7-1.5,1.6-1.5h18c0.9,0,1.6,0.7,1.6,1.5v2c0,0.8,0.7,1.5,1.6,1.5h4.7c0.9,0,1.6,0.6,1.6,1.5v1.3c0,0.8,0.7,1.5,1.6,1.5
	h21.1c0.9,0,1.6-0.7,1.6-1.5v-1.3c0-0.8,0.7-1.5,1.6-1.5h12.8c0.9,0,1.6-0.7,1.6-1.5v-1.2c0-0.8,0.7-1.5,1.6-1.5h4.8
	c0.9,0,1.6-0.7,1.6-1.5v-3.7c0-0.8-0.7-1.5-1.6-1.5H785C783.6,223.2,782.9,222.6,782.9,221.8z"/>
<pattern  id="SVGID_6_" xlink:href="#SVGID_13_" patternTransform="matrix(1 0 0 1 -48.4425 16471.1797)">
</pattern>
<path class="st24" d="M783,221.8v-1.2c0-0.8-0.7-1.5-1.6-1.5h-6.6c-0.9,0-1.6-0.7-1.6-1.5v-47.7c0-0.8-0.7-1.5-1.6-1.5h-83
	c-0.9,0-1.6,0.7-1.6,1.5v30.2c0,0.8-0.7,1.5-1.6,1.5h-47.6c-0.9,0-1.6,0.6-1.6,1.5v7.8c0,0.8,0.7,1.5,1.6,1.5h12.8
	c0.9,0,1.6,0.7,1.6,1.5v3.9c0,0.8,0.7,1.5,1.6,1.5h17.4c0.9,0,1.6-0.7,1.6-1.5v-3.9c0-0.8,0.7-1.5,1.6-1.5h11.2
	c0.9,0,1.6,0.7,1.6,1.5v11.2c0,0.8-0.7,1.5-1.6,1.5h-7.2c-0.9,0-1.6,0.7-1.6,1.5v1.9c0,0.8-0.7,1.5-1.6,1.5h-0.9
	c-0.9,0-1.6,0.7-1.6,1.5v1.3c0,0.8,0.7,1.5,1.6,1.5h0.9c0.9,0,1.6,0.6,1.6,1.5v1.4c0,0.8,0.7,1.5,1.6,1.5h10.2
	c0.9,0,1.6,0.7,1.6,1.5l0,0c0,0.8,0.7,1.5,1.6,1.5H705c0.9,0,1.6-0.7,1.6-1.5l0,0c0-0.8,0.7-1.5,1.6-1.5h4.6c0.9,0,1.6-0.6,1.6-1.5
	v-8c0-0.8,0.7-1.5,1.6-1.5h17.9c0.9,0,1.6,0.7,1.6,1.5v2c0,0.8,0.7,1.5,1.6,1.5h4.6c0.9,0,1.6,0.6,1.6,1.5v1.3
	c0,0.8,0.7,1.5,1.6,1.5h21c0.9,0,1.6-0.7,1.6-1.5v-1.3c0-0.8,0.7-1.5,1.6-1.5h12.7c0.9,0,1.6-0.7,1.6-1.5v-1.2
	c0-0.8,0.7-1.5,1.6-1.5h4.7c0.9,0,1.6-0.7,1.6-1.5v-3.7c0-0.8-0.7-1.5-1.6-1.5H785C783.7,223.2,783,222.6,783,221.8z"/>
<rect x="716.9" y="168.6" class="st25" width="40.8" height="3.6"/>
<rect x="716.9" y="138.8" class="st6" width="40.8" height="29.8"/>
<pattern  id="SVGID_7_" xlink:href="#SVGID_14_" patternTransform="matrix(1 0 0 1 -48.4425 16471.1797)">
</pattern>
<rect x="716.9" y="138.8" class="st26" width="40.8" height="29.8"/>
<g>
	<rect x="405.8" y="562.5" class="st17" width="3.5" height="24.8"/>
	<ellipse class="st22" cx="407.5" cy="545.8" rx="22.2" ry="18.5"/>
	<path class="st23" d="M419,530c2,2.8,3.2,6.1,3.2,9.5c0,10.2-10,18.5-22.2,18.5c-4.2,0-8.1-1-11.5-2.7c3.9,5.4,11,8.9,19.1,8.9
		c12.3,0,22.2-8.3,22.2-18.5C429.8,539.1,425.5,533.3,419,530z"/>
</g>
<g>
	<rect x="736.9" y="606.7" class="st17" width="3.5" height="24.8"/>
	<ellipse class="st22" cx="738.6" cy="590.1" rx="22.2" ry="18.5"/>
	<path class="st23" d="M750.1,574.3c2,2.8,3.2,6.1,3.2,9.5c0,10.2-10,18.5-22.2,18.5c-4.2,0-8.1-1-11.5-2.7c3.9,5.4,11,8.9,19.1,8.9
		c12.3,0,22.2-8.3,22.2-18.5C760.9,583.4,756.6,577.5,750.1,574.3z"/>
</g>
<g>
	<rect x="601" y="512.9" class="st17" width="3.5" height="24.8"/>
	<ellipse class="st22" cx="602.7" cy="496.2" rx="22.2" ry="18.5"/>
	<path class="st23" d="M614.2,480.4c2,2.8,3.2,6.1,3.2,9.5c0,10.2-10,18.5-22.2,18.5c-4.2,0-8.1-1-11.5-2.7c3.9,5.4,11,8.9,19.1,8.9
		c12.3,0,22.2-8.3,22.2-18.5C625,489.5,620.7,483.6,614.2,480.4z"/>
</g>
<g>
	<rect x="434.1" y="570.3" class="st17" width="2.4" height="17.3"/>
	<ellipse class="st22" cx="435.3" cy="558.7" rx="15.5" ry="12.9"/>
	<path class="st23" d="M443.3,547.7c1.4,1.9,2.2,4.2,2.2,6.7c0,7.1-6.9,12.9-15.5,12.9c-2.9,0-5.7-0.7-8-1.9
		c2.7,3.7,7.6,6.2,13.3,6.2c8.6,0,15.5-5.8,15.5-12.9C450.8,554,447.8,550,443.3,547.7z"/>
</g>
<g>
	<rect x="635.3" y="141.1" class="st17" width="2.4" height="17.3"/>
	<ellipse class="st22" cx="636.6" cy="129.5" rx="15.5" ry="12.9"/>
	<path class="st23" d="M644.6,118.5c1.4,1.9,2.2,4.2,2.2,6.7c0,7.1-6.9,12.9-15.5,12.9c-2.9,0-5.7-0.7-8-1.9
		c2.7,3.7,7.6,6.2,13.3,6.2c8.6,0,15.5-5.8,15.5-12.9C652.1,124.9,649.1,120.8,644.6,118.5z"/>
</g>
<g>
	<rect x="703.4" y="368.5" class="st17" width="2.4" height="17.3"/>
	<ellipse class="st22" cx="704.6" cy="357" rx="15.5" ry="12.9"/>
	<path class="st23" d="M712.6,345.9c1.4,1.9,2.2,4.2,2.2,6.7c0,7.1-6.9,12.9-15.5,12.9c-2.9,0-5.7-0.7-8-1.9
		c2.7,3.7,7.6,6.2,13.3,6.2c8.6,0,15.5-5.8,15.5-12.9C720.1,352.3,717.1,348.2,712.6,345.9z"/>
</g>
<g>
	<rect x="587.4" y="398.5" class="st17" width="3.5" height="24.8"/>
	<path class="st22" d="M604.9,382.6c0,10.2-7,17.8-15.7,17.8s-15.7-7.6-15.7-17.8s15.7-38.4,15.7-38.4S604.9,372.4,604.9,382.6z"/>
	<path class="st23" d="M599.5,364.9c2.2,17-5.4,31.5-17.8,33.2c-0.1,0-0.2,0-0.3,0c2.3,1.4,4.9,2.2,7.8,2.2
		c8.7,0,15.7-7.6,15.7-17.8C604.9,378.6,602.4,371.7,599.5,364.9z"/>
</g>
<g>
	<rect x="633" y="398.5" class="st17" width="3.5" height="24.8"/>
	<path class="st22" d="M650.4,382.6c0,10.2-7,17.8-15.7,17.8s-15.7-7.6-15.7-17.8s15.7-38.4,15.7-38.4S650.4,372.4,650.4,382.6z"/>
	<path class="st23" d="M645,364.9c2.2,17-5.4,31.5-17.8,33.2c-0.1,0-0.2,0-0.3,0c2.3,1.4,4.9,2.2,7.8,2.2c8.7,0,15.7-7.6,15.7-17.8
		C650.4,378.6,648,371.7,645,364.9z"/>
</g>
<g>
	<path class="st2" d="M377.9,73.9c0,0-2.9-2.1-6.5-2.1c-2.7,0-5,1.2-6,1.7c-0.3-1.1-1-2.8-2.6-4.1c-2.5-2.1-6.3-2.3-6.3-2.3
		s0.3,3.2,2.8,5.3c0.9,0.8,2,1.3,3,1.6c-0.1,2-1.1,3.9-2.7,5.2c-1.7,1.4-4.1,2.3-6.7,2.3c-3.8,0-7.5-0.6-11-1.8
		c-9.8-3.4-23.2-7.5-29.8-7.5c-11.1,0-19.3,5.2-19.3,11.7H362c0.6-0.4,1.2-0.8,1.8-1.3c2.3-1.9,3.9-4.5,4.4-7.3
		c1,0.3,2.1,0.5,3.3,0.5C375,76,377.9,73.9,377.9,73.9z"/>
	<path class="st2" d="M303.5,79.9c0,0.4-0.4,0.8-0.9,0.8s-0.9-0.3-0.9-0.8c0-0.4,0.4-0.8,0.9-0.8S303.5,79.5,303.5,79.9z"/>
	<path class="st27" d="M302.6,80c0,0.2-0.2,0.3-0.4,0.3c-0.2,0-0.4-0.1-0.4-0.3c0-0.2,0.2-0.3,0.4-0.3S302.6,79.8,302.6,80z"/>
</g>
<g>
	<path class="st28" d="M470.2,456.7l-40,57.5h96l-40-57.5C482.3,451.1,474.1,451.1,470.2,456.7z"/>
	<path class="st29" d="M463.4,468.5c2.5,0,2.5,3.5,4.9,3.5c2.5,0,2.5-3.5,4.9-3.5c2.5,0,2.5,3.5,4.9,3.5c2.5,0,2.5-3.5,4.9-3.5
		c2.5,0,2.5,3.5,4.9,3.5c2.5,0,2.5-3.5,4.9-3.5c1.9,0,2.3,2.1,3.6,3.1l-2.2-3.2c-7.2-10.3-25-10.3-32.2,0l-2.2,3.2
		C461.1,470.5,461.5,468.5,463.4,468.5z"/>
	<path class="st30" d="M496.6,471.7c-2.8,17.6-14.5,32.9-31.4,42.5h60.9L496.6,471.7z"/>
</g>
<g>
	<path class="st28" d="M392.5,429l-59.2,85.2h142.2L416.2,429C410.5,420.7,398.2,420.7,392.5,429z"/>
	<path class="st29" d="M382.5,446.5c3.6,0,3.6,5.2,7.3,5.2c3.6,0,3.6-5.2,7.3-5.2c3.6,0,3.6,5.2,7.3,5.2c3.6,0,3.6-5.2,7.3-5.2
		c3.6,0,3.6,5.2,7.3,5.2c3.6,0,3.6-5.2,7.3-5.2c2.8,0,3.5,3.1,5.3,4.6l-3.3-4.8c-10.6-15.2-37.1-15.2-47.7,0l-3.3,4.7
		C379,449.5,379.7,446.5,382.5,446.5z"/>
	<path class="st30" d="M431.7,451.2c-4.1,26.1-21.5,48.7-46.4,63h90.2L431.7,451.2z"/>
</g>
<g>
	<rect x="566.8" y="405.8" class="st17" width="2.4" height="17.3"/>
	<ellipse class="st22" cx="568" cy="394.2" rx="15.5" ry="12.9"/>
	<path class="st23" d="M576,383.2c1.4,1.9,2.2,4.2,2.2,6.7c0,7.1-6.9,12.9-15.5,12.9c-2.9,0-5.7-0.7-8-1.9c2.7,3.7,7.6,6.2,13.3,6.2
		c8.6,0,15.5-5.8,15.5-12.9C583.5,389.5,580.5,385.4,576,383.2z"/>
</g>
<g>
	<g>
		<path class="st22" d="M806.6,498.8c-15.3,0-27.8,10.3-27.8,23.1h55.6C834.3,509.2,821.9,498.8,806.6,498.8z"/>
	</g>
	<path class="st23" d="M794.7,521.9h39.7c0-8.3-5.3-15.5-13.1-19.6C815.8,511.4,806.3,518.5,794.7,521.9z"/>
</g>
<g>
	<g>
		<path class="st22" d="M714,505.8c-10.7,0-19.4,7.2-19.4,16.1h38.7C733.3,513,724.7,505.8,714,505.8z"/>
	</g>
	<path class="st23" d="M705.7,521.9h27.6c0-5.8-3.7-10.8-9.1-13.6C720.4,514.6,713.8,519.5,705.7,521.9z"/>
</g>
<g>
	<g>
		<path class="st21" d="M650.5,185.7c-10.7,0-19.4,7.2-19.4,16.1h38.7C669.9,192.9,661.2,185.7,650.5,185.7z"/>
	</g>
	<path class="st30" d="M642.2,201.7h27.6c0-5.8-3.7-10.8-9.1-13.6C656.9,194.4,650.3,199.4,642.2,201.7z"/>
</g>
<g>
	<g>
		<path class="st21" d="M703.2,395.5c-6.5,0-11.7,4.3-11.7,9.7h23.4C714.9,399.9,709.6,395.5,703.2,395.5z"/>
	</g>
	<path class="st30" d="M698.2,405.2h16.7c0-3.5-2.2-6.5-5.5-8.2C707.1,400.8,703.1,403.8,698.2,405.2z"/>
</g>
<g>
	<g>
		<path class="st21" d="M772.8,273.6c-6.5,0-11.7,4.3-11.7,9.7h23.4C784.5,277.9,779.3,273.6,772.8,273.6z"/>
	</g>
	<path class="st30" d="M767.8,283.3h16.7c0-3.5-2.2-6.5-5.5-8.2C776.7,278.9,772.7,281.8,767.8,283.3z"/>
</g>
<g>
	<g>
		<path class="st21" d="M749.4,252.4c-6.5,0-11.7,4.3-11.7,9.7h23.4C761.1,256.8,755.9,252.4,749.4,252.4z"/>
	</g>
	<path class="st30" d="M744.4,262.2h16.7c0-3.5-2.2-6.5-5.5-8.2C753.3,257.7,749.3,260.7,744.4,262.2z"/>
</g>
<g>
	<g>
		<path class="st21" d="M743.6,435.5c-6.5,0-11.7,4.3-11.7,9.7h23.4C755.3,439.9,750.1,435.5,743.6,435.5z"/>
	</g>
	<path class="st30" d="M738.6,445.3h16.7c0-3.5-2.2-6.5-5.5-8.2C747.5,440.8,743.5,443.8,738.6,445.3z"/>
</g>
<g>
	<g>
		<path class="st21" d="M420.5,398.6c-6.5,0-11.7,4.3-11.7,9.7h23.4C432.2,402.9,427,398.6,420.5,398.6z"/>
	</g>
	<path class="st30" d="M415.5,408.3h16.7c0-3.5-2.2-6.5-5.5-8.2C424.4,403.9,420.4,406.8,415.5,408.3z"/>
</g>
<g>
	<g>
		<path class="st21" d="M690.6,565.4c-6.5,0-11.7,4.3-11.7,9.7h23.4C702.3,569.8,697.1,565.4,690.6,565.4z"/>
	</g>
	<path class="st30" d="M685.6,575.2h16.7c0-3.5-2.2-6.5-5.5-8.2C694.5,570.7,690.5,573.7,685.6,575.2z"/>
</g>
<g>
	<g>
		<path class="st21" d="M388.4,116.1c-9.1,0-16.4,6.1-16.4,13.6h32.8C404.8,122.2,397.4,116.1,388.4,116.1z"/>
	</g>
	<path class="st30" d="M381.4,129.8h23.4c0-4.9-3.1-9.2-7.8-11.6C393.8,123.5,388.2,127.7,381.4,129.8z"/>
</g>
<g>
	<g>
		<path class="st21" d="M290.6,321.4c-10.7,0-19.4,7.2-19.4,16.1H310C310,328.6,301.3,321.4,290.6,321.4z"/>
	</g>
	<path class="st30" d="M282.3,337.5H310c0-5.8-3.7-10.8-9.1-13.6C297,330.2,290.4,335.1,282.3,337.5z"/>
</g>
<g>
	<g>
		<path class="st21" d="M768.8,122.7c-10.7,0-19.4,7.2-19.4,16.1h38.7C788.2,129.9,779.5,122.7,768.8,122.7z"/>
	</g>
	<path class="st30" d="M760.5,138.8h27.6c0-5.8-3.7-10.8-9.1-13.6C775.2,131.4,768.6,136.4,760.5,138.8z"/>
</g>
<g>
	<g>
		<path class="st21" d="M705.1,127.6c-7.5,0-13.5,5-13.5,11.2h27C718.6,132.6,712.6,127.6,705.1,127.6z"/>
	</g>
	<path class="st30" d="M699.4,138.8h19.3c0-4-2.6-7.5-6.4-9.5C709.6,133.7,705,137.1,699.4,138.8z"/>
</g>
<g>
	<g>
		<path class="st21" d="M736.3,118.1c-13.8,0-24.9,9.3-24.9,20.7h49.8C761.2,127.3,750.1,118.1,736.3,118.1z"/>
	</g>
	<path class="st30" d="M725.7,138.8h35.6c0-7.4-4.7-13.9-11.8-17.6C744.6,129.3,736.1,135.7,725.7,138.8z"/>
</g>
<g>
	<g>
		<path class="st22" d="M764.2,488.8c-22,0-39.9,14.8-39.9,33.1H804C804.1,503.6,786.2,488.8,764.2,488.8z"/>
	</g>
	<path class="st23" d="M747.1,521.9H804c0-11.9-7.5-22.2-18.8-28.1C777.4,506.8,763.8,517,747.1,521.9z"/>
</g>
<g>
	<g>
		<path class="st22" d="M232.5,285.9c-10.7,0-19.4,7.2-19.4,16.1h38.7C251.8,293.1,243.2,285.9,232.5,285.9z"/>
	</g>
	<path class="st23" d="M224.2,302h27.6c0-5.8-3.7-10.8-9.1-13.6C238.9,294.7,232.3,299.6,224.2,302z"/>
</g>
<g>
	<g>
		<path class="st22" d="M211.4,250c-22,0-39.9,14.8-39.9,33.1h79.7C251.2,264.8,233.4,250,211.4,250z"/>
	</g>
	<path class="st23" d="M194.3,283.1h56.9c0-11.9-7.5-22.2-18.8-28.1C224.6,268,211,278.2,194.3,283.1z"/>
</g>
<g>
	<path class="st21" d="M770.2,155.2h-11.7c-3.6,0-6.5,2.9-6.5,6.5v23.9h24.7v-23.9C776.7,158.1,773.8,155.2,770.2,155.2z"/>
	<path class="st30" d="M775,160.4c-3.3,10.1-11.8,18.5-23.1,22.9v2.4h24.7v-20.2C776.7,163.6,776.1,161.9,775,160.4z"/>
</g>
<g>
	<path class="st21" d="M688.7,155.4H681c-2.4,0-4.3,1.9-4.3,4.3v15.9H693v-15.9C693,157.4,691.1,155.4,688.7,155.4z"/>
	<path class="st30" d="M691.9,158.8c-2.2,6.7-7.8,12.2-15.3,15.1v1.6H693v-13.3C693,161,692.6,159.8,691.9,158.8z"/>
</g>
<g>
	<path class="st21" d="M793.3,168.6h-17.6c-5.4,0-9.7,4.4-9.7,9.7v35.9h37v-35.9C803,173,798.7,168.6,793.3,168.6z"/>
	<path class="st30" d="M800.5,176.3c-4.9,15.2-17.7,27.7-34.6,34.3v3.6H803V184C803,181.2,802.1,178.6,800.5,176.3z"/>
</g>
<g>
	<path class="st21" d="M659.3,276.4h-17.6c-5.4,0-9.7,4.4-9.7,9.7V322h37v-35.9C669,280.8,664.7,276.4,659.3,276.4z"/>
	<path class="st30" d="M666.5,284.1c-4.9,15.2-17.7,27.7-34.6,34.3v3.6H669v-30.2C669,289,668.1,286.4,666.5,284.1z"/>
</g>
<g>
	<path class="st21" d="M757.7,181.1L757.7,181.1c-7.4,0-13.5,5-13.5,11.2v21.9h26.9v-21.9C771.2,186.1,765.2,181.1,757.7,181.1z"/>
	<path class="st30" d="M769.4,186.6c-3.6,11-12.9,20.1-25.1,24.9v2.6h26.9v-21.9C771.2,190.2,770.5,188.3,769.4,186.6z"/>
</g>
<g>
	<path class="st21" d="M661.5,415.6L661.5,415.6c-7.4,0-13.5,5-13.5,11.2v21.9h27v-21.9C674.9,420.6,668.9,415.6,661.5,415.6z"/>
	<path class="st30" d="M673.1,421.3c-3.6,11-12.9,20.1-25.1,24.9v2.6h27v-21.9C674.9,424.9,674.2,423,673.1,421.3z"/>
</g>
<g>
	<path class="st21" d="M672.9,310.1L672.9,310.1c-7.4,0-13.5,5-13.5,11.2v21.9h26.9v-21.9C686.3,315.1,680.3,310.1,672.9,310.1z"/>
	<path class="st30" d="M684.5,315.7c-3.6,11-12.9,20.1-25.1,24.9v2.6h26.9v-21.9C686.3,319.2,685.6,317.3,684.5,315.7z"/>
</g>
<g>
	<path class="st21" d="M627,302.7L627,302.7c-5.2,0-9.5,3.5-9.5,7.9v15.5h19v-15.5C636.5,306.3,632.2,302.7,627,302.7z"/>
	<path class="st30" d="M635.2,306.7c-2.5,7.8-9.1,14.2-17.7,17.5v1.9h19v-15.5C636.5,309.2,636,307.8,635.2,306.7z"/>
</g>
<g>
	<path class="st21" d="M694.5,432.2h-18c-5.5,0-9.9,4.4-9.9,9.9v36.7h37.9v-36.6C704.4,436.6,700,432.2,694.5,432.2z"/>
	<path class="st30" d="M701.9,440.1c-5,15.5-18.1,28.3-35.3,35v3.7h37.9v-30.9C704.4,445.1,703.5,442.4,701.9,440.1z"/>
</g>
<g>
	<path class="st21" d="M593.2,299.1L593.2,299.1c-7.4,0-13.5,5-13.5,11.2v21.9h26.9v-21.9C606.6,304.1,600.6,299.1,593.2,299.1z"/>
	<path class="st30" d="M604.8,304.7c-3.6,11-12.9,20.1-25.1,24.9v2.6h26.9v-21.9C606.6,308.3,605.9,306.4,604.8,304.7z"/>
</g>
<g>
	<g>
		<path class="st21" d="M678,167.6c-10.7,0-19.4,7.2-19.4,16.1h38.7C697.3,174.8,688.7,167.6,678,167.6z"/>
	</g>
	<path class="st30" d="M669.7,183.6h27.6c0-5.8-3.7-10.8-9.1-13.6C684.4,176.3,677.8,181.2,669.7,183.6z"/>
</g>
<g>
	<path class="st21" d="M704.6,145.2L704.6,145.2c-6.8,0-12.4,4.6-12.4,10.3v20.2h24.7v-20.2C716.9,149.8,711.4,145.2,704.6,145.2z"
		/>
	<path class="st30" d="M715.3,150.3c-3.3,10.1-11.8,18.5-23.1,22.9v2.4h24.7v-20.2C716.9,153.6,716.3,151.8,715.3,150.3z"/>
</g>
<g>
	<g>
		<path class="st21" d="M683.5,181.1c-13.8,0-24.9,9.3-24.9,20.7h49.8C708.4,190.3,697.3,181.1,683.5,181.1z"/>
	</g>
	<path class="st30" d="M672.9,201.7h35.6c0-7.4-4.7-13.9-11.8-17.6C691.8,192.3,683.3,198.7,672.9,201.7z"/>
</g>
<g>
	<g>
		<path class="st21" d="M719.2,400.2c-8.3,0-15,5.6-15,12.5h30.1C734.3,405.8,727.5,400.2,719.2,400.2z"/>
	</g>
	<path class="st30" d="M712.8,412.7h21.5c0-4.5-2.8-8.4-7.1-10.6C724.2,407,719.1,410.8,712.8,412.7z"/>
</g>
<g>
	<g>
		<path class="st21" d="M359.7,416.5c-8.3,0-15,5.6-15,12.5h30.1C374.7,422.1,368,416.5,359.7,416.5z"/>
	</g>
</g>
<g>
	<g>
		<path class="st21" d="M627,553.4c-8.3,0-15,5.6-15,12.5h30C642,559,635.3,553.4,627,553.4z"/>
	</g>
	<path class="st30" d="M620.6,565.9H642c0-4.5-2.8-8.4-7.1-10.6C632,560.2,626.8,564,620.6,565.9z"/>
</g>
<g>
	<g>
		<path class="st21" d="M670.6,568c-8.3,0-15,5.6-15,12.5h30.1C685.6,573.6,678.9,568,670.6,568z"/>
	</g>
	<path class="st30" d="M664.2,580.5h21.5c0-4.5-2.8-8.4-7.1-10.6C675.6,574.8,670.4,578.6,664.2,580.5z"/>
</g>
<g>
	<g>
		<path class="st21" d="M734,255.9c-8.3,0-15,5.6-15,12.5h30C749,261.5,742.3,255.9,734,255.9z"/>
	</g>
	<path class="st30" d="M727.5,268.4H749c0-4.5-2.8-8.4-7.1-10.6C739,262.7,733.8,266.5,727.5,268.4z"/>
</g>
<g>
	<g>
		<path class="st21" d="M356,172.8c-8.3,0-15,5.6-15,12.5h30.1C371,178.4,364.3,172.8,356,172.8z"/>
	</g>
	<path class="st30" d="M349.5,185.3H371c0-4.5-2.8-8.4-7.1-10.6C360.9,179.6,355.8,183.5,349.5,185.3z"/>
</g>
<g>
	<rect x="778.8" y="237.9" class="st17" width="2.4" height="17.2"/>
	<path class="st22" d="M790.8,226.9c0,7.1-4.9,12.3-10.9,12.3s-10.9-5.3-10.9-12.3s10.9-26.6,10.9-26.6S790.8,219.8,790.8,226.9z"/>
	<path class="st23" d="M787.1,214.6c1.5,11.8-3.7,21.9-12.3,23c-0.1,0-0.1,0-0.2,0c1.6,1,3.4,1.6,5.4,1.6c6,0,10.9-5.3,10.9-12.3
		C790.8,224.1,789.2,219.3,787.1,214.6z"/>
</g>
<g>
	<rect x="662.1" y="107" class="st17" width="2.4" height="17.2"/>
	<path class="st22" d="M674.1,95.9c0,7.1-4.9,12.3-10.9,12.3s-10.9-5.3-10.9-12.3c0-7.1,10.9-26.6,10.9-26.6S674.1,88.8,674.1,95.9z
		"/>
	<path class="st23" d="M670.3,83.7c1.5,11.8-3.7,21.9-12.3,23c-0.1,0-0.1,0-0.2,0c1.6,1,3.4,1.6,5.4,1.6c6,0,10.9-5.3,10.9-12.3
		C674.1,93.1,672.4,88.4,670.3,83.7z"/>
</g>
<g>
	<rect x="377" y="394.9" class="st17" width="2.4" height="17.2"/>
	<path class="st22" d="M389.1,383.8c0,7.1-4.9,12.3-10.9,12.3s-10.9-5.3-10.9-12.3s10.9-26.6,10.9-26.6S389.1,376.8,389.1,383.8z"/>
	<path class="st23" d="M385.4,371.6c1.5,11.8-3.7,21.9-12.3,23c-0.1,0-0.1,0-0.2,0c1.6,1,3.4,1.6,5.4,1.6c6,0,10.9-5.3,10.9-12.3
		C389.1,381,387.4,376.3,385.4,371.6z"/>
</g>
<g>
	<rect x="692.3" y="133.1" class="st17" width="1.6" height="11.3"/>
	<ellipse class="st22" cx="693" cy="125.5" rx="10.1" ry="8.4"/>
	<path class="st23" d="M698.3,118.3c0.9,1.3,1.5,2.8,1.5,4.3c0,4.6-4.5,8.4-10.1,8.4c-1.9,0-3.7-0.4-5.2-1.2c1.8,2.4,5,4.1,8.7,4.1
		c5.6,0,10.1-3.8,10.1-8.4C703.2,122.4,701.2,119.8,698.3,118.3z"/>
</g>
<g>
	<rect x="350.4" y="296.3" class="st17" width="3.5" height="24.8"/>
	<path class="st22" d="M367.8,280.3c0,10.2-7,17.8-15.7,17.8s-15.7-7.6-15.7-17.8s15.7-38.4,15.7-38.4S367.8,270.1,367.8,280.3z"/>
	<path class="st23" d="M362.4,262.7c2.2,17-5.4,31.5-17.8,33.2c-0.1,0-0.2,0-0.3,0c2.3,1.4,4.9,2.2,7.8,2.2
		c8.7,0,15.7-7.6,15.7-17.8C367.8,276.3,365.4,269.5,362.4,262.7z"/>
</g>
<g>
	<rect x="464.9" y="359.5" class="st17" width="3.5" height="24.8"/>
	<ellipse class="st22" cx="466.6" cy="342.8" rx="22.2" ry="18.5"/>
	<path class="st23" d="M478.1,327c2,2.8,3.2,6.1,3.2,9.5c0,10.2-10,18.5-22.2,18.5c-4.2,0-8.1-1-11.5-2.7c3.9,5.4,11,8.9,19.1,8.9
		c12.3,0,22.2-8.3,22.2-18.5C488.9,336.1,484.6,330.3,478.1,327z"/>
</g>
<g>
	<rect x="747.7" y="315.3" class="st17" width="3.5" height="24.8"/>
	<ellipse class="st22" cx="749.4" cy="298.6" rx="22.2" ry="18.5"/>
	<path class="st23" d="M760.9,282.8c2,2.8,3.2,6.1,3.2,9.5c0,10.2-10,18.5-22.2,18.5c-4.2,0-8.1-1-11.5-2.7c3.9,5.4,11,8.9,19.1,8.9
		c12.3,0,22.2-8.3,22.2-18.5C771.7,291.9,767.4,286.1,760.9,282.8z"/>
</g>
<g>
	<rect x="832.9" y="562" class="st17" width="3.5" height="24.8"/>
	<path class="st22" d="M850.4,546c0,10.2-7,17.8-15.7,17.8S819,556.2,819,546s15.7-38.4,15.7-38.4S850.4,535.8,850.4,546z"/>
	<path class="st23" d="M845,528.4c2.2,17-5.4,31.5-17.8,33.2c-0.1,0-0.2,0-0.3,0c2.3,1.4,4.9,2.2,7.8,2.2c8.7,0,15.7-7.6,15.7-17.8
		C850.4,542,847.9,535.2,845,528.4z"/>
</g>
<path class="st8" d="M831.8,615.1c-19.2,0-34.8-13-34.8-28.9c0-20.3-19.9-36.8-44.3-36.8h-57.6c-19.2,0-34.8-13-34.8-28.9v-14.3
	c0-9.6-4.4-18.7-12.5-25.6l-30-25.7c-8.3-7.1-19.9-11.2-31.8-11.2h-45.6l-17.3-23.3c-8.5-11.4-8.7-25.7-0.6-37.3l35.6-51.1
	c1-1.5,2-3.1,2.8-4.6c5.9-4.2,10.1-14.3,10.1-26.2v-13.4h15.2c8.9,0,16-12.7,16-28.3V238h2.3c4.7,2.9,8.9,5.1,12.1,6.2
	c2.3,0.7,4.6,1.4,6.8,2c3.9,1.1,7.6,2,10.9,3.6l49,23.5c17.8,8.5,28.8,24.4,28.8,41.5c0,30.8,30.1,55.8,67.2,55.8h20.3v-7.9h-20.3
	c-31.8,0-57.7-21.5-57.7-47.9c0-19.9-12.9-38.4-33.6-48.3L639,243c-4.2-2-8.5-3.2-12.7-4.3c-2.1-0.6-4.1-1.1-6.1-1.7
	c6.7-3.4,11.6-14.3,11.6-27.2c0-15.6-7.2-28.3-16-28.3H602v-24.8c0-15.6-7.2-28.3-16-28.3h-49.2v-3.3c0-15.6-7.2-28.3-16-28.3h-44.2
	c-8.9,0-16,12.7-16,28.3v3.3H419c-8.9,0-16,12.7-16,28.3v3.2h-67.7v7.9H403v9.5h-19.6c-8.9,0-16,12.7-16,28.3v11.9
	c0,15.6,7.2,28.3,16,28.3H403v13.7c0,15.6,7.2,28.3,16,28.3h27l-18.4,40.9c-2,3.9-6.6,6.4-11.7,6.4h-71.1c-7,0-12.7-4.7-12.7-10.5
	c0-10.2-9.9-18.4-22.2-18.4h-57.3v7.9h57.3c7,0,12.7,4.7,12.7,10.5c0,10.2,9.9,18.4,22.2,18.4h48.9l12,19.3
	c16.4,26.4,48.8,42.8,84.6,42.8h16.8c0.7,6.8,3.3,13.5,7.8,19.5l46.7,62.8c4.3,5.7,6.5,12.3,6.5,19.1v5.2c0,20-19.6,36.3-43.7,36.3
	c-29.4,0-53.2,19.8-53.2,44.2v88.4h9.5v-88.4c0-20,19.6-36.3,43.7-36.3c29.4,0,53.2-19.8,53.2-44.2v-5.2c0-8.2-2.7-16.2-7.9-23.2
	l-23.5-31.6H586c9.4,0,18.5,3.2,25,8.8l30,25.7c6.3,5.4,9.8,12.6,9.8,20.1v14.3c0,20.3,19.9,36.8,44.3,36.8h57.6
	c19.2,0,34.8,13,34.8,28.9c0,20.3,19.9,36.8,44.3,36.8h32.9v-7.9L831.8,615.1L831.8,615.1z M514.2,379.2c-3.9,5.6-6.2,11.8-6.9,18
	h-16.9c-32.2,0-61.3-14.8-76.1-38.5l-9.7-15.7H416c8.9,0,16.9-4.4,20.4-11.2l22-43.9h30.1v13.4c0,15.6,7.2,28.3,16,28.3h44.3
	L514.2,379.2z"/>
<g>
	<rect x="770.5" y="331.6" class="st17" width="2.4" height="17.2"/>
	<path class="st22" d="M782.6,320.5c0,7.1-4.9,12.3-10.9,12.3s-10.9-5.3-10.9-12.3s10.9-26.6,10.9-26.6S782.6,313.4,782.6,320.5z"/>
	<path class="st23" d="M778.8,308.3c1.5,11.8-3.7,21.9-12.3,23c-0.1,0-0.1,0-0.2,0c1.6,1,3.4,1.6,5.4,1.6c6,0,10.9-5.3,10.9-12.3
		C782.6,317.7,780.8,313,778.8,308.3z"/>
</g>
<g>
	<g>
		<path class="st21" d="M364.5,124.9c-6.5,0-11.7,4.3-11.7,9.7h23.4C376.2,129.2,371,124.9,364.5,124.9z"/>
	</g>
	<path class="st30" d="M359.5,134.6h16.7c0-3.5-2.2-6.5-5.5-8.2C368.4,130.2,364.4,133.2,359.5,134.6z"/>
</g>
<g>
	<path class="st12" d="M124.5,656.1c-2,0-3.7,1.4-3.7,3c0,0.8,0.4,1.6,1.1,2.1c0.7,0.6,1.6,0.9,2.6,0.9h4.9H271h10.8
		c2,0,3.7-1.4,3.7-3c0-0.8-0.4-1.6-1.1-2.2c-0.7-0.5-1.6-0.9-2.6-0.9H124.5"/>
	<path class="st13" d="M129.4,662.1l12,22c2.2,4.1,7.2,6.8,12.7,6.8h67.4c17.1,0,33.1-7.3,42.3-19.2l7.4-9.6H129.4"/>
	<path class="st14" d="M129.4,662.1h4.2l7.7,14.2c2.2,4.1,7.2,6.8,12.7,6.8h67.4c17.1,0,33.1-7.3,42.3-19.2l1.4-1.8h6l-7.4,9.6
		c-9.2,12-25.2,19.2-42.3,19.2H154c-5.5,0-10.4-2.7-12.7-6.8L129.4,662.1"/>
	<path class="st2" d="M132.1,637.1c0,0,35.5-0.6,59.7,12.2v-56.4C191.9,592.9,172.5,615.2,132.1,637.1z"/>
	<path class="st2" d="M198.9,592.9v56.4c28.9-4.9,64.1,0,64.1,0C222.7,627.4,198.9,592.9,198.9,592.9z"/>
	<path class="st12" d="M145.7,670c0,2.6,2.5,4.7,5.6,4.7s5.6-2.1,5.6-4.7c0-2.6-2.5-4.7-5.6-4.7S145.7,667.4,145.7,670z"/>
	<path class="st16" d="M147.4,670c0,1.8,1.8,3.3,4,3.3s4-1.5,4-3.3s-1.8-3.3-4-3.3C149.1,666.7,147.4,668.2,147.4,670z"/>
	<path class="st12" d="M163.2,670c0,2.6,2.5,4.7,5.6,4.7s5.6-2.1,5.6-4.7c0-2.6-2.5-4.7-5.6-4.7S163.2,667.4,163.2,670z"/>
	<path class="st16" d="M164.8,670c0,1.8,1.8,3.3,4,3.3s4-1.5,4-3.3s-1.8-3.3-4-3.3C166.6,666.7,164.8,668.2,164.8,670z"/>
	<path class="st12" d="M180.6,670c0,2.6,2.5,4.7,5.6,4.7s5.6-2.1,5.6-4.7c0-2.6-2.5-4.7-5.6-4.7S180.6,667.4,180.6,670z"/>
	<path class="st16" d="M182.3,670c0,1.8,1.8,3.3,4,3.3s4-1.5,4-3.3s-1.8-3.3-4-3.3C184.1,666.7,182.3,668.2,182.3,670z"/>
	<path class="st12" d="M198.1,670c0,2.6,2.5,4.7,5.6,4.7s5.6-2.1,5.6-4.7c0-2.6-2.5-4.7-5.6-4.7S198.1,667.4,198.1,670z"/>
	<path class="st16" d="M199.7,670c0,1.8,1.8,3.3,4,3.3s4-1.5,4-3.3s-1.8-3.3-4-3.3S199.7,668.2,199.7,670z"/>
	<path class="st12" d="M215.6,670c0,2.6,2.5,4.7,5.6,4.7s5.6-2.1,5.6-4.7c0-2.6-2.5-4.7-5.6-4.7S215.6,667.4,215.6,670z"/>
	<path class="st16" d="M217.2,670c0,1.8,1.8,3.3,4,3.3s4-1.5,4-3.3s-1.8-3.3-4-3.3S217.2,668.2,217.2,670z"/>
	<path class="st12" d="M233,670c0,2.6,2.5,4.7,5.6,4.7s5.6-2.1,5.6-4.7c0-2.6-2.5-4.7-5.6-4.7S233,667.4,233,670z"/>
	<path class="st16" d="M234.7,670c0,1.8,1.8,3.3,4,3.3s4-1.5,4-3.3s-1.8-3.3-4-3.3C236.4,666.7,234.7,668.2,234.7,670z"/>
	<polyline class="st17" points="196.6,568.8 196.6,656.1 194.5,656.1 194.5,568.8 	"/>
	<path class="st17" d="M277.2,656.5c0,0-16.1-5.7-34.5-16.4c-18.3-10.8-38.9-26.6-47.7-47l0.5-0.2l0.5,0.2c0,0-8.6,11.6-21.4,25.3
		s-29.7,29.5-46.3,38.1l-0.6-0.8c16.4-8.5,33.3-24.2,46-37.9c6.4-6.8,11.7-13.1,15.4-17.7c1.9-2.3,3.3-4.2,4.3-5.5
		c0.5-0.6,0.9-1.1,1.1-1.5s0.4-0.5,0.4-0.5l0.6-0.8l0.4,0.9c8.7,20.2,29.1,35.9,47.3,46.6c9.1,5.3,17.7,9.4,24,12.2
		c3.1,1.4,5.7,2.4,7.5,3.1c0.9,0.3,1.6,0.6,2.1,0.8s0.7,0.3,0.7,0.3L277.2,656.5L277.2,656.5z"/>
	<path class="st17" d="M196.1,592.9c0,0-6.3,36.1-33.2,63.4l-0.8-0.6c13.3-13.5,21.6-29.3,26.5-41.6c2.5-6.2,4.1-11.5,5.1-15.3
		c0.5-1.9,0.9-3.4,1.1-4.4c0.1-0.5,0.2-0.9,0.2-1.2c0.1-0.3,0.1-0.4,0.1-0.4L196.1,592.9L196.1,592.9z"/>
	<polygon class="st2" points="167,582.2 195.5,591.4 195.5,570.2 	"/>
	<path class="st17" d="M196.1,592.7c0,0,0.1,0.2,0.2,0.5c0.9,2.6,5.4,14.6,12.6,27.7c7.2,13.1,17.2,27.4,29.2,34.7l-0.6,0.7
		c-13.1-7.9-23.7-23.8-31-37.7s-11.4-25.8-11.4-25.8L196.1,592.7L196.1,592.7z"/>
	<path class="st17" d="M126.4,656.1c0,0.8,0.7,1.4,1.7,1.4c0.9,0,1.7-0.6,1.7-1.4c0-0.8-0.7-1.4-1.7-1.4
		C127.1,654.7,126.4,655.3,126.4,656.1z"/>
	<path class="st17" d="M161.5,656.1c0,0.8,0.7,1.4,1.7,1.4c0.9,0,1.7-0.6,1.7-1.4c0-0.8-0.7-1.4-1.7-1.4
		C162.3,654.7,161.5,655.3,161.5,656.1z"/>
	<path class="st17" d="M236.1,656.1c0,0.8,0.7,1.4,1.7,1.4c0.9,0,1.7-0.6,1.7-1.4c0-0.8-0.7-1.4-1.7-1.4
		C236.8,654.7,236.1,655.3,236.1,656.1z"/>
	<path class="st17" d="M275.7,656.1c0,0.8,0.7,1.4,1.7,1.4c0.9,0,1.7-0.6,1.7-1.4c0-0.8-0.7-1.4-1.7-1.4
		C276.5,654.7,275.7,655.3,275.7,656.1z"/>
	<g>
		<path class="st31" d="M187,577.2c-2.5,0-4.5,1.7-4.5,3.8c0,1.4,0.9,2.5,2.2,3.2v1c0,0.2,0.2,0.4,0.5,0.4h0.1v-1.4h0.4v1.4h0.4
			v-1.4h0.4v1.4h0.4v-1.4h0.4v1.4h0.4v-1.4h0.4v1.4h0.4v-1.4h0.4v1.4h0.1c0.3,0,0.5-0.2,0.5-0.4v-1c1.3-0.7,2.2-1.9,2.2-3.2
			C191.5,578.8,189.5,577.2,187,577.2z M183.7,581.8c0-0.6,0.6-1.2,1.4-1.2s1.4,0.5,1.4,1.2s-0.6,1.2-1.4,1.2
			C184.3,582.9,183.7,582.4,183.7,581.8z M187.4,583.6h-0.8c-0.2,0-0.3-0.1-0.2-0.3l0,0l0.4-0.6c0.1-0.1,0.3-0.1,0.4,0l0.4,0.6l0,0
			C187.7,583.5,187.6,583.6,187.4,583.6z M189,582.9c-0.8,0-1.4-0.5-1.4-1.2s0.6-1.2,1.4-1.2s1.4,0.5,1.4,1.2S189.7,582.9,189,582.9
			z"/>
	</g>
</g>
<g>
	<path class="st21" d="M479.1,246.1c-2.1-1.2-4,2.1-1.9,3.3c10.3,5.9,22.4,7.8,34,5.4c9.6-2,18.5-7.1,25.1-14.2
		c6.8-7.2,11.2-16.5,12.5-26.3c1.4-10.5-0.6-21.2-5.9-30.4c-2-3.5-4.5-6.7-7.3-9.6l3.3-3.8c6.1,6.2,10.7,13.8,13.2,22.2
		c3.5,11.7,2.7,24.3-1.9,35.6c-0.4,1,0.4,2.1,1.3,2.3c1.1,0.3,2-0.4,2.3-1.3c4.4-10.8,5.3-22.8,2.8-34.1
		c-2.1-9.4-6.8-18.2-13.2-25.4c-6.4-7.1-14.6-12.6-23.7-15.7c-10-3.5-21-4-31.3-1.7c-10.7,2.4-20.7,8.1-28.3,16.1
		c-0.9,1-1.8,1.9-2.6,3c-0.7,0.8-0.8,1.9,0,2.7c0.7,0.7,2,0.8,2.7,0c6.6-8,15.4-14,25.3-17c9.7-3,20.2-3.1,30-0.4
		c8,2.2,15.2,6.3,21.2,11.8l-3.2,3.8c-3.8-3.5-8.2-6.3-12.9-8.4c-1.2-0.5-2.5-1-3.8-1.5c-2.3-0.8-3.3,2.9-1,3.7
		c9,3.1,16.8,9.2,22.1,17.1c4,5.9,6.4,12.7,7.2,19.8l-6.2,0.5c-0.5-4.5-1.8-9-4-13.2c-0.9-1.8-2-3.5-3.3-5.2
		c-0.6-0.8-1.6-1.2-2.6-0.7c-0.8,0.5-1.3,1.8-0.7,2.6c4.8,6.4,7.3,14.1,7,22.1c-0.2,6.4-2.3,12.7-5.9,18.1
		c-7.2,10.6-20.1,16.4-32.8,14.7c-12.6-1.6-23.6-10.5-27.8-22.4c-0.2-0.5-0.3-0.9-0.4-1.4c0-0.1,0-0.3-0.1-0.4
		c0-0.1-0.1-0.1-0.1-0.2c-3.4-11.8-0.3-24.8,8.3-33.6c9.7-9.9,24.8-13.1,37.7-7.8c1.8,0.7,3.5,1.7,5.2,2.7c2.1,1.3,4-2,1.9-3.3
		c-8.1-5.1-17.7-6.7-26.8-5.1l-1.3-6.1c3.1-0.6,6.3-0.8,9.5-0.7c2.5,0.1,2.4-3.7,0-3.8c-14.4-0.4-28.5,5.7-37.9,16.6
		c-9.9,11.5-13.9,27.2-10.6,42c2,9.1,6.8,17.5,13.4,24c1.8,1.7,4.4-1,2.7-2.7c-4.9-4.8-8.6-10.6-10.8-17l5.7-2.2
		c4.1,11.6,13.9,20.9,25.9,24.1c5.4,1.5,11.1,1.7,16.5,0.7l1.3,6.1C498.8,253.1,488.1,251.3,479.1,246.1z M458.7,219.8
		c-2-7-2.3-14.5-0.7-21.8c2.9-12.7,11.4-23.7,23-29.7c3-1.5,6.1-2.7,9.3-3.5l1.3,6.1c-5,1.3-9.8,3.6-14,6.8
		c-11.3,8.9-16.6,23.7-13.7,37.8c0.1,0.7,0.3,1.3,0.5,2L458.7,219.8z M510.5,244.7c7.3-1.9,14-5.8,19.1-11.6
		c6.6-7.5,9.9-17.2,9.5-26.8l6.2-0.5c0.1,1.6,0.1,3.1,0,4.7c-1.1,18.3-14,34.5-31.6,39.7c-0.6,0.2-1.3,0.3-1.9,0.5L510.5,244.7z"/>
	<path class="st21" d="M572.5,215.3c-1.1,0-1.8,0.9-1.9,1.9c-1.2,9.4-4.5,18.4-9.3,26.5l-3.7-2.6c9.6-16.1,11.7-36.2,5.8-54
		c-0.6-1.9-1.4-3.8-2.2-5.6l3.9-2.3c3.1,6.9,5.1,14.4,5.8,22c0.1,1,0.8,1.9,1.9,1.9c1,0,2-0.9,1.9-1.9c-0.9-9.9-3.8-19.5-8.5-28.2
		c-4.6-8.5-10.8-16.1-18.3-22.2c-7.6-6.2-16.3-10.9-25.7-13.6c-10.5-3.1-21.6-3.8-32.4-2.1c-11.5,1.8-22.7,6.4-32.1,13.3
		c-1.2,0.9-2.3,1.8-3.4,2.7c-0.8,0.7-0.7,2,0,2.7c0.8,0.8,1.9,0.7,2.7,0c6.8-5.6,14.7-9.8,23-12.4l1.2,4.3
		c-14.1,4.6-26.5,14-34.7,26.4c-7.4,11.2-11.2,24.8-10.7,38.2l-4.5,0.6c-0.4-9.6,1.2-19.2,4.6-28.1c2.8-7.3,6.9-14.1,12-20.1
		c0.7-0.8,0.8-1.9,0-2.7c-0.7-0.7-2-0.8-2.7,0c-9.8,11.4-15.8,25.5-17.4,40.5c-1.5,14.6,1.4,29.6,8.4,42.6c3.8,7,8.7,13.4,14.5,18.8
		c1.8,1.7,4.5-1,2.7-2.7c-9.9-9.3-16.9-21.3-20.2-34.4c-0.9-3.6-1.5-7.2-1.8-10.8l4.5-0.6c0.1,1,0.2,2,0.3,2.9
		c1.9,15,9,29.1,20.1,39.5c11.2,10.5,25.9,16.8,41.2,17.7c2.6,0.1,5.1,0.1,7.7,0c2.4-0.1,2.5-4,0-3.8c-13.5,0.8-27-2.7-38.2-10.2
		l2.7-3.9c4.7,3.1,9.8,5.5,15.2,7.1c10.7,3.2,22.4,3.1,33-0.2c10.7-3.3,20.3-9.9,27.4-18.6c0.9-1.1,1.8-2.3,2.6-3.5
		c0.6-0.8,0.2-2.1-0.7-2.6c-0.9-0.6-2-0.2-2.6,0.7c-5.9,8.5-14.4,15.3-24.1,19.1c-9.8,3.8-20.7,4.7-31,2.4c-9.2-2-17.8-6.5-24.7-13
		c-6.8-6.4-11.9-14.5-14.6-23.5c-3.2-10.5-3-21.9,0.5-32.4c0.5-1.5,1.1-2.9,1.7-4.4c0.4-0.9,0.3-2-0.7-2.6c-0.8-0.5-2.2-0.3-2.6,0.7
		c-5,11.2-6.3,23.8-3.6,35.8c2.2,9.8,7.1,19,14,26.4c2.4,2.5,5,4.8,7.7,6.9l-2.7,3.9c-0.5-0.4-1.1-0.8-1.6-1.2
		c-11.2-8.9-19.1-21.4-22.1-35.4c-3.1-14.3-0.9-29.5,6.1-42.4c6.7-12.3,17.7-22.3,30.7-27.6c15.1-6.2,32.5-6.2,47.6,0.2
		c2.1,0.9,4.1,1.9,6.1,3c2.1,1.2,4.1-2.1,1.9-3.3c-14.9-8.3-32.8-10.5-49.2-6.1l-1.2-4.3c11.4-3.1,23.6-3.4,35.3-0.5
		c17.9,4.4,33.6,16.1,43.1,31.9c0.9,1.5,1.8,3.1,2.6,4.7l-3.9,2.3c-3.5-7-8.2-13.4-14-18.8c-1.8-1.7-4.5,1-2.7,2.7
		c13.7,12.9,20.9,31.3,19.5,50.1c-1.3,16.6-9.6,32.2-22.4,42.8c-7.5,6.2-16.5,10.5-26.1,12.5c-2.4,0.5-1.4,4.2,1,3.7
		c16.7-3.7,31.5-13.9,40.8-28.1l3.7,2.6c-3.5,5.3-7.7,10.2-12.5,14.4c-12.8,11.2-29.5,17.3-46.4,17.2c-12.1-0.1-24-3.3-34.4-9.3
		c-2.1-1.2-4,2.1-1.9,3.3c18,10.3,40,12.7,59.7,6.2c16.1-5.3,30.1-16.2,39.3-30.4c0.1-0.1,0.2-0.2,0.3-0.3c0.1-0.2,0.2-0.4,0.2-0.5
		c0.2-0.3,0.4-0.6,0.6-0.9c5.2-8.7,8.5-18.5,9.9-28.5C574.5,216.2,573.4,215.3,572.5,215.3z"/>
</g>
<ellipse class="st32" cx="500.8" cy="212.2" rx="20.5" ry="3.7"/>
<path class="st12" d="M510.3,194.6h-17.5c2.9,0,5.2,2.3,5.2,5.2l0,0h17.5l0,0C515.4,196.9,513.1,194.6,510.3,194.6z"/>
<rect x="487.2" y="199.8" class="st12" width="10.7" height="13.2"/>
<rect x="497.9" y="199.8" class="st12" width="17.5" height="13.2"/>
<path class="st12" d="M492.8,194.6h-0.4c-2.9,0-5.2,2.3-5.2,5.2l0,0h10.7l0,0C497.9,196.9,495.6,194.6,492.8,194.6z"/>
<line class="st0" x1="515.4" y1="201.3" x2="487.2" y2="201.3"/>
<path class="st33" d="M512.2,195c-1.2,7.1-4.7,13.3-9.7,18h12.9v-1.5v-10.1v-1.5l0,0C515.4,197.6,514.1,195.7,512.2,195z"/>
<path class="st15" d="M499.3,199.8c0-2.9-2.3-5.2-5.2-5.2h-0.4c-0.2,0-0.3,0-0.5,0c2.6,0.2,4.7,2.5,4.7,5.1l0,0V213h1.4V199.8
	L499.3,199.8z"/>
<polygon class="st18" points="510,183.4 511.6,184 510,184.5 509.4,186.2 508.9,184.5 507.2,184 508.9,183.4 509.4,181.8 "/>
<polygon class="st18" points="497.7,179.9 499.3,180.4 497.7,181 497.1,182.6 496.6,181 494.9,180.4 496.6,179.9 497.1,178.2 "/>
<polygon class="st18" points="500.2,188.9 502.7,189.8 500.2,190.6 499.3,193.2 498.4,190.6 495.9,189.8 498.4,188.9 499.3,186.4 
	"/>
<polygon class="st18" points="481.2,188.9 483.8,189.8 481.2,190.7 480.3,193.3 479.4,190.7 476.7,189.8 479.4,188.9 480.3,186.2 
	"/>
<polygon class="st18" points="519.1,187.8 521.9,188.7 519.1,189.7 518.1,192.5 517.2,189.7 514.3,188.7 517.2,187.8 518.1,185 "/>
<polygon class="st18" points="488.9,188.5 490.6,189.1 488.9,189.6 488.3,191.4 487.7,189.6 486,189.1 487.7,188.5 488.3,186.8 "/>
<g>
	<g>
		
			<rect x="491.1" y="220.9" transform="matrix(0.8029 -0.5961 0.5961 0.8029 -33.7195 344.8072)" class="st34" width="26.9" height="5"/>
	</g>
	<g>
		
			<rect x="503.3" y="209.2" transform="matrix(0.6073 -0.7945 0.7945 0.6073 20.7779 489.7415)" class="st34" width="5" height="29.3"/>
	</g>
</g>
<rect x="487.2" y="200.5" class="st15" width="28.2" height="1.5"/>
<g>
	<path class="st12" d="M393.2,155.8L393.2,155.8c-0.1-0.1-0.6-0.7-1.5-1.4c-0.5-0.3-1-0.6-1.6-0.9c-0.6-0.2-1.3-0.4-2-0.4
		c-0.9,0-1.9,0.2-2.9,0.8c-1.1,0.6-2.2,1.5-3.4,2.9l-0.3-0.2c1.2-1.4,2.4-2.4,3.5-3s2.2-0.8,3.1-0.8c0.8,0,1.6,0.2,2.3,0.4
		c1,0.4,1.8,1,2.4,1.5s0.9,0.9,0.9,0.9L393.2,155.8L393.2,155.8z"/>
	<path class="st2" d="M385.4,163.3c0,3.7,3.6,6.7,8,6.7s8-3,8-6.7s-3.6-6.7-8-6.7C388.9,156.7,385.4,159.7,385.4,163.3z"/>
	<path class="st35" d="M396.8,160.9c0.6,0.8,1.6,1.1,2.2,0.8s0.5-1.2-0.1-2s-1.6-1.1-2.2-0.8S396.2,160.1,396.8,160.9z"/>
	<path class="st2" d="M393.4,156.7c-0.3,0-0.6,0-1,0v-1.1h1.9v1.1C394,156.7,393.7,156.7,393.4,156.7z"/>
	<path class="st13" d="M380.5,154.1c0.9,2.4,1.2,2.4,2.1,0c-0.9,2.4-0.8,2.5,1.7,1c-2.5,1.5-2.4,1.7,0.6,1.7c-3.1,0-3.1,0.2-0.6,1.7
		c-2.5-1.5-2.6-1.4-1.7,1c-0.9-2.4-1.2-2.4-2.1,0c0.9-2.4,0.8-2.5-1.7-1c2.5-1.5,2.4-1.7-0.6-1.7c3.1,0,3.1-0.2,0.6-1.7
		C381.3,156.6,381.5,156.5,380.5,154.1z"/>
</g>
<g>
	<path class="st28" d="M513.7,48.9l-40,57.5h96l-40-57.5C525.8,43.3,517.6,43.3,513.7,48.9z"/>
	<path class="st29" d="M506.9,60.7c2.5,0,2.5,3.5,4.9,3.5c2.5,0,2.5-3.5,4.9-3.5c2.5,0,2.5,3.5,4.9,3.5s2.5-3.5,4.9-3.5
		c2.5,0,2.5,3.5,4.9,3.5c2.5,0,2.5-3.5,4.9-3.5c1.9,0,2.3,2.1,3.6,3.1l-2.2-3.2c-7.2-10.3-25-10.3-32.2,0l-2.2,3.2
		C504.6,62.8,505,60.7,506.9,60.7z"/>
	<path class="st30" d="M540.1,63.9c-2.8,17.6-14.5,32.9-31.4,42.5h60.9L540.1,63.9z"/>
</g>
<g>
	<path class="st28" d="M567.7,75.3L540,115.1h66.4l-27.7-39.8C576.1,71.5,570.4,71.5,567.7,75.3z"/>
	<path class="st29" d="M563,83.5c1.7,0,1.7,2.4,3.4,2.4s1.7-2.4,3.4-2.4s1.7,2.4,3.4,2.4s1.7-2.4,3.4-2.4s1.7,2.4,3.4,2.4
		s1.7-2.4,3.4-2.4c1.3,0,1.6,1.5,2.5,2.1l-1.6-2.2c-4.9-7.1-17.3-7.1-22.3,0l-1.5,2.2C561.4,84.9,561.7,83.5,563,83.5z"/>
	<path class="st30" d="M586,85.7c-1.9,12.2-10.1,22.8-21.7,29.4h42.1L586,85.7z"/>
</g>
<g>
	<path class="st28" d="M457.8,75L436,106.3h52.3L466.5,75C464.4,72,459.9,72,457.8,75z"/>
	<path class="st29" d="M454.1,81.4c1.3,0,1.3,1.9,2.7,1.9c1.3,0,1.3-1.9,2.7-1.9c1.3,0,1.3,1.9,2.7,1.9c1.3,0,1.3-1.9,2.7-1.9
		c1.3,0,1.3,1.9,2.7,1.9c1.3,0,1.3-1.9,2.7-1.9c1,0,1.3,1.2,2,1.7l-1.2-1.8c-3.9-5.6-13.6-5.6-17.5,0l-1.2,1.7
		C452.9,82.5,453.1,81.4,454.1,81.4z"/>
	<path class="st30" d="M472.2,83.2c-1.5,9.6-7.9,17.9-17.1,23.2h33.2L472.2,83.2z"/>
</g>
<g>
	<g>
		<path class="st21" d="M587.4,120.3c-6.5,0-11.7,4.3-11.7,9.7h23.4C599.1,124.6,593.9,120.3,587.4,120.3z"/>
	</g>
</g>
<g>
	<g>
		<path class="st21" d="M440.1,120.1c-8.3,0-15,5.6-15,12.5h30.1C455.1,125.7,448.4,120.1,440.1,120.1z"/>
	</g>
</g>
<g>
	<rect x="420.5" y="131.5" class="st17" width="2.4" height="17.2"/>
	<path class="st22" d="M432.5,120.4c0,7.1-4.9,12.3-10.9,12.3s-10.9-5.3-10.9-12.3s10.9-26.6,10.9-26.6S432.5,113.3,432.5,120.4z"/>
	<path class="st23" d="M428.8,108.2c1.5,11.8-3.7,21.9-12.3,23c-0.1,0-0.1,0-0.2,0c1.6,1,3.4,1.6,5.4,1.6c6,0,10.9-5.3,10.9-12.3
		C432.5,117.6,430.8,112.9,428.8,108.2z"/>
</g>
<g>
	<rect x="603.2" y="191.6" class="st17" width="3.5" height="24.8"/>
	<path class="st22" d="M620.6,175.7c0,10.2-7,17.8-15.7,17.8s-15.7-7.6-15.7-17.8s15.7-38.4,15.7-38.4S620.6,165.4,620.6,175.7z"/>
	<path class="st23" d="M615.2,158.1c2.2,17-5.4,31.5-17.8,33.2c-0.1,0-0.2,0-0.3,0c2.3,1.4,4.9,2.2,7.8,2.2
		c8.7,0,15.7-7.6,15.7-17.8C620.6,171.7,618.2,164.9,615.2,158.1z"/>
</g>
<g>
	<path class="st21" d="M390.6,248.8L390.6,248.8c-6.8,0-12.4,4.6-12.4,10.3v20.2H403V259C403,253.4,397.4,248.8,390.6,248.8z"/>
	<path class="st30" d="M401.3,253.9c-3.3,10.1-11.8,18.5-23.1,22.9v2.4H403V259C403,257.2,402.4,255.4,401.3,253.9z"/>
</g>
<g>
	<path class="st21" d="M410.8,262.1L410.8,262.1c-10.2,0-18.5,6.9-18.5,15.4v30.2h37.1v-30.2C429.3,269,421,262.1,410.8,262.1z"/>
	<path class="st30" d="M426.8,269.8c-4.9,15.2-17.7,27.7-34.6,34.3v3.6h37.1v-30.2C429.3,274.7,428.4,272.1,426.8,269.8z"/>
</g>
<g>
	<path class="st21" d="M384,274.6L384,274.6c-7.4,0-13.5,5-13.5,11.2v21.9h26.9v-21.9C397.5,279.6,391.5,274.6,384,274.6z"/>
	<path class="st30" d="M395.7,280.2c-3.6,11-12.9,20.1-25.1,24.9v2.6h26.9v-21.9C397.5,283.7,396.8,281.8,395.7,280.2z"/>
</g>
<g>
	<rect x="529.8" y="307.1" class="st17" width="1.6" height="11.3"/>
	<path class="st22" d="M540.7,299.5c0,4.6-4.5,8.4-10.1,8.4s-10.1-3.8-10.1-8.4s4.5-8.4,10.1-8.4S540.7,294.9,540.7,299.5z"/>
	<path class="st23" d="M535.8,292.3c0.9,1.3,1.5,2.8,1.5,4.3c0,4.6-4.5,8.4-10.1,8.4c-1.9,0-3.7-0.4-5.2-1.2c1.8,2.4,5,4.1,8.7,4.1
		c5.6,0,10.1-3.8,10.1-8.4C540.7,296.5,538.8,293.8,535.8,292.3z"/>
</g>
</svg>
