<?xml version="1.0" encoding="utf-8"?>
<!-- Generator: Adobe Illustrator 23.1.0, SVG Export Plug-In . SVG Version: 6.00 Build 0)  -->
<svg version="1.1" id="Calque_1" xmlns="http://www.w3.org/2000/svg" xmlns:xlink="http://www.w3.org/1999/xlink" x="0px" y="0px"
	 viewBox="0 0 1140 750" style="enable-background:new 0 0 1140 750;" xml:space="preserve">
<style type="text/css">
	.st0{fill:none;stroke:#604D40;stroke-width:16;stroke-linecap:round;stroke-miterlimit:10;}
	.st1{fill:#937E6D;}
</style>
<path class="st0" d="M823.6,483.5c-14.7,39.9-38.4,77.6-70.4,109.6c-119.3,119.3-312.8,119.3-432.2,0s-119.3-312.8,0-432.2
	s312.8-119.3,432.2,0c68.1,68.1,97.1,160.4,87.7,249.2"/>
<g>
	<path class="st1" d="M581.2,535.4c-8.7,2.3-4.9,16.2,3.8,13.9c43.3-11.7,80.6-38.8,105-76c20.3-30.9,30.5-68.1,29-104.7
		c-1.1-37.3-13.9-73.8-36.9-103.2c-24.1-31.6-58-55-96.8-65.1c-14.7-4.1-29.7-6-45.2-6l-1.5-18.8c32.8,0.4,65.1,8.3,94.1,24.1
		c40.3,21.8,71.9,57.6,89.6,99.8c1.5,3.8,6.8,4.5,9.4,2.6c3.8-2.3,4.1-6.4,2.6-9.4c-16.9-40.3-46.7-74.9-83.2-98.3
		c-30.5-19.6-66.6-30.5-102.8-32.4c-35.8-1.9-72.3,5.3-105,21.5c-35.8,17.3-66.6,45.2-87.7,78.7c-22.2,35-33.5,76.8-32.4,118.2
		c0.4,4.9,0.4,9.8,1.1,15.1c0.4,4.1,3,7.2,7.2,7.2c3.8,0,7.5-3,7.2-7.2c-3.8-38.8,3.8-78.3,22.2-112.6
		c17.7-33.9,45.6-62.1,78.7-80.9c27.1-15.4,57.2-23.7,87.7-24.8l1.5,18.4c-19.6,0.8-38.8,4.9-56.8,12c-4.5,1.9-9.4,4.1-13.9,6
		c-8.3,4.1-1.1,16.6,7.2,12.4c32.4-15.8,69.3-20.3,104.3-13.2c26.4,4.9,50.8,16.9,71.9,33.5L626.4,264
		c-13.2-10.5-28.6-19.2-45.9-24.5c-7.2-2.3-14.7-4.1-22.6-4.9c-3.8-0.4-7.5,1.1-8.7,4.9c-0.8,3.4,1.5,8.3,4.9,8.7
		c29.7,4.1,56.8,18.1,77.6,40.3c16.6,17.7,27.9,39.9,32.4,64c9,47.4-9.8,97.1-48.2,126.5c-37.6,29.4-90.7,35-133.6,14.3
		c-1.9-0.8-3-1.5-4.9-2.6c-0.4-0.4-0.8-0.8-1.5-0.8c-0.4-0.4-0.4,0-0.8-0.4c-40.3-22.2-66.6-65.1-67.4-111.4
		c-0.4-52.3,31.2-100.9,79.4-121.2c6.8-3,13.9-4.9,21.1-6.8c9-2.3,5.3-15.8-3.8-13.9c-35,7.9-65.1,29.4-85.1,57.6l-19.6-12.8
		c6.8-9.8,14.7-18.8,23.3-27.1c6.8-6.4-3.4-16.2-10.2-10.2c-39.5,37.3-60.6,91.1-56.8,144.9c4.1,56.8,35.4,109.6,83.6,140
		c29.4,18.8,64.8,28.6,99.4,28.2c9.4-0.4,9-14.3,0-14.3c-26,0.4-51.2-5.3-74.2-16.6l9.4-21.1c41.8,20,92.6,18.4,133.3-4.9
		c18.4-10.5,34.3-24.8,45.9-42.2l19.6,12.8C652.3,501.5,618.8,525.3,581.2,535.4z M457,519.6c-24.1-13.2-44.8-32.4-59.9-56.1
		c-26-41.4-32.8-93.4-17.7-140.4c4.1-12,9-23.3,15.4-34.3l19.6,12.8c-9.8,16.9-16.6,35.8-19.2,55.3c-6.4,53.8,18.8,107.3,64,137
		c2.3,1.5,4.1,2.6,6.8,4.1L457,519.6z M661,448.1c14.3-24.5,21.8-52.7,20-81.7c-2.3-37.6-19.6-72.3-45.9-96.8l15.1-17.7
		c4.5,4.1,8.7,7.9,12.4,12.4c45.9,51.6,54.6,129.1,21.5,189.7c-1.1,2.3-2.6,4.1-3.8,6.4L661,448.1z"/>
	<path class="st1" d="M748,204.5c-3,3-2.3,7.2,0,10.2c21.8,28.2,36.9,61,45.9,95.2l-16.9,3c-17.3-68.5-65.1-127.6-128.4-159.2
		c-6.8-3.4-13.9-6.4-20.7-9l4.1-16.6c26.7,10.2,52,24.8,74.2,43.3c3,2.3,7.2,3,10.2,0c2.6-2.6,3-7.9,0-10.2
		c-28.6-24.1-62.1-41.8-97.9-52.3c-35-10.5-71.5-13.9-107.7-10.5c-36.9,3.8-72.3,14.3-104.7,32.4c-36.1,19.6-67.8,47.4-91.9,80.6
		c-26,35.4-43.3,77.6-50.1,120.8c-0.8,5.6-1.5,10.9-1.9,16.2c-0.4,4.1,3.4,7.2,7.2,7.2c4.1,0,6.8-3,7.2-7.2
		c3-33.1,13.2-65.1,28.2-94.1l14.7,8.3c-25.2,49.7-33.1,107.7-22.2,162.6c10.2,49.7,36.1,96,73,130.3l-10.5,13.6
		c-26.7-24.5-47.8-54.2-62.5-87c-12-26.7-19.2-55.7-21.5-85.5c-0.4-4.1-3-7.2-7.2-7.2c-3.8,0-7.5,3-7.2,7.2
		c4.1,56.5,26,109.9,61.4,154c35,42.9,82.4,74.9,135.9,91.1c28.6,8.7,58.7,12.4,88.5,11.3c9.4-0.4,9.4-14.7,0-14.3
		c-51.2,1.5-101.6-11.7-145.3-37.6c-12-7.2-23.3-15.1-33.5-24.1l10.5-13.6c3,2.3,6,4.9,8.7,6.8c45.2,35,101.3,53.5,158.5,51.6
		c57.6-1.9,113.7-24.1,156.6-62.5c7.2-6.8,13.9-13.2,20.3-20.3c6-6.8-4.1-17.3-10.2-10.2c-33.9,38-79.1,64.8-128.7,74.5l-3-17.7
		c20.7-4.1,40.7-11.3,59.5-21.5c36.9-20,67.8-51.2,87.3-88.5s27.9-80.6,23.3-122.3c-0.4-5.3-1.5-10.9-2.3-16.2
		c-0.4-3.8-4.9-6-8.7-4.9c-4.1,0.8-6,4.9-4.9,8.7c6.8,38.4,2.3,79.1-13.2,114.8c-15.8,36.1-42.5,67.8-76,88.8
		c-29.7,19.2-64.8,30.1-100.5,31.2c-35,1.1-70.4-6.8-101.3-23.7c-36.5-19.6-66.3-50.4-85.1-87.7c-2.6-5.3-4.9-10.5-7.2-16.2
		c-1.5-3.4-4.5-6-8.7-4.9c-3.4,0.8-6.8,4.9-4.9,8.7c16.6,43.3,46.7,80.2,85.8,105c32,20.3,69.6,31.6,107.7,33.1
		c13.2,0.4,26-0.4,38.8-2.3l3,17.7c-2.3,0.4-4.9,0.8-7.5,1.1c-53.5,6-107.7-6-153.2-35.4c-46.3-29.7-80.9-76-96.8-129.1
		c-15.1-50.4-12.4-106.5,8.3-155.1c23.7-56.8,70-103.2,127.2-126.1c7.9-3,15.8-6,24.1-8.3c8.7-2.3,5.3-16.6-3.8-13.9
		c-61.7,17.7-115.2,59.5-147.2,114.8l-14.7-8.3c22.2-38.8,53.8-71.9,92.6-95.2c59.5-35.8,132.1-46.7,199.5-29.7
		c6.4,1.5,13.2,3.4,19.6,5.6l-4.1,16.6c-27.9-9.4-57.6-13.9-87.3-12.8c-9.4,0.4-9.4,14.7,0,14.3c70.8-2.3,138.9,27.9,185.2,81.3
		c40.7,47.8,60.2,111.4,54.2,173.5c-3.4,36.5-15.8,71.9-36.1,102.8c-4.9,7.9,7.5,15.1,12.4,7.2c34.6-54.2,46.7-120.8,33.9-183.3
		l16.9-3c4.9,23.3,6.8,47.8,4.9,71.5c-4.1,64-32.4,124.6-77.6,169.4c-32.4,32-72.7,55-116.3,66.6c-8.7,2.3-4.9,16.2,3.8,13.9
		c75.3-20.3,140.4-72.7,175.4-142.3c28.6-56.8,36.9-123.1,23.7-185.6c0-0.4,0-1.1,0-1.5c-0.4-0.8-0.4-1.5-0.8-1.9
		c-0.4-1.5-0.4-2.6-0.8-4.1C800.3,271.5,783,236.5,760,206C755.5,201.9,750.2,202.3,748,204.5z"/>
</g>
</svg>
