<?xml version="1.0" encoding="utf-8"?>
<!-- Generator: Adobe Illustrator 23.1.0, SVG Export Plug-In . SVG Version: 6.00 Build 0)  -->
<svg version="1.1" id="Calque_1" xmlns="http://www.w3.org/2000/svg" xmlns:xlink="http://www.w3.org/1999/xlink" x="0px" y="0px"
	 viewBox="0 0 1140 750" style="enable-background:new 0 0 1140 750;" xml:space="preserve">
<style type="text/css">
	.st0{fill:none;}
	.st1{fill:#28253F;}
	.st2{fill:#3B4E57;}
	.st3{fill:#F0EEEB;}
	.st4{fill:#E2DED9;}
	.st5{fill:#EBEAE7;}
	.st6{fill:#729FB3;}
	.st7{fill:url(#SVGID_1_);}
	.st8{fill:#E5D597;}
	.st9{fill:url(#SVGID_2_);}
	.st10{fill:url(#SVGID_3_);}
	.st11{fill:url(#SVGID_4_);}
	.st12{fill:#D78262;}
	.st13{fill:#FABE6A;}
	.st14{fill:#E7A46C;}
	.st15{fill:#F18966;}
	.st16{fill:#834838;}
	.st17{fill:#C1694D;}
	.st18{fill:#FAF9F8;}
	.st19{fill:#C0BB69;}
	.st20{fill:url(#SVGID_5_);}
	.st21{fill:#937E6D;}
	.st22{fill:#A9CE57;}
	.st23{fill:#8CA860;}
	.st24{fill:url(#SVGID_6_);}
	.st25{fill:#C1E3E5;}
	.st26{fill:url(#SVGID_7_);}
	.st27{fill:#F8F2DA;}
	.st28{fill:#AA8B75;}
	.st29{fill:#D9C3B5;}
	.st30{fill:#846C61;}
	.st31{fill:#E8E5D9;}
	.st32{fill:#997D22;}
	.st33{fill:#BA5F1A;}
	.st34{fill:#EC675E;}
	.st35{fill:#717881;}
	.st36{fill:none;stroke:#604D40;stroke-width:16;stroke-linecap:round;stroke-miterlimit:10;}
</style>
<pattern  y="750" width="57.4" height="57.4" patternUnits="userSpaceOnUse" id="SVGID_10_" viewBox="0 -57.4 57.4 57.4" style="overflow:visible;">
	<g>
		<rect y="-57.4" class="st0" width="57.4" height="57.4"/>
		<g>
			<rect y="-57.4" class="st0" width="57.4" height="57.4"/>
			<g>
				<rect y="-57.4" class="st0" width="57.4" height="57.4"/>
				<g>
					<rect y="-57.4" class="st0" width="57.4" height="57.4"/>
					<g>
						<rect y="-57.4" class="st0" width="57.4" height="57.4"/>
						<rect x="5.4" y="-53.1" class="st1" width="9.5" height="1.5"/>
						<rect x="42.6" y="-16.1" class="st1" width="9.5" height="1.5"/>
						<rect x="13.3" y="-23.1" class="st1" width="9.5" height="1.5"/>
						<rect x="26.6" y="-10.1" class="st1" width="9.5" height="1.5"/>
						<rect x="21.9" y="-46.1" class="st1" width="4.2" height="1.5"/>
						<rect x="35.7" y="-53" class="st1" width="4.2" height="1.5"/>
						<rect x="51" y="-45.8" class="st1" width="4.2" height="1.5"/>
						<rect x="51.3" y="-8.1" class="st1" width="4.2" height="1.5"/>
						<rect x="6.4" y="-8.5" class="st1" width="4.2" height="1.5"/>
						<rect x="29.9" y="-17.6" class="st1" width="4.2" height="1.5"/>
						<rect x="34" y="-28" class="st2" width="4.2" height="1.5"/>
						<rect x="44.2" y="-35.6" class="st2" width="4.2" height="1.5"/>
						<rect x="52.1" y="-35.6" class="st2" width="4.2" height="1.5"/>
						<rect x="22.9" y="-6.6" class="st2" width="4.2" height="1.5"/>
						<rect x="43.2" y="-10.8" class="st2" width="4.2" height="1.5"/>
						<rect x="8.5" y="-38.4" class="st1" width="9.5" height="1.5"/>
						<rect x="37.4" y="-42.2" class="st2" width="9.5" height="1.5"/>
						<rect x="28.7" y="-37.7" class="st2" width="9.5" height="1.5"/>
						<rect x="39.3" y="-22.7" class="st2" width="9.5" height="1.5"/>
						<path class="st1" d="M43.6-52.2c0,0.6-0.5,1-1,1s-1-0.5-1-1s0.5-1,1-1S43.6-52.8,43.6-52.2z"/>
						<path class="st1" d="M48.4-52.2c0,0.6-0.5,1-1,1s-1-0.5-1-1s0.5-1,1-1S48.4-52.8,48.4-52.2z"/>
						<path class="st1" d="M9.5-24.7c0,0.6-0.5,1-1,1c-0.6,0-1-0.5-1-1s0.5-1,1-1C9.1-25.7,9.5-25.2,9.5-24.7z"/>
						<path class="st1" d="M15.9-44.6c0,0.6-0.5,1-1,1s-1-0.5-1-1c0-0.6,0.5-1,1-1S15.9-45.1,15.9-44.6z"/>
						<path class="st1" d="M51.3-3.2c0,0.6-0.5,1-1,1c-0.6,0-1-0.5-1-1s0.5-1,1-1C50.9-4.3,51.3-3.8,51.3-3.2z"/>
						<path class="st1" d="M34.5-45.6c0,0.6-0.5,1-1,1c-0.6,0-1-0.5-1-1s0.5-1,1-1C34-46.7,34.5-46.2,34.5-45.6z"/>
						<path class="st2" d="M11.7-46.1c0,0.6-0.5,1-1,1c-0.6,0-1-0.5-1-1c0-0.6,0.5-1,1-1S11.7-46.6,11.7-46.1z"/>
						<circle class="st2" cx="25.6" cy="-29.8" r="1"/>
						<path class="st2" d="M30.9-29.8c0,0.6-0.5,1-1,1c-0.6,0-1-0.5-1-1s0.5-1,1-1S30.9-30.4,30.9-29.8z"/>
						<path class="st2" d="M43.2-29.8c0,0.6-0.5,1-1,1s-1-0.5-1-1s0.5-1,1-1S43.2-30.4,43.2-29.8z"/>
						<path class="st2" d="M23.9-15.3c0,0.6-0.5,1-1,1c-0.6,0-1-0.5-1-1s0.5-1,1-1C23.5-16.4,23.9-15.9,23.9-15.3z"/>
						<circle class="st2" cx="2.7" cy="-55.4" r="1"/>
						<path class="st2" d="M5.8-30.8c0,0.6-0.5,1-1,1c-0.6,0-1-0.5-1-1c0-0.6,0.5-1,1-1C5.3-31.9,5.8-31.4,5.8-30.8z"/>
					</g>
				</g>
			</g>
		</g>
	</g>
</pattern>
<pattern  y="750" width="57.4" height="57.4" patternUnits="userSpaceOnUse" id="SVGID_11_" viewBox="0 -57.4 57.4 57.4" style="overflow:visible;">
	<g>
		<rect y="-57.4" class="st0" width="57.4" height="57.4"/>
		<g>
			<rect y="-57.4" class="st0" width="57.4" height="57.4"/>
			<g>
				<rect y="-57.4" class="st0" width="57.4" height="57.4"/>
				<g>
					<rect y="-57.4" class="st0" width="57.4" height="57.4"/>
					<g>
						<rect y="-57.4" class="st0" width="57.4" height="57.4"/>
						<rect x="5.4" y="-53.1" class="st1" width="9.5" height="1.5"/>
						<rect x="42.6" y="-16.1" class="st1" width="9.5" height="1.5"/>
						<rect x="13.3" y="-23.1" class="st1" width="9.5" height="1.5"/>
						<rect x="26.6" y="-10.1" class="st1" width="9.5" height="1.5"/>
						<rect x="21.9" y="-46.1" class="st1" width="4.2" height="1.5"/>
						<rect x="35.7" y="-53" class="st1" width="4.2" height="1.5"/>
						<rect x="51" y="-45.8" class="st1" width="4.2" height="1.5"/>
						<rect x="51.3" y="-8.1" class="st1" width="4.2" height="1.5"/>
						<rect x="6.4" y="-8.5" class="st1" width="4.2" height="1.5"/>
						<rect x="29.9" y="-17.6" class="st1" width="4.2" height="1.5"/>
						<rect x="34" y="-28" class="st2" width="4.2" height="1.5"/>
						<rect x="44.2" y="-35.6" class="st2" width="4.2" height="1.5"/>
						<rect x="52.1" y="-35.6" class="st2" width="4.2" height="1.5"/>
						<rect x="22.9" y="-6.6" class="st2" width="4.2" height="1.5"/>
						<rect x="43.2" y="-10.8" class="st2" width="4.2" height="1.5"/>
						<rect x="8.5" y="-38.4" class="st1" width="9.5" height="1.5"/>
						<rect x="37.4" y="-42.2" class="st2" width="9.5" height="1.5"/>
						<rect x="28.7" y="-37.7" class="st2" width="9.5" height="1.5"/>
						<rect x="39.3" y="-22.7" class="st2" width="9.5" height="1.5"/>
						<path class="st1" d="M43.6-52.2c0,0.6-0.5,1-1,1s-1-0.5-1-1s0.5-1,1-1S43.6-52.8,43.6-52.2z"/>
						<path class="st1" d="M48.4-52.2c0,0.6-0.5,1-1,1s-1-0.5-1-1s0.5-1,1-1S48.4-52.8,48.4-52.2z"/>
						<path class="st1" d="M9.5-24.7c0,0.6-0.5,1-1,1c-0.6,0-1-0.5-1-1s0.5-1,1-1C9.1-25.7,9.5-25.2,9.5-24.7z"/>
						<path class="st1" d="M15.9-44.6c0,0.6-0.5,1-1,1s-1-0.5-1-1c0-0.6,0.5-1,1-1S15.9-45.1,15.9-44.6z"/>
						<path class="st1" d="M51.3-3.2c0,0.6-0.5,1-1,1c-0.6,0-1-0.5-1-1s0.5-1,1-1C50.9-4.3,51.3-3.8,51.3-3.2z"/>
						<path class="st1" d="M34.5-45.6c0,0.6-0.5,1-1,1c-0.6,0-1-0.5-1-1s0.5-1,1-1C34-46.7,34.5-46.2,34.5-45.6z"/>
						<path class="st2" d="M11.7-46.1c0,0.6-0.5,1-1,1c-0.6,0-1-0.5-1-1c0-0.6,0.5-1,1-1S11.7-46.6,11.7-46.1z"/>
						<circle class="st2" cx="25.6" cy="-29.8" r="1"/>
						<path class="st2" d="M30.9-29.8c0,0.6-0.5,1-1,1c-0.6,0-1-0.5-1-1s0.5-1,1-1S30.9-30.4,30.9-29.8z"/>
						<path class="st2" d="M43.2-29.8c0,0.6-0.5,1-1,1s-1-0.5-1-1s0.5-1,1-1S43.2-30.4,43.2-29.8z"/>
						<path class="st2" d="M23.9-15.3c0,0.6-0.5,1-1,1c-0.6,0-1-0.5-1-1s0.5-1,1-1C23.5-16.4,23.9-15.9,23.9-15.3z"/>
						<circle class="st2" cx="2.7" cy="-55.4" r="1"/>
						<path class="st2" d="M5.8-30.8c0,0.6-0.5,1-1,1c-0.6,0-1-0.5-1-1c0-0.6,0.5-1,1-1C5.3-31.9,5.8-31.4,5.8-30.8z"/>
					</g>
				</g>
			</g>
		</g>
	</g>
</pattern>
<pattern  y="750" width="55.9" height="55.9" patternUnits="userSpaceOnUse" id="SVGID_12_" viewBox="0 -55.9 55.9 55.9" style="overflow:visible;">
	<g>
		<rect x="0" y="-55.9" class="st0" width="55.9" height="55.9"/>
		<g>
			<rect y="-55.9" class="st0" width="55.9" height="55.9"/>
			<g>
				<rect y="-55.9" class="st0" width="55.9" height="55.9"/>
				<g>
					<rect y="-55.9" class="st0" width="55.9" height="55.9"/>
					<g>
						<rect y="-55.9" class="st0" width="55.9" height="55.9"/>
						<path class="st3" d="M16.3-48.6c0,1.5-1.2,2.7-2.7,2.7s-2.7-1.2-2.7-2.7s1.2-2.7,2.7-2.7S16.3-50.1,16.3-48.6z"/>
						<path class="st4" d="M27.9-36.8c0,1.5-1.2,2.7-2.7,2.7s-2.7-1.2-2.7-2.7s1.2-2.7,2.7-2.7C26.8-39.4,27.9-38.2,27.9-36.8z"/>
						<path class="st3" d="M50.7-10.9c0,0.7-0.6,1.2-1.2,1.2c-0.7,0-1.2-0.6-1.2-1.2c0-0.7,0.6-1.2,1.2-1.2
							C50.1-12.2,50.7-11.6,50.7-10.9z"/>
						<circle class="st4" cx="47.1" cy="-42.9" r="1.2"/>
						<path class="st3" d="M13.5-37.5c0,0.7-0.6,1.2-1.2,1.2c-0.7,0-1.2-0.6-1.2-1.2c0-0.7,0.6-1.2,1.2-1.2S13.5-38.2,13.5-37.5z"/>
						<path class="st3" d="M29.2-30.9c0,0.7-0.6,1.2-1.2,1.2c-0.7,0-1.2-0.6-1.2-1.2c0-0.7,0.6-1.2,1.2-1.2S29.2-31.5,29.2-30.9z"/>
						<circle class="st4" cx="4.1" cy="-47.3" r="1.2"/>
						<path class="st4" d="M11-16.3c0,0.7-0.6,1.2-1.2,1.2c-0.7,0-1.2-0.6-1.2-1.2c0-0.7,0.6-1.2,1.2-1.2C10.5-17.5,11-16.9,11-16.3
							z"/>
						<path class="st4" d="M50.7-28.4c0,0.7-0.6,1.2-1.2,1.2c-0.7,0-1.2-0.6-1.2-1.2c0-0.7,0.6-1.2,1.2-1.2
							C50.1-29.6,50.7-29.1,50.7-28.4z"/>
						<circle class="st3" cx="52.8" cy="-50" r="1.2"/>
						<path class="st3" d="M38.6-13.6c0,1.5-1.2,2.7-2.7,2.7s-2.7-1.2-2.7-2.7s1.2-2.7,2.7-2.7C37.4-16.3,38.6-15.1,38.6-13.6z"/>
						<path class="st4" d="M13.7-4.4c0,1.5-1.2,2.7-2.7,2.7S8.3-2.9,8.3-4.4S9.5-7.1,11-7.1S13.7-5.9,13.7-4.4z"/>
					</g>
				</g>
			</g>
		</g>
	</g>
</pattern>
<pattern  y="750" width="57.4" height="57.4" patternUnits="userSpaceOnUse" id="SVGID_13_" viewBox="0 -57.4 57.4 57.4" style="overflow:visible;">
	<g>
		<rect y="-57.4" class="st0" width="57.4" height="57.4"/>
		<g>
			<rect y="-57.4" class="st0" width="57.4" height="57.4"/>
			<g>
				<rect y="-57.4" class="st0" width="57.4" height="57.4"/>
				<g>
					<rect y="-57.4" class="st0" width="57.4" height="57.4"/>
					<g>
						<rect y="-57.4" class="st0" width="57.4" height="57.4"/>
						<rect x="5.4" y="-53.1" class="st1" width="9.5" height="1.5"/>
						<rect x="42.6" y="-16.1" class="st1" width="9.5" height="1.5"/>
						<rect x="13.3" y="-23.1" class="st1" width="9.5" height="1.5"/>
						<rect x="26.6" y="-10.1" class="st1" width="9.5" height="1.5"/>
						<rect x="21.9" y="-46.1" class="st1" width="4.2" height="1.5"/>
						<rect x="35.7" y="-53" class="st1" width="4.2" height="1.5"/>
						<rect x="51" y="-45.8" class="st1" width="4.2" height="1.5"/>
						<rect x="51.3" y="-8.1" class="st1" width="4.2" height="1.5"/>
						<rect x="6.4" y="-8.5" class="st1" width="4.2" height="1.5"/>
						<rect x="29.9" y="-17.6" class="st1" width="4.2" height="1.5"/>
						<rect x="34" y="-28" class="st2" width="4.2" height="1.5"/>
						<rect x="44.2" y="-35.6" class="st2" width="4.2" height="1.5"/>
						<rect x="52.1" y="-35.6" class="st2" width="4.2" height="1.5"/>
						<rect x="22.9" y="-6.6" class="st2" width="4.2" height="1.5"/>
						<rect x="43.2" y="-10.8" class="st2" width="4.2" height="1.5"/>
						<rect x="8.5" y="-38.4" class="st1" width="9.5" height="1.5"/>
						<rect x="37.4" y="-42.2" class="st2" width="9.5" height="1.5"/>
						<rect x="28.7" y="-37.7" class="st2" width="9.5" height="1.5"/>
						<rect x="39.3" y="-22.7" class="st2" width="9.5" height="1.5"/>
						<path class="st1" d="M43.6-52.2c0,0.6-0.5,1-1,1s-1-0.5-1-1s0.5-1,1-1S43.6-52.8,43.6-52.2z"/>
						<path class="st1" d="M48.4-52.2c0,0.6-0.5,1-1,1s-1-0.5-1-1s0.5-1,1-1S48.4-52.8,48.4-52.2z"/>
						<path class="st1" d="M9.5-24.7c0,0.6-0.5,1-1,1c-0.6,0-1-0.5-1-1s0.5-1,1-1C9.1-25.7,9.5-25.2,9.5-24.7z"/>
						<path class="st1" d="M15.9-44.6c0,0.6-0.5,1-1,1s-1-0.5-1-1c0-0.6,0.5-1,1-1S15.9-45.1,15.9-44.6z"/>
						<path class="st1" d="M51.3-3.2c0,0.6-0.5,1-1,1c-0.6,0-1-0.5-1-1s0.5-1,1-1C50.9-4.3,51.3-3.8,51.3-3.2z"/>
						<path class="st1" d="M34.5-45.6c0,0.6-0.5,1-1,1c-0.6,0-1-0.5-1-1s0.5-1,1-1C34-46.7,34.5-46.2,34.5-45.6z"/>
						<path class="st2" d="M11.7-46.1c0,0.6-0.5,1-1,1c-0.6,0-1-0.5-1-1c0-0.6,0.5-1,1-1S11.7-46.6,11.7-46.1z"/>
						<circle class="st2" cx="25.6" cy="-29.8" r="1"/>
						<path class="st2" d="M30.9-29.8c0,0.6-0.5,1-1,1c-0.6,0-1-0.5-1-1s0.5-1,1-1S30.9-30.4,30.9-29.8z"/>
						<path class="st2" d="M43.2-29.8c0,0.6-0.5,1-1,1s-1-0.5-1-1s0.5-1,1-1S43.2-30.4,43.2-29.8z"/>
						<path class="st2" d="M23.9-15.3c0,0.6-0.5,1-1,1c-0.6,0-1-0.5-1-1s0.5-1,1-1C23.5-16.4,23.9-15.9,23.9-15.3z"/>
						<circle class="st2" cx="2.7" cy="-55.4" r="1"/>
						<path class="st2" d="M5.8-30.8c0,0.6-0.5,1-1,1c-0.6,0-1-0.5-1-1c0-0.6,0.5-1,1-1C5.3-31.9,5.8-31.4,5.8-30.8z"/>
					</g>
				</g>
			</g>
		</g>
	</g>
</pattern>
<pattern  y="750" width="57.4" height="57.4" patternUnits="userSpaceOnUse" id="SVGID_14_" viewBox="0 -57.4 57.4 57.4" style="overflow:visible;">
	<g>
		<rect y="-57.4" class="st0" width="57.4" height="57.4"/>
		<g>
			<rect y="-57.4" class="st0" width="57.4" height="57.4"/>
			<g>
				<rect y="-57.4" class="st0" width="57.4" height="57.4"/>
				<g>
					<rect y="-57.4" class="st0" width="57.4" height="57.4"/>
					<g>
						<rect y="-57.4" class="st0" width="57.4" height="57.4"/>
						<rect x="5.4" y="-53.1" class="st1" width="9.5" height="1.5"/>
						<rect x="42.6" y="-16.1" class="st1" width="9.5" height="1.5"/>
						<rect x="13.3" y="-23.1" class="st1" width="9.5" height="1.5"/>
						<rect x="26.6" y="-10.1" class="st1" width="9.5" height="1.5"/>
						<rect x="21.9" y="-46.1" class="st1" width="4.2" height="1.5"/>
						<rect x="35.7" y="-53" class="st1" width="4.2" height="1.5"/>
						<rect x="51" y="-45.8" class="st1" width="4.2" height="1.5"/>
						<rect x="51.3" y="-8.1" class="st1" width="4.2" height="1.5"/>
						<rect x="6.4" y="-8.5" class="st1" width="4.2" height="1.5"/>
						<rect x="29.9" y="-17.6" class="st1" width="4.2" height="1.5"/>
						<rect x="34" y="-28" class="st2" width="4.2" height="1.5"/>
						<rect x="44.2" y="-35.6" class="st2" width="4.2" height="1.5"/>
						<rect x="52.1" y="-35.6" class="st2" width="4.2" height="1.5"/>
						<rect x="22.9" y="-6.6" class="st2" width="4.2" height="1.5"/>
						<rect x="43.2" y="-10.8" class="st2" width="4.2" height="1.5"/>
						<rect x="8.5" y="-38.4" class="st1" width="9.5" height="1.5"/>
						<rect x="37.4" y="-42.2" class="st2" width="9.5" height="1.5"/>
						<rect x="28.7" y="-37.7" class="st2" width="9.5" height="1.5"/>
						<rect x="39.3" y="-22.7" class="st2" width="9.5" height="1.5"/>
						<path class="st1" d="M43.6-52.2c0,0.6-0.5,1-1,1s-1-0.5-1-1s0.5-1,1-1S43.6-52.8,43.6-52.2z"/>
						<path class="st1" d="M48.4-52.2c0,0.6-0.5,1-1,1s-1-0.5-1-1s0.5-1,1-1S48.4-52.8,48.4-52.2z"/>
						<path class="st1" d="M9.5-24.7c0,0.6-0.5,1-1,1c-0.6,0-1-0.5-1-1s0.5-1,1-1C9.1-25.7,9.5-25.2,9.5-24.7z"/>
						<path class="st1" d="M15.9-44.6c0,0.6-0.5,1-1,1s-1-0.5-1-1c0-0.6,0.5-1,1-1S15.9-45.1,15.9-44.6z"/>
						<path class="st1" d="M51.3-3.2c0,0.6-0.5,1-1,1c-0.6,0-1-0.5-1-1s0.5-1,1-1C50.9-4.3,51.3-3.8,51.3-3.2z"/>
						<path class="st1" d="M34.5-45.6c0,0.6-0.5,1-1,1c-0.6,0-1-0.5-1-1s0.5-1,1-1C34-46.7,34.5-46.2,34.5-45.6z"/>
						<path class="st2" d="M11.7-46.1c0,0.6-0.5,1-1,1c-0.6,0-1-0.5-1-1c0-0.6,0.5-1,1-1S11.7-46.6,11.7-46.1z"/>
						<circle class="st2" cx="25.6" cy="-29.8" r="1"/>
						<path class="st2" d="M30.9-29.8c0,0.6-0.5,1-1,1c-0.6,0-1-0.5-1-1s0.5-1,1-1S30.9-30.4,30.9-29.8z"/>
						<path class="st2" d="M43.2-29.8c0,0.6-0.5,1-1,1s-1-0.5-1-1s0.5-1,1-1S43.2-30.4,43.2-29.8z"/>
						<path class="st2" d="M23.9-15.3c0,0.6-0.5,1-1,1c-0.6,0-1-0.5-1-1s0.5-1,1-1C23.5-16.4,23.9-15.9,23.9-15.3z"/>
						<circle class="st2" cx="2.7" cy="-55.4" r="1"/>
						<path class="st2" d="M5.8-30.8c0,0.6-0.5,1-1,1c-0.6,0-1-0.5-1-1c0-0.6,0.5-1,1-1C5.3-31.9,5.8-31.4,5.8-30.8z"/>
					</g>
				</g>
			</g>
		</g>
	</g>
</pattern>
<pattern  y="750" width="57.4" height="57.4" patternUnits="userSpaceOnUse" id="SVGID_8_" viewBox="0 -57.4 57.4 57.4" style="overflow:visible;">
	<g>
		<rect y="-57.4" class="st0" width="57.4" height="57.4"/>
		<g>
			<rect y="-57.4" class="st0" width="57.4" height="57.4"/>
			<g>
				<rect y="-57.4" class="st0" width="57.4" height="57.4"/>
				<g>
					<rect y="-57.4" class="st0" width="57.4" height="57.4"/>
					<g>
						<rect y="-57.4" class="st0" width="57.4" height="57.4"/>
						<rect x="5.4" y="-53.1" class="st1" width="9.5" height="1.5"/>
						<rect x="42.6" y="-16.1" class="st1" width="9.5" height="1.5"/>
						<rect x="13.3" y="-23.1" class="st1" width="9.5" height="1.5"/>
						<rect x="26.6" y="-10.1" class="st1" width="9.5" height="1.5"/>
						<rect x="21.9" y="-46.1" class="st1" width="4.2" height="1.5"/>
						<rect x="35.7" y="-53" class="st1" width="4.2" height="1.5"/>
						<rect x="51" y="-45.8" class="st1" width="4.2" height="1.5"/>
						<rect x="51.3" y="-8.1" class="st1" width="4.2" height="1.5"/>
						<rect x="6.4" y="-8.5" class="st1" width="4.2" height="1.5"/>
						<rect x="29.9" y="-17.6" class="st1" width="4.2" height="1.5"/>
						<rect x="34" y="-28" class="st2" width="4.2" height="1.5"/>
						<rect x="44.2" y="-35.6" class="st2" width="4.2" height="1.5"/>
						<rect x="52.1" y="-35.6" class="st2" width="4.2" height="1.5"/>
						<rect x="22.9" y="-6.6" class="st2" width="4.2" height="1.5"/>
						<rect x="43.2" y="-10.8" class="st2" width="4.2" height="1.5"/>
						<rect x="8.5" y="-38.4" class="st1" width="9.5" height="1.5"/>
						<rect x="37.4" y="-42.2" class="st2" width="9.5" height="1.5"/>
						<rect x="28.7" y="-37.7" class="st2" width="9.5" height="1.5"/>
						<rect x="39.3" y="-22.7" class="st2" width="9.5" height="1.5"/>
						<path class="st1" d="M43.6-52.2c0,0.6-0.5,1-1,1s-1-0.5-1-1s0.5-1,1-1S43.6-52.8,43.6-52.2z"/>
						<path class="st1" d="M48.4-52.2c0,0.6-0.5,1-1,1s-1-0.5-1-1s0.5-1,1-1S48.4-52.8,48.4-52.2z"/>
						<path class="st1" d="M9.5-24.7c0,0.6-0.5,1-1,1c-0.6,0-1-0.5-1-1s0.5-1,1-1C9.1-25.7,9.5-25.2,9.5-24.7z"/>
						<path class="st1" d="M15.9-44.6c0,0.6-0.5,1-1,1s-1-0.5-1-1c0-0.6,0.5-1,1-1S15.9-45.1,15.9-44.6z"/>
						<path class="st1" d="M51.3-3.2c0,0.6-0.5,1-1,1c-0.6,0-1-0.5-1-1s0.5-1,1-1C50.9-4.3,51.3-3.8,51.3-3.2z"/>
						<path class="st1" d="M34.5-45.6c0,0.6-0.5,1-1,1c-0.6,0-1-0.5-1-1s0.5-1,1-1C34-46.7,34.5-46.2,34.5-45.6z"/>
						<path class="st2" d="M11.7-46.1c0,0.6-0.5,1-1,1c-0.6,0-1-0.5-1-1c0-0.6,0.5-1,1-1S11.7-46.6,11.7-46.1z"/>
						<circle class="st2" cx="25.6" cy="-29.8" r="1"/>
						<path class="st2" d="M30.9-29.8c0,0.6-0.5,1-1,1c-0.6,0-1-0.5-1-1s0.5-1,1-1S30.9-30.4,30.9-29.8z"/>
						<path class="st2" d="M43.2-29.8c0,0.6-0.5,1-1,1s-1-0.5-1-1s0.5-1,1-1S43.2-30.4,43.2-29.8z"/>
						<path class="st2" d="M23.9-15.3c0,0.6-0.5,1-1,1c-0.6,0-1-0.5-1-1s0.5-1,1-1C23.5-16.4,23.9-15.9,23.9-15.3z"/>
						<circle class="st2" cx="2.7" cy="-55.4" r="1"/>
						<path class="st2" d="M5.8-30.8c0,0.6-0.5,1-1,1c-0.6,0-1-0.5-1-1c0-0.6,0.5-1,1-1C5.3-31.9,5.8-31.4,5.8-30.8z"/>
					</g>
				</g>
			</g>
		</g>
	</g>
</pattern>
<pattern  y="750" width="84.4" height="84.4" patternUnits="userSpaceOnUse" id="SVGID_9_" viewBox="0 -84.4 84.4 84.4" style="overflow:visible;">
	<g>
		<rect y="-84.4" class="st0" width="84.4" height="84.4"/>
		<g>
			<rect y="-84.4" class="st0" width="84.4" height="84.4"/>
			<g>
				<rect y="-84.4" class="st0" width="84.4" height="84.4"/>
				<g>
					<rect y="-84.4" class="st0" width="84.4" height="84.4"/>
					<g>
						<rect y="-84.4" class="st0" width="84.4" height="84.4"/>
						<polygon class="st5" points="42.8,-69.2 40.4,-69.2 40.7,-70.6 						"/>
						<g>
							<polygon class="st5" points="12.4,-81.8 15.7,-81.8 13.1,-80.1 							"/>
							<polygon class="st5" points="6.4,-67.9 13,-68.8 12.8,-64.8 							"/>
							<polygon class="st5" points="5.6,-76 3.7,-78.7 5.8,-77.6 							"/>
							<polygon class="st5" points="20.6,-51.3 22.9,-51.4 18.2,-46.3 19,-51.3 							"/>
							<polygon class="st5" points="7.7,-61.8 7.6,-60.3 5.7,-63 							"/>
							<polygon class="st5" points="26,-45 23.2,-44.5 24,-48.2 24,-48.2 24.3,-49.4 							"/>
						</g>
						<polygon class="st5" points="68.6,-61 68.8,-58.6 65.6,-61 						"/>
						<g>
							<polygon class="st5" points="16.6,-15.1 25,-19.4 20.3,-13.8 18.5,-14.4 18.5,-14.4 							"/>
							<polygon class="st5" points="45.1,-21.4 45.9,-18.3 44.2,-16.9 							"/>
							<polygon class="st5" points="11.5,-27.6 14.7,-24.2 10.5,-25.2 							"/>
							<polygon class="st5" points="57.7,-23.4 64.4,-16.1 55.4,-18.3 55.9,-19.5 							"/>
							<polygon class="st5" points="68.3,-9.1 76.6,-13.4 72.7,-8.7 71.9,-7.8 							"/>
						</g>
						<polygon class="st5" points="35.9,-58.2 40.4,-50.5 34.5,-46.5 						"/>
						<polygon class="st5" points="72.6,-77.5 77.6,-81 80.7,-77.2 						"/>
						<g>
							<polygon class="st5" points="63.2,-50.3 60.4,-53.5 61.7,-56 							"/>
							<polygon class="st5" points="67.1,-36.1 64.3,-34.3 65.6,-37.2 							"/>
							<polygon class="st5" points="59.3,-32 59.4,-30.5 57.2,-32.9 							"/>
							<polygon class="st5" points="59.2,-59.9 56.9,-62.3 59.1,-61.5 							"/>
							<polygon class="st5" points="52.7,-40.1 59,-45.7 57.7,-39.5 							"/>
						</g>
					</g>
				</g>
			</g>
		</g>
	</g>
</pattern>
<g>
	<g>
		<path class="st6" d="M496.9-117.4h920.1c49.7,0,90-29,90-65.1v-20.3c0-35.8,39.9-65.1,90-65.1h304.6c49.7,0,90,29,90,65.1v20.3
			c0,35.8,39.9,65.1,90,65.1h193.5c49.7,0,90,29,90,65.1v437.4c0,35.8,39.9,65.1,90,65.1h56.5c49.7,0,90,29,90,65.1v616.3
			c0,35.8-39.9,65.1-90,65.1h-57.6c-49.7,0-90,29-90,65.1v104.3c0,35.8-39.9,65.1-90,65.1h-677.6c-49.7,0-90,29-90,65.1v148.3
			c0,35.8-39.9,65.1-90,65.1h-338.1c-49.7,0-90-29-90-65.1v-148.3c0-35.8-39.9-65.1-90-65.1H496.9c-49.7,0-90,29-90,65.1v79.8
			c0,35.8-39.9,65.1-90,65.1H-77.6c-49.7,0-90-29-90-65.1v-80.2c0-35.8-39.9-65.1-90-65.1l0,0c-49.7,0-90-29-90-65.1v-178.1
			c0-35.8-39.9-65.1-90-65.1h-295.1c-49.7,0-90-29-90-65.1V828.3c0-35.8,39.9-65.1,90-65.1h295.1c49.7,0,90-29,90-65.1V367.9
			c0-35.8-39.9-65.1-90-65.1H-570c-49.7,0-90-29-90-65.1v-507.8c0-35.8,39.9-65.1,90-65.1h886.6c49.7,0,90,29,90,65.1v88.1
			C407.3-146.7,447.9-117.4,496.9-117.4z"/>
		<path class="st6" d="M487.8,349.4h920.1c49.7,0,90-29,90-65.1V264c0-35.8,39.9-65.1,90-65.1h304.6c49.7,0,90,29,90,65.1v20.3
			c0,35.8,39.9,65.1,90,65.1h193.5c49.7,0,90,29,90,65.1V852c0,35.8,39.9,65.1,90,65.1h56.5c49.7,0,90,29,90,65.1v616.3
			c0,35.8-39.9,65.1-90,65.1h-57.6c-49.7,0-90,29-90,65.1v104.3c0,35.8-39.9,65.1-90,65.1h-677.6c-49.7,0-90,29-90,65.1v148.3
			c0,35.8-39.9,65.1-90,65.1h-338.4c-49.7,0-90-29-90-65.1v-148.3c0-35.8-39.9-65.1-90-65.1H487.8c-49.7,0-90,29-90,65.1v80.2
			c0,35.8-39.9,65.1-90,65.1H-87.4c-49.7,0-90-29-90-65.1v-80.2c0-35.8-39.9-65.1-90-65.1l0,0c-49.7,0-90-29-90-65.1V1655
			c0-35.8-39.9-65.1-90-65.1h-295.1c-49.7,0-90-29-90-65.1v-229.3c0-35.8,39.9-65.1,90-65.1h295.1c49.7,0,90-29,90-65.1V835.1
			c0-35.8-39.9-65.1-90-65.1h-132.5c-49.7,0-90-29-90-65.1V196.6c0-35.8,39.9-65.1,90-65.1h886.6c49.7,0,90,29,90,65.1v88.1
			C397.8,320.8,438.1,349.4,487.8,349.4z"/>
		<path class="st6" d="M1230.2,1977.3h-113.3v-18.8c0-10.5-11.7-18.8-26-18.8h-49.3v-23c0-10.5-11.7-18.8-26-18.8h-163
			c-14.3,0-26,8.3-26,18.8v23h-60.2c-14.3,0-26,8.3-26,18.8v18.8h-42.9c-14.3,0-26,8.3-26,18.8v6.4c0,10.5,11.7,18.8,26,18.8h42.9
			v17.7c0,10.5,11.7,18.8,26,18.8h48.9v15.4c0,10.5,11.7,18.8,26,18.8h111.8c14.3,0,26-8.3,26-18.8v-16.2h111.8
			c14.3,0,26-8.3,26-18.8v-24.1h113.3c14.3,0,26-8.3,26-18.8C1255.8,1985.2,1244.5,1977.3,1230.2,1977.3z"/>
		<path class="st6" d="M-597.5-219.4h113.3v18.8c0,10.5,11.7,18.8,26,18.8h49.3v22.6c0,10.5,11.7,18.8,26,18.8h163
			c14.3,0,26-8.3,26-18.8v-23h60.2c14.3,0,26-8.3,26-18.8v-18.4h42.9c14.3,0,26-8.3,26-18.8v-6.4c0-10.5-11.7-18.8-26-18.8h-42.9
			v-17.7c0-10.5-11.7-18.8-26-18.8h-48.9v-15.4c0-10.5-11.7-18.8-26-18.8h-111.8c-14.3,0-26,8.3-26,18.8v15.8h-111.8
			c-14.3,0-26,8.3-26,18.8v24.1h-113.3c-14.3,0-26,8.3-26,18.8C-623.5-227.7-611.8-219.4-597.5-219.4z"/>
		<path class="st6" d="M1688.7,931.1h216.1v35.8c0,19.6,22.2,35.8,49.3,35.8h93.4v43.7c0,19.6,22.2,35.8,49.3,35.8h311.3
			c27.1,0,49.3-16.2,49.3-35.8v-43.7h115.2c27.1,0,49.3-16.2,49.3-35.8v-35.8h82.1c27.1,0,49.3-16.2,49.3-35.8v-12
			c0-19.6-22.2-35.8-49.3-35.8H2622v-34.3c0-19.6-22.2-35.8-49.3-35.8h-93v-29.4c0-19.6-22.2-35.8-49.3-35.8h-213.1
			c-27.1,0-49.3,16.2-49.3,35.8v29.4h-213.1c-27.1,0-49.3,16.2-49.3,35.8v45.9h-216.1c-27.1,0-49.3,16.2-49.3,35.8
			C1639.4,914.9,1661.6,931.1,1688.7,931.1z"/>
		<path class="st6" d="M2342.6,130.3v221H2273c-38.4,0-69.6,22.6-69.6,50.1v96h-85.1c-38.4,0-69.6,22.6-69.6,50.1v318.1
			c0,27.9,31.2,50.1,69.6,50.1h85.5v117.5c0,27.9,31.2,50.1,69.6,50.1h69.6v84c0,27.9,31.2,50.1,69.6,50.1h23
			c38.4,0,69.6-22.6,69.6-50.1v-84h66.3c38.4,0,69.6-22.6,69.6-50.1v-95.2h57.2c38.4,0,69.6-22.6,69.6-50.1v-218
			c0-27.9-31.2-50.1-69.6-50.1h-57.2v-218c0-27.9-31.2-50.1-69.6-50.1h-90v-221c0-27.9-31.2-50.1-69.6-50.1
			C2374.3,80.3,2342.6,102.9,2342.6,130.3z"/>
		<path class="st6" d="M343.6,2118.4h-84.3v-24.1c0-27.5-30.9-49.7-68.5-49.7h-298.5v-23.7c0-27.5-30.9-49.7-68.5-49.7h-216.1
			c-37.6,0-68.5,22.6-68.5,49.7v23.7h-64.8c-37.6,0-68.5,22.6-68.5,49.7v37.6h-59.1c-37.6,0-68.5,22.6-68.5,49.7
			c0,27.1,30.9,49.7,68.5,49.7h59.1v43.7c0,27.5,30.9,49.7,68.5,49.7h210.8v5.6c0,27.5,30.9,49.7,68.5,49.7h189.7
			c37.6,0,68.5-22.6,68.5-49.7v-5.6H190c37.6,0,68.5-22.6,68.5-49.7v-36.1h84.7c37.6,0,68.5-22.6,68.5-49.7v-20.7
			C412.2,2141,382,2118.4,343.6,2118.4z"/>
		<path class="st6" d="M1980.5,1233.8h65.1v18.8c0,21.5,24.1,38.4,53.5,38.4h231.5v18.4c0,21.5,24.1,38.4,53.5,38.4h167.5
			c29.4,0,53.5-17.3,53.5-38.4V1291h50.8c29.4,0,53.5-17.3,53.5-38.4v-29.4h45.9c29.4,0,53.5-17.3,53.5-38.4
			c0-21.1-24.1-38.4-53.5-38.4h-45.9v-34.3c0-21.5-24.1-38.4-53.5-38.4h-164.5v-4.5c0-21.5-24.1-38.4-53.5-38.4h-147.2
			c-29.4,0-53.5,17.3-53.5,38.4v4.5h-138.5c-29.4,0-53.5,17.3-53.5,38.4v28.2h-65.5c-29.4,0-53.5,17.3-53.5,38.4v16.6
			C1927,1216.4,1950.8,1233.8,1980.5,1233.8z"/>
		<path class="st6" d="M-356.2,1131.7h-84v-19.2c0-14.3-16.2-26-35.8-26h-260.5v-10.9c0-14.3-16.2-26-35.8-26h-208.2
			c-20,0-35.8,11.7-35.8,26v10.9h-68.1c-20,0-35.8,11.7-35.8,26v19.2h-47.8c-20,0-35.8,11.7-35.8,26c0,14.3,16.2,26,35.8,26h47.1v35
			c0,14.3,16.2,26,35.8,26h112.9c-0.4,1.9-0.8,4.1-0.8,6v19.2c0,14.3,16.2,26,35.8,26h107.7c20,0,35.8-11.7,35.8-26v-19.2
			c0-1.9-0.4-4.1-0.8-6h317.7c20,0,35.8-11.7,35.8-26v-35h84.7c20,0,35.8-11.7,35.8-26C-320.4,1143.4-336.6,1131.7-356.2,1131.7z"/>
		<path class="st6" d="M-1151.3,300.9h84v19.2c0,14.3,16.2,26,35.8,26h260.1V357c0,14.3,16.2,26,35.8,26h208.2
			c20,0,35.8-11.7,35.8-26v-10.9h68.1c20,0,35.8-11.7,35.8-26v-19.2h47.4c20,0,35.8-11.7,35.8-26c0-14.3-16.2-26-35.8-26h-47.4v-35
			c0-14.3-16.2-26-35.8-26h-112.9c0.4-1.9,0.8-4.1,0.8-6v-19.2c0-14.3-16.2-26-35.8-26h-107.7c-20,0-35.8,11.7-35.8,26v19.2
			c0,1.9,0.4,4.1,0.8,6h-317.4c-20,0-35.8,11.7-35.8,26v35h-84c-20,0-35.8,11.7-35.8,26C-1187.1,289.2-1170.9,300.9-1151.3,300.9z"
			/>
		<path class="st6" d="M-525.2,364.9v-60.6h26.7c20,0,35.8-11.7,35.8-26V90.1h15.1c20,0,35.8-11.7,35.8-26V-87.2
			c0-14.3-16.2-26-35.8-26h-15.1v-48.9c0-14.3-16.2-26-35.8-26h-26.7v-34.3c0-14.3-16.2-26-35.8-26s-35.8,11.7-35.8,26v34.3h-48.2
			c-20,0-35.8,11.7-35.8,26v81.3c-2.6-0.4-5.6-0.8-8.3-0.8h-26.7c-20,0-35.8,11.7-35.8,26v78.3c0,14.3,16.2,26,35.8,26h26.7
			c2.6,0,5.6-0.4,8.3-0.8v230c0,14.3,16.2,26,35.8,26h47.8v60.6c0,14.3,16.2,26,35.8,26C-541.4,390.9-525.2,379.2-525.2,364.9z"/>
		<path class="st6" d="M-615.6,819.3v-60.6h26.7c20,0,35.8-11.7,35.8-26V544.5h15.1c20,0,35.8-11.7,35.8-26v-151
			c0-14.3-16.2-26-35.8-26h-15.1v-49.3c0-14.3-16.2-26-35.8-26h-26.7V232c0-14.3-16.2-26-35.8-26c-19.6,0-35.8,11.7-35.8,26v34.3
			h-48.2c-20,0-35.8,11.7-35.8,26v81.3c-2.6-0.4-5.6-0.8-8.3-0.8h-26.7c-20,0-35.8,11.7-35.8,26v78.3c0,14.3,16.2,26,35.8,26h26.7
			c2.6,0,5.6-0.4,8.3-0.8v230c0,14.3,16.2,26,35.8,26h47.8v60.6c0,14.3,16.2,26,35.8,26C-631.8,845.2-615.6,834-615.6,819.3z"/>
		<path class="st6" d="M1942.5,114.9h84v19.2c0,14.3,16.2,26,35.8,26h260.1V171c0,14.3,16.2,26,35.8,26h208.2
			c20,0,35.8-11.7,35.8-26v-10.9h68.1c20,0,35.8-11.7,35.8-26v-19.2h47.4c20,0,35.8-11.7,35.8-26c0-14.3-16.2-26-35.8-26h-47.4V28
			c0-14.3-16.2-26-35.8-26h-112.9c0.4-1.9,0.8-4.1,0.8-6v-19.6c0-14.3-16.2-26-35.8-26h-107.7c-20,0-35.8,11.7-35.8,26v19.2
			c0,1.9,0.4,4.1,0.8,6h-317.7c-20,0-35.8,11.7-35.8,26v35h-84c-20,0-35.8,11.7-35.8,26C1906.7,103.2,1922.9,114.9,1942.5,114.9z"/>
	</g>
	<pattern  id="SVGID_1_" xlink:href="#SVGID_8_" patternTransform="matrix(1 0 0 1 -76.0425 33719.9805)">
	</pattern>
	<path class="st7" d="M2756,1145.7h-45.9v-34.3c0-21.5-24.1-38.4-53.5-38.4h-41c15.8-9.4,25.2-23.3,25.2-38.8V939h57.2
		c38.4,0,69.6-22.6,69.6-50.1v-218c0-27.9-31.2-50.1-69.6-50.1h-57.2v-218c0-27.9-31.2-50.1-69.6-50.1h-90V198.1h84.7
		c20,0,35.8-11.7,35.8-26v-11.3h68.1c20,0,35.8-11.7,35.8-26v-19.2h47.4c20,0,35.8-11.7,35.8-26c0-14.3-16.2-26-35.8-26h-47.4v-35
		c0-14.3-16.2-26-35.8-26h-112.9c0.4-1.9,0.8-4.1,0.8-6v-19.2c0-14.3-16.2-26-35.8-26h-107.3c-20,0-35.8,11.7-35.8,26v19.2
		c0,1.9,0.4,4.1,0.8,6h-16.9v-54.2c0-35.8-39.9-65.1-90-65.1h-193.1c-49.7,0-90-29-90-65.1v-20.3c0-35.8-39.9-65.1-90-65.1H1595
		c-49.7,0-90,29-90,65.1v20.3c0,35.8-39.9,65.1-90,65.1H496.5c-49.7,0-90-29-90-65.1v-88.5c0-35.8-39.9-65.1-90-65.1h-885.4
		c-49.7,0-90,29-90,65.1v84c-13.2,3.8-23,13.2-23,24.1v81.3c-2.6-0.4-5.6-0.8-8.3-0.8h-26.7c-20,0-35.8,11.7-35.8,26v78.3
		c0,14.3,16.2,26,35.8,26h26.7c2.6,0,5.6-0.4,8.3-0.8v88.8c-18.4,1.1-33.1,12-33.1,25.6v19.2c0,1.9,0.4,4.1,0.8,6H-1032
		c-20,0-35.8,11.7-35.8,26v35h-84c-20,0-35.8,11.7-35.8,26c0,14.3,16.2,26,35.8,26h84v19.2c0,14.3,16.2,26,35.8,26h259.8v27.5
		c-2.6-0.4-5.6-0.8-8.3-0.8h-26.7c-20,0-35.8,11.7-35.8,26v78.3c0,14.3,16.2,26,35.8,26h26.7c2.6,0,5.6-0.4,8.3-0.8v230
		c0,14.3,16.2,26,35.8,26h48.2v4.5h-44c-49.7,0-90,29-90,65.1v221.7h-158.9c-20,0-35.8,11.7-35.8,26v10.9h-68.5
		c-20,0-35.8,11.7-35.8,26v19.2h-47.4c-20,0-35.8,11.7-35.8,26c0,14.3,16.2,26,35.8,26h47.8v35c0,14.3,16.2,26,35.8,26h112.9
		c-0.4,1.9-0.8,4.1-0.8,6v19.2c0,14.3,16.2,26,35.8,26h106.5V1524c0,35.8,39.9,65.1,90,65.1h295.1c49.7,0,90,29,90,65.1v178.1
		c0,35.8,39.9,65.1,90,65.1c49.7,0,90,29,90,65.1v8.3h-215.3c-37.6,0-68.5,22.6-68.5,49.7v23.7h-64.8c-37.6,0-68.5,22.6-68.5,49.7
		v37.6h-59.1c-37.6,0-68.5,22.6-68.5,49.7s30.9,49.7,68.5,49.7h59.1v43.7c0,27.5,30.9,49.7,68.5,49.7h209.3v5.6
		c0,27.5,30.9,49.7,68.5,49.7h189.7c37.6,0,68.5-22.6,68.5-49.7v-4.5H190c37.6,0,68.5-22.6,68.5-49.7v-36.1h84.7
		c37.6,0,68.5-22.6,68.5-49.7v-20.7c0-27.5-30.9-49.7-68.5-49.7h-84.3v-10.2h48.9c49.7,0,90-29,90-65.1v-80.2
		c0-35.8,39.9-65.1,90-65.1h401.7c2.3,0,4.1,0,6,0.4h-42.9c-14.3,0-26,8.3-26,18.8v23h-60.2c-14.3,0-26,8.3-26,18.8v18.8h-42.5
		c-14.3,0-26,8.3-26,18.8v6.4c0,10.5,11.7,18.8,26,18.8h42.9v17.7c0,10.5,11.7,18.8,26,18.8h48.9v15.4c0,10.5,11.7,18.8,26,18.8
		h111.8c14.3,0,26-8.3,26-18.8v-17.7l0,0v53.8c0,35.8,39.9,65.1,90,65.1h338.4c49.7,0,90-29,90-65.1v-148.3
		c0-35.8,39.9-65.1,90-65.1H2264c49.7,0,90-29,90-65.1v-104.3c0-35.8,39.9-65.1,90-65.1h56.5c49.7,0,90-29,90-65.1v-262
		c9.8-6.8,15.8-16.6,15.8-27.5v-18.1h50.8c29.4,0,53.5-17.3,53.5-38.4v-29.4h45.9c29.4,0,53.5-17.3,53.5-38.4
		C2809.8,1163,2785.4,1145.7,2756,1145.7z M-440.2,1122.3h3.8c16.6,0,32.4,3.4,45.6,9.4h-49.3L-440.2,1122.3L-440.2,1122.3z
		 M-444.3,1230.4c2.3-3.8,4.1-7.5,4.1-11.7v-35h80.6C-370.5,1210.4-404.4,1230-444.3,1230.4z"/>
	<path class="st8" d="M510.8,252.3H1263c40.7,0,73.4-27.1,73.4-61v-19.2c0-33.5,32.8-61,73.4-61h248.8c40.7,0,73.4,27.1,73.4,61
		v19.2c0,33.5,32.8,61,73.4,61h158.1c40.7,0,73.4,27.1,73.4,61v410.3c0,33.5,32.8,61,73.4,61h46.3c40.7,0,73.4,27.1,73.4,61v577.9
		c0,33.5-32.8,61-73.4,61h-47.1c-40.7,0-73.4,27.1-73.4,61v97.9c0,33.5-32.8,61-73.4,61h-553.4c-40.7,0-73.4,27.1-73.4,61v138.5
		c0,33.5-32.8,61-73.4,61H985.9c-40.7,0-73.4-27.1-73.4-61v-138.9c0-33.5-32.8-61-73.4-61H510.8c-40.7,0-73.4,27.1-73.4,61v75.3
		c0,33.5-32.8,61-73.4,61H41c-40.7,0-73.4-27.1-73.4-61v-75.3c0-33.5-32.8-61-73.4-61l0,0c-40.7,0-73.4-27.1-73.4-61v-167.1
		c0-33.5-32.8-61-73.4-61H-494c-40.7,0-73.4-27.1-73.4-61v-215c0-33.5,32.8-61,73.4-61h241.3c40.7,0,73.4-27.1,73.4-61V707.5
		c0-33.5-32.8-61-73.4-61h-108.4c-40.7,0-73.4-27.1-73.4-61V108.9c0-33.5,32.8-61,73.4-61h724.7c40.7,0,73.4,27.1,73.4,61v82.4
		C437.4,225.2,470.5,252.3,510.8,252.3z"/>
	<pattern  id="SVGID_2_" xlink:href="#SVGID_9_" patternTransform="matrix(0.6 0 0 0.6 -15412.7119 17166.5781)">
	</pattern>
	<path class="st9" d="M510.8,252.3H1263c40.7,0,73.4-27.1,73.4-61v-19.2c0-33.5,32.8-61,73.4-61h248.8c40.7,0,73.4,27.1,73.4,61
		v19.2c0,33.5,32.8,61,73.4,61h158.1c40.7,0,73.4,27.1,73.4,61v410.3c0,33.5,32.8,61,73.4,61h46.3c40.7,0,73.4,27.1,73.4,61v577.9
		c0,33.5-32.8,61-73.4,61h-47.1c-40.7,0-73.4,27.1-73.4,61v97.9c0,33.5-32.8,61-73.4,61h-553.4c-40.7,0-73.4,27.1-73.4,61v138.5
		c0,33.5-32.8,61-73.4,61H985.9c-40.7,0-73.4-27.1-73.4-61v-138.9c0-33.5-32.8-61-73.4-61H510.8c-40.7,0-73.4,27.1-73.4,61v75.3
		c0,33.5-32.8,61-73.4,61H41c-40.7,0-73.4-27.1-73.4-61v-75.3c0-33.5-32.8-61-73.4-61l0,0c-40.7,0-73.4-27.1-73.4-61v-167.1
		c0-33.5-32.8-61-73.4-61H-494c-40.7,0-73.4-27.1-73.4-61v-215c0-33.5,32.8-61,73.4-61h241.3c40.7,0,73.4-27.1,73.4-61V707.5
		c0-33.5-32.8-61-73.4-61h-108.4c-40.7,0-73.4-27.1-73.4-61V108.9c0-33.5,32.8-61,73.4-61h724.7c40.7,0,73.4,27.1,73.4,61v82.4
		C437.4,225.2,470.5,252.3,510.8,252.3z"/>
	<path class="st6" d="M2332.9,691.7h-46.7V487.2c0-26-25.6-47.1-56.8-47.1h-73.4V233.1c0-26-25.6-47.1-56.8-47.1
		s-56.8,21.1-56.8,47.1v207.1h-56.8c-31.2,0-56.8,21.1-56.8,47.1v90h-69.6c-31.2,0-56.8,21.1-56.8,47.1v298.2
		c0,26,25.6,47.1,56.8,47.1h67v312.1c0,50.8,50.1,92.6,111.4,92.6h192.7c61.4,0,111.4-41.8,111.4-92.6V989.8
		c26.7-3.8,47.4-23,47.4-46.3V739.1C2389.7,713.1,2364.1,691.7,2332.9,691.7z"/>
	<pattern  id="SVGID_3_" xlink:href="#SVGID_10_" patternTransform="matrix(1 0 0 1 -76.0425 33719.9805)">
	</pattern>
	<path class="st10" d="M2332.9,691.7h-46.7V487.2c0-26-25.6-47.1-56.8-47.1h-73.4V233.1c0-26-25.6-47.1-56.8-47.1
		s-56.8,21.1-56.8,47.1v207.1h-56.8c-31.2,0-56.8,21.1-56.8,47.1v90h-69.6c-31.2,0-56.8,21.1-56.8,47.1v298.2
		c0,26,25.6,47.1,56.8,47.1h67v312.1c0,50.8,50.1,92.6,111.4,92.6h192.7c61.4,0,111.4-41.8,111.4-92.6V989.8
		c26.7-3.8,47.4-23,47.4-46.3V739.1C2389.7,713.1,2364.1,691.7,2332.9,691.7z"/>
	<path class="st6" d="M-198.1-31.2h-142.3c-30.1,0-55.3,17.7-61.4,41H-456c-42.2,0-76.8,28.6-76.8,63.6l0,0c0,3.8,0.4,7.2,1.1,10.5
		h-77.9c-47.4,0-86.2,32-86.2,71.5v221c0,39.2,38.8,71.5,86.2,71.5h388.5c47.4,0,86.2-32,86.2-71.5V21.2
		C-134.8-7.8-163.1-31.2-198.1-31.2z"/>
	<pattern  id="SVGID_4_" xlink:href="#SVGID_11_" patternTransform="matrix(1 0 0 1 -76.0425 33719.9805)">
	</pattern>
	<path class="st11" d="M-198.1-31.2h-142.3c-30.1,0-55.3,17.7-61.4,41H-456c-42.2,0-76.8,28.6-76.8,63.6l0,0c0,3.8,0.4,7.2,1.1,10.5
		h-77.9c-47.4,0-86.2,32-86.2,71.5v221c0,39.2,38.8,71.5,86.2,71.5h388.5c47.4,0,86.2-32,86.2-71.5V21.2
		C-134.8-7.8-163.1-31.2-198.1-31.2z"/>
	<g>
		<path class="st12" d="M-157.8,278.7c6.4,0,12,4.5,12,9.8c0,2.6-1.5,5.3-3.4,7.2c-2.3,1.9-5.3,3-8.3,3h-15.8h-462.7h-35
			c-6.8,0-12-4.5-12-9.8c0-2.6,1.1-5.3,3.4-7.2c2.3-1.9,5.3-3,8.3-3H-157.8"/>
		<path class="st13" d="M-174,298.6l-39.2,71.9c-7.2,13.6-23.3,22.2-41.4,22.2h-219.9c-55.7,0-107.7-23.7-137.8-62.9l-24.1-31.2
			L-174,298.6"/>
		<path class="st14" d="M-174,298.6h-13.9l-25.2,46.3c-7.2,13.6-23.3,22.2-41.4,22.2h-219.9c-55.7,0-107.7-23.7-137.8-62.9l-4.5-6
			h-19.6l24.1,31.2c30.1,39.2,82.1,62.9,137.8,62.9h219.9c17.7,0,33.9-8.7,41.4-22.2L-174,298.6"/>
		<path class="st15" d="M-182.7,216.6c0,0-116-1.9-195,39.9V72.4C-377.7,72.4-314.4,145.4-182.7,216.6z"/>
		<path class="st15" d="M-400.6,72.4v184.1c-94.1-16.2-208.9,0-208.9,0C-478.2,185.3-400.6,72.4-400.6,72.4z"/>
		<path class="st12" d="M-227.1,323.8c0,8.3-8.3,15.1-18.4,15.1c-10.2,0-18.4-6.8-18.4-15.1s8.3-15.1,18.4-15.1
			C-235.4,308.8-227.1,315.6-227.1,323.8z"/>
		<path class="st16" d="M-232.3,323.8c0,6-5.6,10.5-12.8,10.5c-7.2,0-12.8-4.9-12.8-10.5c0-6,5.6-10.5,12.8-10.5
			C-238.4,313.3-232.3,318.2-232.3,323.8z"/>
		<path class="st12" d="M-283.9,323.8c0,8.3-8.3,15.1-18.4,15.1c-10.2,0-18.4-6.8-18.4-15.1s8.3-15.1,18.4-15.1
			S-283.9,315.6-283.9,323.8z"/>
		<path class="st16" d="M-289.2,323.8c0,6-5.6,10.5-12.8,10.5s-12.8-4.9-12.8-10.5c0-6,5.6-10.5,12.8-10.5
			C-295.2,313.3-289.2,318.2-289.2,323.8z"/>
		<path class="st12" d="M-341.1,323.8c0,8.3-8.3,15.1-18.4,15.1c-10.2,0-18.4-6.8-18.4-15.1s8.3-15.1,18.4-15.1
			C-349,308.8-341.1,315.6-341.1,323.8z"/>
		<path class="st16" d="M-346.4,323.8c0,6-5.6,10.5-12.8,10.5s-12.8-4.9-12.8-10.5c0-6,5.6-10.5,12.8-10.5S-346.4,318.2-346.4,323.8
			z"/>
		<path class="st12" d="M-398,323.8c0,8.3-8.3,15.1-18.4,15.1c-10.2,0-18.4-6.8-18.4-15.1s8.3-15.1,18.4-15.1
			C-406.3,308.8-398,315.6-398,323.8z"/>
		<path class="st16" d="M-403.3,323.8c0,6-5.6,10.5-12.8,10.5s-12.8-4.9-12.8-10.5c0-6,5.6-10.5,12.8-10.5S-403.3,318.2-403.3,323.8
			z"/>
		<path class="st12" d="M-454.8,323.8c0,8.3-8.3,15.1-18.4,15.1c-10.2,0-18.4-6.8-18.4-15.1s8.3-15.1,18.4-15.1
			C-463.1,308.8-454.8,315.6-454.8,323.8z"/>
		<path class="st16" d="M-460.1,323.8c0,6-5.6,10.5-12.8,10.5s-12.8-4.9-12.8-10.5c0-6,5.6-10.5,12.8-10.5
			C-466.1,313.3-460.1,318.2-460.1,323.8z"/>
		<path class="st12" d="M-511.7,323.8c0,8.3-8.3,15.1-18.4,15.1s-18.4-6.8-18.4-15.1s8.3-15.1,18.4-15.1S-511.7,315.6-511.7,323.8z"
			/>
		<path class="st16" d="M-517.3,323.8c0,6-5.6,10.5-12.8,10.5c-7.2,0-12.8-4.9-12.8-10.5c0-6,5.6-10.5,12.8-10.5
			C-523,313.3-517.3,318.2-517.3,323.8z"/>
		<polyline class="st17" points="-393.1,4.6 -393.1,278.7 -385.9,278.7 -385.9,4.6 		"/>
		<path class="st17" d="M-655.9,279.8c0,0,52.7-18.4,112.6-53.5s126.9-86.6,155.5-153.6l-1.5-0.4l-1.5,0.8c0,0,28.2,37.6,69.6,82.4
			c41.8,44.8,96.8,96.4,151,124.2l1.9-2.6c-53.5-27.5-108.4-79.1-150.2-123.5c-20.7-22.2-38-42.9-50.4-57.6
			c-6-7.5-10.9-13.6-14.3-17.7c-1.5-2.3-3-3.8-3.8-4.9s-1.1-1.5-1.1-1.5l-1.9-2.6l-1.1,3c-28.2,65.9-94.9,117.1-154.3,152.1
			c-29.7,17.3-57.6,30.9-78.3,39.9c-10.2,4.5-18.8,7.9-24.5,10.2c-3,1.1-5.3,1.9-6.8,2.6c-1.5,0.8-2.3,0.8-2.3,0.8L-655.9,279.8
			L-655.9,279.8z"/>
		<path class="st17" d="M-391.2,72.7c0,0,20.7,117.8,108.4,206.7l2.6-1.9c-43.7-44-70.4-95.6-86.6-135.9
			c-7.9-20.3-13.2-37.6-16.6-50.1c-1.5-6-2.6-10.9-3.4-14.3c-0.4-1.5-0.8-3-0.8-3.8c0-0.8-0.4-1.1-0.4-1.1L-391.2,72.7L-391.2,72.7z
			"/>
		<polygon class="st15" points="-296.3,37.7 -389.7,67.5 -389.7,7.2 		"/>
		<polygon class="st18" points="-365.6,24.6 -361.8,31 -353.6,32.1 -359.6,37 -358.1,44.1 -365.6,40.8 -373.5,44.1 -372,37 
			-378,32.1 -369.4,31 		"/>
		<path class="st17" d="M-391.2,72c0,0-0.4,0.8-0.8,1.9c-3,8.7-17.3,47.8-41,90.4c-23.3,42.9-56.1,89.6-95.2,112.9l2.3,2.3
			c42.9-26,77.2-77.6,101.3-122.7c23.7-45.2,37.3-84,37.3-84L-391.2,72L-391.2,72z"/>
		<path class="st17" d="M-163.8,278.7c0,2.6-2.3,4.5-5.3,4.5s-5.3-1.9-5.3-4.5c0-2.6,2.3-4.5,5.3-4.5S-163.8,276-163.8,278.7z"/>
		<path class="st17" d="M-278.7,278.7c0,2.6-2.3,4.5-5.3,4.5c-3,0-5.3-1.9-5.3-4.5c0-2.6,2.3-4.5,5.3-4.5
			C-280.9,274.2-278.7,276-278.7,278.7z"/>
		<path class="st17" d="M-521.8,278.7c0,2.6-2.3,4.5-5.3,4.5c-3,0-5.3-1.9-5.3-4.5c0-2.6,2.3-4.5,5.3-4.5
			C-524.1,274.2-521.8,276-521.8,278.7z"/>
		<path class="st17" d="M-651,278.7c0,2.6-2.3,4.5-5.3,4.5c-3,0-5.3-1.9-5.3-4.5c0-2.6,2.3-4.5,5.3-4.5
			C-653.6,274.2-651,276-651,278.7z"/>
	</g>
	<path class="st19" d="M1653,1272.5V648c0-33.5,32.8-61,73.4-61h23c40.7,0,73.4-27.1,73.4-61V319.3c0-33.5-32.8-61-73.4-61h-23
		c-40.7,0-73.4-27.1-73.4-61v-131c0-33.5-32.8-61-73.4-61h-494.3c-40.7,0-73.4-27.1-73.4-61V-94c0-33.5-32.8-61-73.4-61H242.7
		c-40.7,0-73.4,27.1-73.4,61v38.4c0,33.5-32.8,61-73.4,61H-21.9c-40.7,0-73.4,27.1-73.4,61V526c0,33.5-32.8,61-73.4,61h-167.1
		c-40.7,0-73.4,27.1-73.4,61v230c0,33.5,32.8,61,73.4,61h167.1c40.7,0,73.4,27.1,73.4,61v272.9c0,33.5-32.8,61-73.4,61h-90.7
		c-40.7,0-73.4,27.1-73.4,61v268.4c0,33.5,32.8,61,73.4,61h90.7c40.7,0,73.4,27.1,73.4,61l0,0c0,33.5,32.8,61,73.4,61h201
		c40.7,0,73.4,27.1,73.4,61v200.3c0,33.5,32.8,61,73.4,61h259c40.7,0,73.4-27.1,73.4-61v-200.3c0-33.5,32.8-61,73.4-61h372.7
		c40.7,0,73.4,27.1,73.4,61v90c0,33.5,32.8,61,73.4,61h574.5c40.7,0,73.4-27.1,73.4-61v-602.7c0-33.5-32.8-61-73.4-61h-99.4
		C1685.7,1333.5,1653,1306,1653,1272.5z"/>
	<pattern  id="SVGID_5_" xlink:href="#SVGID_12_" patternTransform="matrix(0.3 0 0 0.3 -26668.5137 4592.8696)">
	</pattern>
	<path class="st20" d="M1653,1272.5V648c0-33.5,32.8-61,73.4-61h23c40.7,0,73.4-27.1,73.4-61V319.3c0-33.5-32.8-61-73.4-61h-23
		c-40.7,0-73.4-27.1-73.4-61v-131c0-33.5-32.8-61-73.4-61h-494.3c-40.7,0-73.4-27.1-73.4-61V-94c0-33.5-32.8-61-73.4-61H242.7
		c-40.7,0-73.4,27.1-73.4,61v38.4c0,33.5-32.8,61-73.4,61H-21.9c-40.7,0-73.4,27.1-73.4,61V526c0,33.5-32.8,61-73.4,61h-167.1
		c-40.7,0-73.4,27.1-73.4,61v230c0,33.5,32.8,61,73.4,61h167.1c40.7,0,73.4,27.1,73.4,61v272.9c0,33.5-32.8,61-73.4,61h-90.7
		c-40.7,0-73.4,27.1-73.4,61v268.4c0,33.5,32.8,61,73.4,61h90.7c40.7,0,73.4,27.1,73.4,61l0,0c0,33.5,32.8,61,73.4,61h201
		c40.7,0,73.4,27.1,73.4,61v200.3c0,33.5,32.8,61,73.4,61h259c40.7,0,73.4-27.1,73.4-61v-200.3c0-33.5,32.8-61,73.4-61h372.7
		c40.7,0,73.4,27.1,73.4,61v90c0,33.5,32.8,61,73.4,61h574.5c40.7,0,73.4-27.1,73.4-61v-602.7c0-33.5-32.8-61-73.4-61h-99.4
		C1685.7,1333.5,1653,1306,1653,1272.5z"/>
	<path class="st21" d="M1823.5,1495.8h-51.2v-16.9c0-19.2-18.8-34.6-41.8-34.6h-181.5v-16.6c0-19.2-18.8-34.6-41.8-34.6h-131.4
		c-23,0-41.8,15.4-41.8,34.6v16.6h-39.5c-23,0-41.8,15.4-41.8,34.6v26.4h-35.4c-23,0-41.8,15.4-41.8,34.6s18.8,34.6,41.8,34.6h35.8
		v30.5c0,19.2,18.8,34.6,41.8,34.6h128.4v4.1c0,19.2,18.8,34.6,41.8,34.6h115.2c23,0,41.8-15.4,41.8-34.6v-4.1h108.4
		c23,0,41.8-15.4,41.8-34.6v-25.2h51.2c23,0,41.8-15.4,41.8-34.6v-14.7C1865.3,1511.2,1846.5,1495.8,1823.5,1495.8z"/>
	<path class="st21" d="M706.2,1495.8h-90.7v-23.7c0-17.7-17.3-32.4-38.8-32.4H295.1v-13.9c0-17.7-17.3-32.4-38.8-32.4H30.8
		c-21.5,0-38.8,14.3-38.8,32.4v13.6h-73.8c-21.5,0-38.8,14.3-38.8,32.4v23.7h-51.2c-21.5,0-38.8,14.3-38.8,32.4
		c0,17.7,17.3,32.4,38.8,32.4h51.2v43.7c0,17.7,17.3,32.4,38.8,32.4h122c-0.8,2.3-1.1,4.9-1.1,7.5v23.7c0,17.7,17.3,32.4,38.8,32.4
		h116.7c21.5,0,38.8-14.3,38.8-32.4v-23.7c0-2.6-0.4-5.3-1.1-7.5h344.1c21.5,0,38.8-14.3,38.8-32.4v-43.7h90.7
		c21.5,0,38.8-14.3,38.8-32.4C744.9,1510.1,727.6,1495.8,706.2,1495.8z"/>
	<path class="st21" d="M-885.5,752.6H-759v24.1c0,13.2,12.8,24.1,28.6,24.1h54.6v29c0,13.2,12.8,24.1,28.6,24.1h181.8
		c15.8,0,28.6-10.9,28.6-24.1v-29h67c15.8,0,28.6-10.9,28.6-24.1v-24.1h47.8c15.8,0,28.6-10.9,28.6-24.1v-7.9
		c0-13.2-12.8-24.1-28.6-24.1h-47.8V674c0-13.2-12.8-24.1-28.6-24.1H-424v-19.6c0-13.2-12.8-24.1-28.6-24.1h-125
		c-15.8,0-28.6,10.9-28.6,24.1v19.6h-125c-15.8,0-28.6,10.9-28.6,24.1v30.9h-126.1c-15.8,0-28.6,10.9-28.6,24.1
		C-914.5,742.1-901.7,752.6-885.5,752.6z"/>
	<g>
		<rect x="358.3" y="1239.4" class="st17" width="9" height="65.1"/>
		<ellipse class="st22" cx="362.8" cy="1195.7" rx="58.4" ry="48.6"/>
		<path class="st23" d="M393,1154.3c5.3,7.2,8.3,15.8,8.3,25.2c0,26.7-26,48.6-58.4,48.6c-10.9,0-21.5-2.6-30.1-7.2
			c10.2,13.9,28.6,23.3,50.1,23.3c32.4,0,58.4-21.8,58.4-48.6C421.2,1178,409.9,1162.2,393,1154.3z"/>
	</g>
	<g>
		<rect x="1162.8" y="198.5" class="st17" width="7.2" height="49.7"/>
		<path class="st22" d="M1197.8,166.5c0,20.3-13.9,35.8-31.6,35.8s-31.6-15.1-31.6-35.8c0-20.3,31.6-77.2,31.6-77.2
			S1197.8,145.8,1197.8,166.5z"/>
		<path class="st23" d="M1186.9,131.1c4.5,34.3-10.9,63.2-35.8,66.6h-0.4c4.5,3,9.8,4.5,15.4,4.5c17.3,0,31.6-15.1,31.6-35.8
			C1197.8,158.2,1192.9,144.7,1186.9,131.1z"/>
	</g>
	<path class="st6" d="M1589.7,434.9v-4.5c0-3-2.6-5.6-6-5.6h-24.8c-3.4,0-6-2.6-6-5.6V239.5c0-3-2.6-5.6-6-5.6h-314.3
		c-3.4,0-6,2.6-6,5.6v113.7c0,3-2.6,5.6-6,5.6h-180.3c-3.4,0-6,2.3-6,5.6v29.4c0,3,2.6,5.6,6,5.6h48.2c3.4,0,6,2.6,6,5.6v14.7
		c0,3,2.6,5.6,6,5.6h65.9c3.4,0,6-2.6,6-5.6v-14.7c0-3,2.6-5.6,6-5.6h42.5c3.4,0,6,2.6,6,5.6v42.2c0,3-2.6,5.6-6,5.6h-27.5
		c-3.4,0-6,2.6-6,5.6v7.2c0,3-2.6,5.6-6,5.6h-3.4c-3.4,0-6,2.6-6,5.6v4.9c0,3,2.6,5.6,6,5.6h3.4c3.4,0,6,2.3,6,5.6v5.3
		c0,3,2.6,5.6,6,5.6h38.4c3.4,0,6,2.6,6,5.6l0,0c0,3,2.6,5.6,6,5.6h50.8c3.4,0,6-2.6,6-5.6l0,0c0-3,2.6-5.6,6-5.6h17.7
		c3.4,0,6-2.3,6-5.6v-30.1c0-3,2.6-5.6,6-5.6h67.8c3.4,0,6,2.6,6,5.6v7.5c0,3,2.6,5.6,6,5.6h17.7c3.4,0,6,2.3,6,5.6v4.9
		c0,3,2.6,5.6,6,5.6h79.4c3.4,0,6-2.6,6-5.6v-4.9c0-3,2.6-5.6,6-5.6h48.2c3.4,0,6-2.6,6-5.6v-4.5c0-3,2.6-5.6,6-5.6h18.1
		c3.4,0,6-2.6,6-5.6v-13.9c0-3-2.6-5.6-6-5.6h-18.1C1592.4,440.2,1589.7,437.9,1589.7,434.9z"/>
	<pattern  id="SVGID_6_" xlink:href="#SVGID_13_" patternTransform="matrix(1 0 0 1 -76.0425 33719.9805)">
	</pattern>
	<path class="st24" d="M1590.1,434.9v-4.5c0-3-2.6-5.6-6-5.6h-24.8c-3.4,0-6-2.6-6-5.6V239.5c0-3-2.6-5.6-6-5.6h-312.5
		c-3.4,0-6,2.6-6,5.6v113.7c0,3-2.6,5.6-6,5.6h-179.2c-3.4,0-6,2.3-6,5.6v29.4c0,3,2.6,5.6,6,5.6h48.2c3.4,0,6,2.6,6,5.6v14.7
		c0,3,2.6,5.6,6,5.6h65.5c3.4,0,6-2.6,6-5.6v-14.7c0-3,2.6-5.6,6-5.6h42.2c3.4,0,6,2.6,6,5.6v42.2c0,3-2.6,5.6-6,5.6h-27.1
		c-3.4,0-6,2.6-6,5.6v7.2c0,3-2.6,5.6-6,5.6h-3.4c-3.4,0-6,2.6-6,5.6v4.9c0,3,2.6,5.6,6,5.6h3.4c3.4,0,6,2.3,6,5.6v5.3
		c0,3,2.6,5.6,6,5.6h38.4c3.4,0,6,2.6,6,5.6l0,0c0,3,2.6,5.6,6,5.6h49.7c3.4,0,6-2.6,6-5.6l0,0c0-3,2.6-5.6,6-5.6h17.3
		c3.4,0,6-2.3,6-5.6v-30.1c0-3,2.6-5.6,6-5.6h67.4c3.4,0,6,2.6,6,5.6v7.5c0,3,2.6,5.6,6,5.6h17.3c3.4,0,6,2.3,6,5.6v4.9
		c0,3,2.6,5.6,6,5.6h79.1c3.4,0,6-2.6,6-5.6v-4.9c0-3,2.6-5.6,6-5.6h47.8c3.4,0,6-2.6,6-5.6v-4.5c0-3,2.6-5.6,6-5.6h17.7
		c3.4,0,6-2.6,6-5.6v-13.9c0-3-2.6-5.6-6-5.6h-17.7C1592.7,440.2,1590.1,437.9,1590.1,434.9z"/>
	<rect x="1341.3" y="234.6" class="st25" width="153.6" height="13.6"/>
	<rect x="1341.3" y="122.4" class="st6" width="153.6" height="112.2"/>
	<pattern  id="SVGID_7_" xlink:href="#SVGID_14_" patternTransform="matrix(1 0 0 1 -76.0425 33719.9805)">
	</pattern>
	<rect x="1341.3" y="122.4" class="st26" width="153.6" height="112.2"/>
	<g>
		<rect x="170.1" y="1717.5" class="st17" width="13.2" height="93.4"/>
		<ellipse class="st22" cx="176.5" cy="1654.6" rx="83.6" ry="69.6"/>
		<path class="st23" d="M219.8,1595.2c7.5,10.5,12,23,12,35.8c0,38.4-37.6,69.6-83.6,69.6c-15.8,0-30.5-3.8-43.3-10.2
			c14.7,20.3,41.4,33.5,71.9,33.5c46.3,0,83.6-31.2,83.6-69.6C260.4,1629.4,244.3,1607.6,219.8,1595.2z"/>
	</g>
	<g>
		<rect x="1416.6" y="1883.9" class="st17" width="13.2" height="93.4"/>
		<ellipse class="st22" cx="1423" cy="1821.4" rx="83.6" ry="69.6"/>
		<path class="st23" d="M1466.2,1761.9c7.5,10.5,12,23,12,35.8c0,38.4-37.6,69.6-83.6,69.6c-15.8,0-30.5-3.8-43.3-10.2
			c14.7,20.3,41.4,33.5,71.9,33.5c46.3,0,83.6-31.2,83.6-69.6C1506.9,1796.2,1490.7,1774,1466.2,1761.9z"/>
	</g>
	<g>
		<rect x="904.9" y="1530.8" class="st17" width="13.2" height="93.4"/>
		<ellipse class="st22" cx="911.3" cy="1467.9" rx="83.6" ry="69.6"/>
		<path class="st23" d="M954.6,1408.4c7.5,10.5,12,23,12,35.8c0,38.4-37.6,69.6-83.6,69.6c-15.8,0-30.5-3.8-43.3-10.2
			c14.7,20.3,41.4,33.5,71.9,33.5c46.3,0,83.6-31.2,83.6-69.6C995.3,1442.7,979.1,1420.5,954.6,1408.4z"/>
	</g>
	<g>
		<rect x="276.6" y="1746.9" class="st17" width="9" height="65.1"/>
		<ellipse class="st22" cx="281.1" cy="1703.2" rx="58.4" ry="48.6"/>
		<path class="st23" d="M311.3,1661.8c5.3,7.2,8.3,15.8,8.3,25.2c0,26.7-26,48.6-58.4,48.6c-10.9,0-21.5-2.6-30.1-7.2
			c10.2,13.9,28.6,23.3,50.1,23.3c32.4,0,58.4-21.8,58.4-48.6C339.5,1685.5,328.2,1670.5,311.3,1661.8z"/>
	</g>
	<g>
		<rect x="1034.1" y="131.1" class="st17" width="9" height="65.1"/>
		<ellipse class="st22" cx="1039" cy="87.4" rx="58.4" ry="48.6"/>
		<path class="st23" d="M1069.1,46c5.3,7.2,8.3,15.8,8.3,25.2c0,26.7-26,48.6-58.4,48.6c-10.9,0-21.5-2.6-30.1-7.2
			c10.2,13.9,28.6,23.3,50.1,23.3c32.4,0,58.4-21.8,58.4-48.6C1097.3,70.1,1086,54.7,1069.1,46z"/>
	</g>
	<g>
		<rect x="1290.4" y="987.2" class="st17" width="9" height="65.1"/>
		<ellipse class="st22" cx="1295" cy="943.9" rx="58.4" ry="48.6"/>
		<path class="st23" d="M1325.1,902.1c5.3,7.2,8.3,15.8,8.3,25.2c0,26.7-26,48.6-58.4,48.6c-10.9,0-21.5-2.6-30.1-7.2
			c10.2,13.9,28.6,23.3,50.1,23.3c32.4,0,58.4-21.8,58.4-48.6C1353.3,926.2,1342,910.8,1325.1,902.1z"/>
	</g>
	<g>
		<rect x="853.7" y="1100.1" class="st17" width="13.2" height="93.4"/>
		<path class="st22" d="M919.6,1040.3c0,38.4-26.4,67-59.1,67c-32.8,0-59.1-28.6-59.1-67c0-38.4,59.1-144.6,59.1-144.6
			S919.6,1001.9,919.6,1040.3z"/>
		<path class="st23" d="M899.3,973.6c8.3,64-20.3,118.6-67,125c-0.4,0-0.8,0-1.1,0c8.7,5.3,18.4,8.3,29.4,8.3
			c32.8,0,59.1-28.6,59.1-67C919.6,1025.2,910.2,999.2,899.3,973.6z"/>
	</g>
	<g>
		<rect x="1025.4" y="1100.1" class="st17" width="13.2" height="93.4"/>
		<path class="st22" d="M1090.9,1040.3c0,38.4-26.4,67-59.1,67s-59.1-28.6-59.1-67c0-38.4,59.1-144.6,59.1-144.6
			S1090.9,1001.9,1090.9,1040.3z"/>
		<path class="st23" d="M1070.6,973.6c8.3,64-20.3,118.6-67,125c-0.4,0-0.8,0-1.1,0c8.7,5.3,18.4,8.3,29.4,8.3
			c32.8,0,59.1-28.6,59.1-67C1090.9,1025.2,1081.9,999.2,1070.6,973.6z"/>
	</g>
	<g>
		<path class="st2" d="M65.1-121.9c0,0-10.9-7.9-24.5-7.9c-10.2,0-18.8,4.5-22.6,6.4c-1.1-4.1-3.8-10.5-9.8-15.4
			c-9.4-7.9-23.7-8.7-23.7-8.7s1.1,12,10.5,20c3.4,3,7.5,4.9,11.3,6C6-114,2.2-106.8-3.8-101.9c-6.4,5.3-15.4,8.7-25.2,8.7
			c-14.3,0-28.2-2.3-41.4-6.8c-36.9-12.8-87.3-28.2-112.2-28.2c-41.8,0-72.7,19.6-72.7,44H5.2c2.3-1.5,4.5-3,6.8-4.9
			c8.7-7.2,14.7-16.9,16.6-27.5c3.8,1.1,7.9,1.9,12.4,1.9C54.1-114,65.1-121.9,65.1-121.9z"/>
		<path class="st2" d="M-215-99.3c0,1.5-1.5,3-3.4,3c-1.9,0-3.4-1.1-3.4-3c0-1.5,1.5-3,3.4-3C-216.5-102.3-215-100.8-215-99.3z"/>
		<path class="st27" d="M-218.4-98.9c0,0.8-0.8,1.1-1.5,1.1c-0.8,0-1.5-0.4-1.5-1.1c0-0.8,0.8-1.1,1.5-1.1S-218.4-99.7-218.4-98.9z"
			/>
	</g>
	<g>
		<path class="st28" d="M412.5,1319.2l-150.6,216.5h361.4l-150.6-216.5C458.1,1298.1,427.2,1298.1,412.5,1319.2z"/>
		<path class="st29" d="M386.9,1363.6c9.4,0,9.4,13.2,18.4,13.2c9.4,0,9.4-13.2,18.4-13.2c9.4,0,9.4,13.2,18.4,13.2
			c9.4,0,9.4-13.2,18.4-13.2c9.4,0,9.4,13.2,18.4,13.2c9.4,0,9.4-13.2,18.4-13.2c7.2,0,8.7,7.9,13.6,11.7l-8.3-12
			c-27.1-38.8-94.1-38.8-121.2,0l-8.3,12C378.3,1371.2,379.8,1363.6,386.9,1363.6z"/>
		<path class="st30" d="M511.9,1375.7c-10.5,66.3-54.6,123.9-118.2,160H623L511.9,1375.7z"/>
	</g>
	<g>
		<path class="st28" d="M120,1214.9l-222.9,320.7h535.3l-223.2-320.7C187.8,1183.7,141.5,1183.7,120,1214.9z"/>
		<path class="st29" d="M82.4,1280.8c13.6,0,13.6,19.6,27.5,19.6c13.6,0,13.6-19.6,27.5-19.6c13.6,0,13.6,19.6,27.5,19.6
			c13.6,0,13.6-19.6,27.5-19.6c13.6,0,13.6,19.6,27.5,19.6c13.6,0,13.6-19.6,27.5-19.6c10.5,0,13.2,11.7,20,17.3l-12.4-18.1
			c-39.9-57.2-139.7-57.2-179.6,0l-12.4,17.7C69.2,1292.1,71.8,1280.8,82.4,1280.8z"/>
		<path class="st30" d="M267.6,1298.5c-15.4,98.3-80.9,183.3-174.7,237.2h339.6L267.6,1298.5z"/>
	</g>
	<g>
		<rect x="776.2" y="1127.6" class="st17" width="9" height="65.1"/>
		<ellipse class="st22" cx="780.7" cy="1083.9" rx="58.4" ry="48.6"/>
		<path class="st23" d="M810.8,1042.5c5.3,7.2,8.3,15.8,8.3,25.2c0,26.7-26,48.6-58.4,48.6c-10.9,0-21.5-2.6-30.1-7.2
			c10.2,13.9,28.6,23.3,50.1,23.3c32.4,0,58.4-21.8,58.4-48.6C839.1,1066.2,827.8,1050.8,810.8,1042.5z"/>
	</g>
	<g>
		<g>
			<path class="st22" d="M1678.9,1477.7c-57.6,0-104.7,38.8-104.7,87h209.3C1783.2,1516.9,1736.5,1477.7,1678.9,1477.7z"/>
		</g>
		<path class="st23" d="M1634.1,1564.7h149.5c0-31.2-20-58.4-49.3-73.8C1713.6,1525.1,1677.8,1551.9,1634.1,1564.7z"/>
	</g>
	<g>
		<g>
			<path class="st22" d="M1330.3,1504.1c-40.3,0-73,27.1-73,60.6H1403C1403,1531.2,1370.6,1504.1,1330.3,1504.1z"/>
		</g>
		<path class="st23" d="M1299.1,1564.7H1403c0-21.8-13.9-40.7-34.3-51.2C1354.4,1537.2,1329.6,1555.6,1299.1,1564.7z"/>
	</g>
	<g>
		<g>
			<path class="st21" d="M1091.3,299c-40.3,0-73,27.1-73,60.6h145.7C1164.3,326.1,1131.6,299,1091.3,299z"/>
		</g>
		<path class="st30" d="M1060,359.2h103.9c0-21.8-13.9-40.7-34.3-51.2C1115.4,331.8,1090.5,350.6,1060,359.2z"/>
	</g>
	<g>
		<g>
			<path class="st21" d="M1289.7,1088.8c-24.5,0-44,16.2-44,36.5h88.1C1333.7,1105.4,1313.8,1088.8,1289.7,1088.8z"/>
		</g>
		<path class="st30" d="M1270.9,1125.3h62.9c0-13.2-8.3-24.5-20.7-30.9C1304.4,1108.8,1289.3,1120.1,1270.9,1125.3z"/>
	</g>
	<g>
		<g>
			<path class="st21" d="M1551.7,629.9c-24.5,0-44,16.2-44,36.5h88.1C1595.7,646.1,1576.2,629.9,1551.7,629.9z"/>
		</g>
		<path class="st30" d="M1532.9,666.4h62.9c0-13.2-8.3-24.5-20.7-30.9C1566.4,649.9,1551.3,660.8,1532.9,666.4z"/>
	</g>
	<g>
		<g>
			<path class="st21" d="M1463.6,550.1c-24.5,0-44,16.2-44,36.5h88.1C1507.7,566.7,1488.1,550.1,1463.6,550.1z"/>
		</g>
		<path class="st30" d="M1444.8,587h62.9c0-13.2-8.3-24.5-20.7-30.9C1478.3,570.1,1463.2,581.3,1444.8,587z"/>
	</g>
	<g>
		<g>
			<path class="st21" d="M1441.8,1239.4c-24.5,0-44,16.2-44,36.5h88.1C1485.8,1256,1466.2,1239.4,1441.8,1239.4z"/>
		</g>
		<path class="st30" d="M1423,1276.3h62.9c0-13.2-8.3-24.5-20.7-30.9C1456.5,1259.4,1441.4,1270.6,1423,1276.3z"/>
	</g>
	<g>
		<g>
			<path class="st21" d="M225.4,1100.5c-24.5,0-44,16.2-44,36.5h88.1C269.5,1116.7,249.9,1100.5,225.4,1100.5z"/>
		</g>
		<path class="st30" d="M206.6,1137h62.9c0-13.2-8.3-24.5-20.7-30.9C240.1,1120.4,225.1,1131.4,206.6,1137z"/>
	</g>
	<g>
		<g>
			<path class="st21" d="M1242.3,1728.4c-24.5,0-44,16.2-44,36.5h88.1C1286.3,1745,1266.7,1728.4,1242.3,1728.4z"/>
		</g>
		<path class="st30" d="M1223.4,1765.3h62.9c0-13.2-8.3-24.5-20.7-30.9C1256.9,1748.4,1241.9,1759.7,1223.4,1765.3z"/>
	</g>
	<g>
		<g>
			<path class="st21" d="M104.6,37c-34.3,0-61.7,23-61.7,51.2h123.5C166.3,59.9,138.5,37,104.6,37z"/>
		</g>
		<path class="st30" d="M78.2,88.6h88.1c0-18.4-11.7-34.6-29.4-43.7C124.9,64.8,103.8,80.7,78.2,88.6z"/>
	</g>
	<g>
		<g>
			<path class="st21" d="M-263.6,809.9c-40.3,0-73,27.1-73,60.6h146.1C-190.6,837-223.3,809.9-263.6,809.9z"/>
		</g>
		<path class="st30" d="M-294.8,870.5h104.3c0-21.8-13.9-40.7-34.3-51.2C-239.5,843-264.3,861.4-294.8,870.5z"/>
	</g>
	<g>
		<g>
			<path class="st21" d="M1536.6,61.8c-40.3,0-73,27.1-73,60.6h145.7C1609.7,88.9,1576.9,61.8,1536.6,61.8z"/>
		</g>
		<path class="st30" d="M1505.4,122.4h103.9c0-21.8-13.9-40.7-34.3-51.2C1560.7,94.6,1535.9,113.4,1505.4,122.4z"/>
	</g>
	<g>
		<g>
			<path class="st21" d="M1296.8,80.3c-28.2,0-50.8,18.8-50.8,42.2h101.6C1347.7,99.1,1325.1,80.3,1296.8,80.3z"/>
		</g>
		<path class="st30" d="M1275.4,122.4h72.7c0-15.1-9.8-28.2-24.1-35.8C1313.8,103.2,1296.5,116,1275.4,122.4z"/>
	</g>
	<g>
		<g>
			<path class="st21" d="M1414.3,44.5c-52,0-93.7,35-93.7,77.9H1508C1508,79.1,1466.2,44.5,1414.3,44.5z"/>
		</g>
		<path class="st30" d="M1374.4,122.4h134c0-27.9-17.7-52.3-44.4-66.3C1445.5,86.7,1413.5,110.8,1374.4,122.4z"/>
	</g>
	<g>
		<g>
			<path class="st22" d="M1519.3,1440.1c-82.8,0-150.2,55.7-150.2,124.6h300C1669.5,1495.8,1602.1,1440.1,1519.3,1440.1z"/>
		</g>
		<path class="st23" d="M1455,1564.7h214.2c0-44.8-28.2-83.6-70.8-105.8C1569,1507.8,1517.8,1546.2,1455,1564.7z"/>
	</g>
	<g>
		<g>
			<path class="st22" d="M-482.3,676.2c-40.3,0-73,27.1-73,60.6h145.7C-409.7,703.3-442,676.2-482.3,676.2z"/>
		</g>
		<path class="st23" d="M-513.6,736.8h103.9c0-21.8-13.9-40.7-34.3-51.2C-458.2,709.3-483.1,727.8-513.6,736.8z"/>
	</g>
	<g>
		<g>
			<path class="st22" d="M-561.8,541.1c-82.8,0-150.2,55.7-150.2,124.6h300C-411.9,596.8-478.9,541.1-561.8,541.1z"/>
		</g>
		<path class="st23" d="M-626.1,665.7h214.2c0-44.8-28.2-83.6-70.8-105.8C-512.1,608.8-563.3,647.2-626.1,665.7z"/>
	</g>
	<g>
		<path class="st21" d="M1541.9,184.2h-44c-13.6,0-24.5,10.9-24.5,24.5v90h93v-90C1566.4,195.1,1555.5,184.2,1541.9,184.2z"/>
		<path class="st30" d="M1560,203.8c-12.4,38-44.4,69.6-87,86.2v9h93v-76C1566.4,215.8,1564.1,209.4,1560,203.8z"/>
	</g>
	<g>
		<path class="st21" d="M1235.1,184.9h-29c-9,0-16.2,7.2-16.2,16.2V261h61.4v-59.9C1251.3,192.5,1244.1,184.9,1235.1,184.9z"/>
		<path class="st30" d="M1247.1,197.7c-8.3,25.2-29.4,45.9-57.6,56.8v6h61.7v-50.1C1251.3,206,1249.8,201.5,1247.1,197.7z"/>
	</g>
	<g>
		<path class="st21" d="M1628.9,234.6h-66.3c-20.3,0-36.5,16.6-36.5,36.5v135.1h139.3V271.1C1665.4,251.2,1649.2,234.6,1628.9,234.6
			z"/>
		<path class="st30" d="M1656,263.6c-18.4,57.2-66.6,104.3-130.3,129.1v13.6h139.7V292.6C1665.4,282.1,1662,272.3,1656,263.6z"/>
	</g>
	<g>
		<path class="st21" d="M1124.4,640.5h-66.3c-20.3,0-36.5,16.6-36.5,36.5v135.1h139.3V677C1160.9,657,1144.7,640.5,1124.4,640.5z"/>
		<path class="st30" d="M1151.5,669.4c-18.4,57.2-66.6,104.3-130.3,129.1v13.6h139.7V698.4C1160.9,687.9,1157.5,678.1,1151.5,669.4z
			"/>
	</g>
	<g>
		<path class="st21" d="M1494.9,281.7L1494.9,281.7c-27.9,0-50.8,18.8-50.8,42.2v82.4h101.3v-82.4
			C1545.7,300.5,1523.1,281.7,1494.9,281.7z"/>
		<path class="st30" d="M1538.9,302.4c-13.6,41.4-48.6,75.7-94.5,93.7v9.8h101.3v-82.4C1545.7,315.9,1543,308.8,1538.9,302.4z"/>
	</g>
	<g>
		<path class="st21" d="M1132.7,1164.5L1132.7,1164.5c-27.9,0-50.8,18.8-50.8,42.2v82.4h101.6v-82.4
			C1183.1,1183.3,1160.6,1164.5,1132.7,1164.5z"/>
		<path class="st30" d="M1176.4,1185.9c-13.6,41.4-48.6,75.7-94.5,93.7v9.8h101.6V1207C1183.1,1199.5,1180.5,1192.3,1176.4,1185.9z"
			/>
	</g>
	<g>
		<path class="st21" d="M1175.6,767.3L1175.6,767.3c-27.9,0-50.8,18.8-50.8,42.2v82.4h101.3v-82.4
			C1226.1,786.1,1203.5,767.3,1175.6,767.3z"/>
		<path class="st30" d="M1219.3,788.4c-13.6,41.4-48.6,75.7-94.5,93.7v9.8h101.3v-82.4C1226.1,801.6,1223.4,794.4,1219.3,788.4z"/>
	</g>
	<g>
		<path class="st21" d="M1002.8,739.5L1002.8,739.5c-19.6,0-35.8,13.2-35.8,29.7v58.4h71.5v-58.4
			C1038.6,753,1022.4,739.5,1002.8,739.5z"/>
		<path class="st30" d="M1033.7,754.5c-9.4,29.4-34.3,53.5-66.6,65.9v7.2h71.5v-58.4C1038.6,763.9,1036.7,758.7,1033.7,754.5z"/>
	</g>
	<g>
		<path class="st21" d="M1256.9,1227h-67.8c-20.7,0-37.3,16.6-37.3,37.3v138.2h142.7v-137.8C1294.2,1243.5,1277.6,1227,1256.9,1227z
			"/>
		<path class="st30" d="M1284.8,1256.7c-18.8,58.4-68.1,106.5-132.9,131.8v13.9h142.7v-116.3
			C1294.2,1275.5,1290.8,1265.4,1284.8,1256.7z"/>
	</g>
	<g>
		<path class="st21" d="M875.6,725.9L875.6,725.9c-27.9,0-50.8,18.8-50.8,42.2v82.4H926v-82.4C926,744.7,903.4,725.9,875.6,725.9z"
			/>
		<path class="st30" d="M919.2,747c-13.6,41.4-48.6,75.7-94.5,93.7v9.8H926v-82.4C926,760.5,923.4,753.4,919.2,747z"/>
	</g>
	<g>
		<g>
			<path class="st21" d="M1194.8,230.9c-40.3,0-73,27.1-73,60.6h145.7C1267.5,258,1235.1,230.9,1194.8,230.9z"/>
		</g>
		<path class="st30" d="M1163.6,291.1h103.9c0-21.8-13.9-40.7-34.3-51.2C1218.9,263.6,1194.1,282.1,1163.6,291.1z"/>
	</g>
	<g>
		<path class="st21" d="M1295,146.5L1295,146.5c-25.6,0-46.7,17.3-46.7,38.8v76h93v-76C1341.3,163.9,1320.6,146.5,1295,146.5z"/>
		<path class="st30" d="M1335.2,165.7c-12.4,38-44.4,69.6-87,86.2v9h93v-76C1341.3,178.2,1339,171.4,1335.2,165.7z"/>
	</g>
	<g>
		<g>
			<path class="st21" d="M1215.5,281.7c-52,0-93.7,35-93.7,77.9h187.5C1309.3,316.3,1267.5,281.7,1215.5,281.7z"/>
		</g>
		<path class="st30" d="M1175.6,359.2h134c0-27.9-17.7-52.3-44.4-66.3C1246.8,323.8,1214.8,347.9,1175.6,359.2z"/>
	</g>
	<g>
		<g>
			<path class="st21" d="M1349.9,1106.5c-31.2,0-56.5,21.1-56.5,47.1h113.3C1406.8,1127.6,1381.2,1106.5,1349.9,1106.5z"/>
		</g>
		<path class="st30" d="M1325.8,1153.6h80.9c0-16.9-10.5-31.6-26.7-39.9C1368.7,1132.1,1349.5,1146.4,1325.8,1153.6z"/>
	</g>
	<g>
		<g>
			<path class="st21" d="M-3.5,1167.9c-31.2,0-56.5,21.1-56.5,47.1H53.4C53,1189,27.8,1167.9-3.5,1167.9z"/>
		</g>
	</g>
	<g>
		<g>
			<path class="st21" d="M1002.8,1683.3c-31.2,0-56.5,21.1-56.5,47.1h112.9C1059.3,1704.3,1034.1,1683.3,1002.8,1683.3z"/>
		</g>
		<path class="st30" d="M978.7,1730.3h80.6c0-16.9-10.5-31.6-26.7-39.9C1021.6,1708.9,1002.1,1723.2,978.7,1730.3z"/>
	</g>
	<g>
		<g>
			<path class="st21" d="M1167,1738.2c-31.2,0-56.5,21.1-56.5,47.1h113.3C1223.4,1759.3,1198.2,1738.2,1167,1738.2z"/>
		</g>
		<path class="st30" d="M1142.9,1785.3h80.9c0-16.9-10.5-31.6-26.7-39.9C1185.8,1763.8,1166.2,1778.1,1142.9,1785.3z"/>
	</g>
	<g>
		<g>
			<path class="st21" d="M1405.6,563.3c-31.2,0-56.5,21.1-56.5,47.1h112.9C1462.1,584.4,1436.9,563.3,1405.6,563.3z"/>
		</g>
		<path class="st30" d="M1381.2,610.3h80.9c0-16.9-10.5-31.6-26.7-39.9C1424.5,588.9,1404.9,603.2,1381.2,610.3z"/>
	</g>
	<g>
		<g>
			<path class="st21" d="M-17.4,250.4c-31.2,0-56.5,21.1-56.5,47.1H39.5C39.1,271.5,13.9,250.4-17.4,250.4z"/>
		</g>
		<path class="st30" d="M-41.9,297.5h80.9c0-16.9-10.5-31.6-26.7-39.9C1.1,276-18.1,290.7-41.9,297.5z"/>
	</g>
	<g>
		<rect x="1574.3" y="495.5" class="st17" width="9" height="64.8"/>
		<path class="st22" d="M1619.5,454.1c0,26.7-18.4,46.3-41,46.3c-22.6,0-41-20-41-46.3s41-100.1,41-100.1S1619.5,427.4,1619.5,454.1
			z"/>
		<path class="st23" d="M1605.5,407.8c5.6,44.4-13.9,82.4-46.3,86.6c-0.4,0-0.4,0-0.8,0c6,3.8,12.8,6,20.3,6c22.6,0,41-20,41-46.3
			C1619.5,443.6,1613.4,425.5,1605.5,407.8z"/>
	</g>
	<g>
		<rect x="1135" y="2.7" class="st17" width="9" height="64.8"/>
		<path class="st22" d="M1180.1-39.1c0,26.7-18.4,46.3-41,46.3c-22.6,0-41-20-41-46.3c0-26.7,41-100.1,41-100.1
			S1180.1-65.8,1180.1-39.1z"/>
		<path class="st23" d="M1165.8-85c5.6,44.4-13.9,82.4-46.3,86.6c-0.4,0-0.4,0-0.8,0c6,3.8,12.8,6,20.3,6c22.6,0,41-20,41-46.3
			C1180.1-49.6,1173.7-67.3,1165.8-85z"/>
	</g>
	<g>
		<rect x="61.7" y="1086.6" class="st17" width="9" height="64.8"/>
		<path class="st22" d="M107.2,1044.8c0,26.7-18.4,46.3-41,46.3s-41-20-41-46.3s41-100.1,41-100.1S107.2,1018.4,107.2,1044.8z"/>
		<path class="st23" d="M93.3,998.8c5.6,44.4-13.9,82.4-46.3,86.6c-0.4,0-0.4,0-0.8,0c6,3.8,12.8,6,20.3,6c22.6,0,41-20,41-46.3
			C107.2,1034.2,100.8,1016.5,93.3,998.8z"/>
	</g>
	<g>
		<rect x="1248.7" y="101" class="st17" width="6" height="42.5"/>
		<ellipse class="st22" cx="1251.3" cy="72.4" rx="38" ry="31.6"/>
		<path class="st23" d="M1271.2,45.3c3.4,4.9,5.6,10.5,5.6,16.2c0,17.3-16.9,31.6-38,31.6c-7.2,0-13.9-1.5-19.6-4.5
			c6.8,9,18.8,15.4,32.8,15.4c21.1,0,38-14.3,38-31.6C1289.7,60.7,1282.2,50.9,1271.2,45.3z"/>
	</g>
	<g>
		<rect x="-38.5" y="715.4" class="st17" width="13.2" height="93.4"/>
		<path class="st22" d="M27,655.1c0,38.4-26.4,67-59.1,67s-59.1-28.6-59.1-67s59.1-144.6,59.1-144.6S27,616.7,27,655.1z"/>
		<path class="st23" d="M6.7,588.9c8.3,64-20.3,118.6-67,125c-0.4,0-0.8,0-1.1,0c8.7,5.3,18.4,8.3,29.4,8.3
			c32.8,0,59.1-28.6,59.1-67C27,640.1,18,614.5,6.7,588.9z"/>
	</g>
	<g>
		<rect x="392.6" y="953.3" class="st17" width="13.2" height="93.4"/>
		<ellipse class="st22" cx="399" cy="890.4" rx="83.6" ry="69.6"/>
		<path class="st23" d="M442.3,830.9c7.5,10.5,12,23,12,35.8c0,38.4-37.6,69.6-83.6,69.6c-15.8,0-30.5-3.8-43.3-10.2
			c14.7,20.3,41.4,33.5,71.9,33.5c46.3,0,83.6-31.2,83.6-69.6C482.9,865.2,466.7,843.4,442.3,830.9z"/>
	</g>
	<g>
		<rect x="1457.2" y="786.9" class="st17" width="13.2" height="93.4"/>
		<ellipse class="st22" cx="1463.6" cy="724" rx="83.6" ry="69.6"/>
		<path class="st23" d="M1506.9,664.5c7.5,10.5,12,23,12,35.8c0,38.4-37.6,69.6-83.6,69.6c-15.8,0-30.5-3.8-43.3-10.2
			c14.7,20.3,41.4,33.5,71.9,33.5c46.3,0,83.6-31.2,83.6-69.6C1547.6,698.8,1531.4,677,1506.9,664.5z"/>
	</g>
	<g>
		<rect x="1778" y="1715.6" class="st17" width="13.2" height="93.4"/>
		<path class="st22" d="M1843.8,1655.4c0,38.4-26.4,67-59.1,67s-59.1-28.6-59.1-67c0-38.4,59.1-144.6,59.1-144.6
			S1843.8,1617,1843.8,1655.4z"/>
		<path class="st23" d="M1823.5,1589.1c8.3,64-20.3,118.6-67,125c-0.4,0-0.8,0-1.1,0c8.7,5.3,18.4,8.3,29.4,8.3
			c32.8,0,59.1-28.6,59.1-67C1843.8,1640.3,1834.4,1614.7,1823.5,1589.1z"/>
	</g>
	<path class="st8" d="M1773.8,1915.5c-72.3,0-131-48.9-131-108.8c0-76.4-74.9-138.5-166.8-138.5h-216.8c-72.3,0-131-48.9-131-108.8
		v-53.8c0-36.1-16.6-70.4-47.1-96.4l-112.9-96.8c-31.2-26.7-74.9-42.2-119.7-42.2H676.8l-65.1-87.7c-32-42.9-32.8-96.8-2.3-140.4
		l134-192.4c3.8-5.6,7.5-11.7,10.5-17.3c22.2-15.8,38-53.8,38-98.6v-50.4h57.2c33.5,0,60.2-47.8,60.2-106.5v-80.9h8.7
		c17.7,10.9,33.5,19.2,45.6,23.3c8.7,2.6,17.3,5.3,25.6,7.5c14.7,4.1,28.6,7.5,41,13.6l184.5,88.5c67,32,108.4,91.9,108.4,156.2
		c0,116,113.3,210.1,253,210.1h76.4v-29.7h-76.4c-119.7,0-217.2-80.9-217.2-180.3c0-74.9-48.6-144.6-126.5-181.8L1048,514.7
		c-15.8-7.5-32-12-47.8-16.2c-7.9-2.3-15.4-4.1-23-6.4c25.2-12.8,43.7-53.8,43.7-102.4c0-58.7-27.1-106.5-60.2-106.5h-52v-93.4
		c0-58.7-27.1-106.5-60.2-106.5H663.3V70.9c0-58.7-27.1-106.5-60.2-106.5H436.6c-33.5,0-60.2,47.8-60.2,106.5v12.4H219.8
		c-33.5,0-60.2,47.8-60.2,106.5v12H-95.3v29.7h254.9v35.8H85.8c-33.5,0-60.2,47.8-60.2,106.5v44.8c0,58.7,27.1,106.5,60.2,106.5
		h73.8v51.6c0,58.7,27.1,106.5,60.2,106.5h101.6l-69.3,154c-7.5,14.7-24.8,24.1-44,24.1H-59.6c-26.4,0-47.8-17.7-47.8-39.5
		c0-38.4-37.3-69.3-83.6-69.3h-215.7v29.7h215.7c26.4,0,47.8,17.7,47.8,39.5c0,38.4,37.3,69.3,83.6,69.3h184.1l45.2,72.7
		c61.7,99.4,183.7,161.1,318.5,161.1h63.2c2.6,25.6,12.4,50.8,29.4,73.4l175.8,236.4c16.2,21.5,24.5,46.3,24.5,71.9v19.6
		c0,75.3-73.8,136.7-164.5,136.7c-110.7,0-200.3,74.5-200.3,166.4v332.8h35.8v-332.8c0-75.3,73.8-136.7,164.5-136.7
		c110.7,0,200.3-74.5,200.3-166.4v-19.6c0-30.9-10.2-61-29.7-87.3l-88.5-119h149.8c35.4,0,69.6,12,94.1,33.1l112.9,96.8
		c23.7,20.3,36.9,47.4,36.9,75.7v53.8c0,76.4,74.9,138.5,166.8,138.5H1476c72.3,0,131,48.9,131,108.8c0,76.4,74.9,138.5,166.8,138.5
		h123.9v-29.7L1773.8,1915.5L1773.8,1915.5z M578.2,1027.5c-14.7,21.1-23.3,44.4-26,67.8h-63.6c-121.2,0-230.8-55.7-286.5-144.9
		l-36.5-59.1h42.9c33.5,0,63.6-16.6,76.8-42.2l82.8-165.3h113.3v50.4c0,58.7,27.1,106.5,60.2,106.5h166.8L578.2,1027.5z"/>
	<g>
		<rect x="1543" y="848.3" class="st17" width="9" height="64.8"/>
		<path class="st22" d="M1588.6,806.5c0,26.7-18.4,46.3-41,46.3c-22.6,0-41-20-41-46.3s41-100.1,41-100.1S1588.6,779.7,1588.6,806.5
			z"/>
		<path class="st23" d="M1574.3,760.5c5.6,44.4-13.9,82.4-46.3,86.6c-0.4,0-0.4,0-0.8,0c6,3.8,12.8,6,20.3,6c22.6,0,41-20,41-46.3
			C1588.6,795.9,1581.8,778.2,1574.3,760.5z"/>
	</g>
	<g>
		<g>
			<path class="st21" d="M14.6,70.1c-24.5,0-44,16.2-44,36.5h88.1C58.7,86.3,39.1,70.1,14.6,70.1z"/>
		</g>
		<path class="st30" d="M-4.2,106.6h62.9c0-13.2-8.3-24.5-20.7-30.9C29.3,90.1,14.2,101.4-4.2,106.6z"/>
	</g>
	<g>
		<path class="st12" d="M-888.9,2069.9c-7.5,0-13.9,5.3-13.9,11.3c0,3,1.5,6,4.1,7.9c2.6,2.3,6,3.4,9.8,3.4h18.4h533.1h40.7
			c7.5,0,13.9-5.3,13.9-11.3c0-3-1.5-6-4.1-8.3c-2.6-1.9-6-3.4-9.8-3.4h-592.2"/>
		<path class="st13" d="M-870.4,2092.5l45.2,82.8c8.3,15.4,27.1,25.6,47.8,25.6h253.7c64.4,0,124.6-27.5,159.2-72.3l27.9-36.1
			H-870.4"/>
		<path class="st14" d="M-870.4,2092.5h15.8l29,53.5c8.3,15.4,27.1,25.6,47.8,25.6h253.7c64.4,0,124.6-27.5,159.2-72.3l5.3-6.8h22.6
			l-27.9,36.1c-34.6,45.2-94.9,72.3-159.2,72.3h-253.7c-20.7,0-39.2-10.2-47.8-25.6L-870.4,2092.5"/>
		<path class="st2" d="M-860.3,1998.3c0,0,133.6-2.3,224.7,45.9V1832C-635.2,1832-708.2,1915.9-860.3,1998.3z"/>
		<path class="st2" d="M-608.8,1832v212.3c108.8-18.4,241.3,0,241.3,0C-519.2,1961.8-608.8,1832-608.8,1832z"/>
		<path class="st12" d="M-809.1,2122.2c0,9.8,9.4,17.7,21.1,17.7c11.7,0,21.1-7.9,21.1-17.7c0-9.8-9.4-17.7-21.1-17.7
			C-799.7,2104.5-809.1,2112.4-809.1,2122.2z"/>
		<path class="st16" d="M-802.7,2122.2c0,6.8,6.8,12.4,15.1,12.4c8.3,0,15.1-5.6,15.1-12.4c0-6.8-6.8-12.4-15.1-12.4
			C-796.3,2109.8-802.7,2115.4-802.7,2122.2z"/>
		<path class="st12" d="M-743.2,2122.2c0,9.8,9.4,17.7,21.1,17.7c11.7,0,21.1-7.9,21.1-17.7c0-9.8-9.4-17.7-21.1-17.7
			C-733.8,2104.5-743.2,2112.4-743.2,2122.2z"/>
		<path class="st16" d="M-737.2,2122.2c0,6.8,6.8,12.4,15.1,12.4c8.3,0,15.1-5.6,15.1-12.4c0-6.8-6.8-12.4-15.1-12.4
			C-730.4,2109.8-737.2,2115.4-737.2,2122.2z"/>
		<path class="st12" d="M-677.7,2122.2c0,9.8,9.4,17.7,21.1,17.7c11.7,0,21.1-7.9,21.1-17.7c0-9.8-9.4-17.7-21.1-17.7
			C-668.3,2104.5-677.7,2112.4-677.7,2122.2z"/>
		<path class="st16" d="M-671.3,2122.2c0,6.8,6.8,12.4,15.1,12.4c8.3,0,15.1-5.6,15.1-12.4c0-6.8-6.8-12.4-15.1-12.4
			C-664.5,2109.8-671.3,2115.4-671.3,2122.2z"/>
		<path class="st12" d="M-611.8,2122.2c0,9.8,9.4,17.7,21.1,17.7c11.7,0,21.1-7.9,21.1-17.7c0-9.8-9.4-17.7-21.1-17.7
			C-602.4,2104.5-611.8,2112.4-611.8,2122.2z"/>
		<path class="st16" d="M-605.8,2122.2c0,6.8,6.8,12.4,15.1,12.4c8.3,0,15.1-5.6,15.1-12.4c0-6.8-6.8-12.4-15.1-12.4
			C-599,2109.8-605.8,2115.4-605.8,2122.2z"/>
		<path class="st12" d="M-545.9,2122.2c0,9.8,9.4,17.7,21.1,17.7c11.7,0,21.1-7.9,21.1-17.7c0-9.8-9.4-17.7-21.1-17.7
			C-536.5,2104.5-545.9,2112.4-545.9,2122.2z"/>
		<path class="st16" d="M-539.9,2122.2c0,6.8,6.8,12.4,15.1,12.4c8.3,0,15.1-5.6,15.1-12.4c0-6.8-6.8-12.4-15.1-12.4
			C-533.1,2109.8-539.9,2115.4-539.9,2122.2z"/>
		<path class="st12" d="M-480.4,2122.2c0,9.8,9.4,17.7,21.1,17.7c11.7,0,21.1-7.9,21.1-17.7c0-9.8-9.4-17.7-21.1-17.7
			C-471,2104.5-480.4,2112.4-480.4,2122.2z"/>
		<path class="st16" d="M-474,2122.2c0,6.8,6.8,12.4,15.1,12.4s15.1-5.6,15.1-12.4c0-6.8-6.8-12.4-15.1-12.4
			C-467.6,2109.8-474,2115.4-474,2122.2z"/>
		<polyline class="st17" points="-617.5,1741.2 -617.5,2069.9 -625.4,2069.9 -625.4,1741.2 		"/>
		<path class="st17" d="M-314,2071.4c0,0-60.6-21.5-129.9-61.7c-68.9-40.7-146.4-100.1-179.6-176.9l1.9-0.8l1.9,0.8
			c0,0-32.4,43.7-80.6,95.2c-48.2,51.6-111.8,111.1-174.3,143.4l-2.3-3c61.7-32,125.4-91.1,173.2-142.7c24.1-25.6,44-49.3,58-66.6
			c7.2-8.7,12.4-15.8,16.2-20.7c1.9-2.3,3.4-4.1,4.1-5.6c0.8-1.5,1.5-1.9,1.5-1.9l2.3-3l1.5,3.4c32.8,76,109.6,135.1,178.1,175.4
			c34.3,20,66.6,35.4,90.4,45.9c11.7,5.3,21.5,9,28.2,11.7c3.4,1.1,6,2.3,7.9,3c1.9,0.8,2.6,1.1,2.6,1.1L-314,2071.4L-314,2071.4z"
			/>
		<path class="st17" d="M-619.3,1832c0,0-23.7,135.9-125,238.7l-3-2.3c50.1-50.8,81.3-110.3,99.8-156.6
			c9.4-23.3,15.4-43.3,19.2-57.6c1.9-7.2,3.4-12.8,4.1-16.6c0.4-1.9,0.8-3.4,0.8-4.5c0.4-1.1,0.4-1.5,0.4-1.5L-619.3,1832
			L-619.3,1832z"/>
		<polygon class="st2" points="-728.9,1791.7 -621.6,1826.3 -621.6,1746.5 		"/>
		<path class="st17" d="M-619.3,1831.2c0,0,0.4,0.8,0.8,1.9c3.4,9.8,20.3,55,47.4,104.3c27.1,49.3,64.8,103.2,109.9,130.6l-2.3,2.6
			c-49.3-29.7-89.2-89.6-116.7-141.9c-27.5-52.3-42.9-97.1-42.9-97.1L-619.3,1831.2L-619.3,1831.2z"/>
		<path class="st17" d="M-881.7,2069.9c0,3,2.6,5.3,6.4,5.3c3.4,0,6.4-2.3,6.4-5.3s-2.6-5.3-6.4-5.3
			C-879.1,2064.6-881.7,2066.9-881.7,2069.9z"/>
		<path class="st17" d="M-749.6,2069.9c0,3,2.6,5.3,6.4,5.3c3.4,0,6.4-2.3,6.4-5.3s-2.6-5.3-6.4-5.3
			C-746.6,2064.6-749.6,2066.9-749.6,2069.9z"/>
		<path class="st17" d="M-468.8,2069.9c0,3,2.6,5.3,6.4,5.3c3.4,0,6.4-2.3,6.4-5.3s-2.6-5.3-6.4-5.3
			C-466.1,2064.6-468.8,2066.9-468.8,2069.9z"/>
		<path class="st17" d="M-319.7,2069.9c0,3,2.6,5.3,6.4,5.3c3.4,0,6.4-2.3,6.4-5.3s-2.6-5.3-6.4-5.3
			C-316.7,2064.6-319.7,2066.9-319.7,2069.9z"/>
		<g>
			<path class="st31" d="M-653.6,1772.8c-9.4,0-16.9,6.4-16.9,14.3c0,5.3,3.4,9.4,8.3,12v3.8c0,0.8,0.8,1.5,1.9,1.5h0.4v-5.3h1.5
				v5.3h1.5v-5.3h1.5v5.3h1.5v-5.3h1.5v5.3h1.5v-5.3h1.5v5.3h1.5v-5.3h1.5v5.3h0.4c1.1,0,1.9-0.8,1.9-1.5v-3.8
				c4.9-2.6,8.3-7.2,8.3-12C-636.7,1778.9-644.2,1772.8-653.6,1772.8z M-666,1790.2c0-2.3,2.3-4.5,5.3-4.5s5.3,1.9,5.3,4.5
				s-2.3,4.5-5.3,4.5C-663.8,1794.3-666,1792.4-666,1790.2z M-652.1,1796.9h-3c-0.8,0-1.1-0.4-0.8-1.1l0,0l1.5-2.3
				c0.4-0.4,1.1-0.4,1.5,0l1.5,2.3l0,0C-651,1796.6-651.3,1796.9-652.1,1796.9z M-646.1,1794.3c-3,0-5.3-1.9-5.3-4.5
				c0-2.6,2.3-4.5,5.3-4.5c3,0,5.3,1.9,5.3,4.5C-640.8,1792.4-643.4,1794.3-646.1,1794.3z"/>
		</g>
	</g>
	<ellipse class="st32" cx="527.7" cy="398.8" rx="77.2" ry="13.9"/>
	<path class="st12" d="M563.5,332.5h-65.9c10.9,0,19.6,8.7,19.6,19.6l0,0h65.9l0,0C582.7,341.2,574,332.5,563.5,332.5z"/>
	<rect x="476.5" y="352.1" class="st12" width="40.3" height="49.7"/>
	<rect x="516.8" y="352.1" class="st12" width="65.9" height="49.7"/>
	<path class="st12" d="M497.6,332.5h-1.5c-10.9,0-19.6,8.7-19.6,19.6l0,0h40.3l0,0C516.8,341.2,508.2,332.5,497.6,332.5z"/>
	<line class="st0" x1="582.7" y1="357.7" x2="476.5" y2="357.7"/>
	<path class="st33" d="M570.6,334c-4.5,26.7-17.7,50.1-36.5,67.8h48.6v-5.6v-38v-5.6l0,0C582.7,343.8,577.8,336.6,570.6,334z"/>
	<path class="st15" d="M522.1,352.1c0-10.9-8.7-19.6-19.6-19.6H501c-0.8,0-1.1,0-1.9,0c9.8,0.8,17.7,9.4,17.7,19.2l0,0v50.1h5.3
		V352.1L522.1,352.1z"/>
	<polygon class="st18" points="562.4,290.3 568.4,292.6 562.4,294.5 560.1,300.9 558.2,294.5 551.8,292.6 558.2,290.3 560.1,284.3 	
		"/>
	<polygon class="st18" points="516.1,277.2 522.1,279.1 516.1,281.3 513.8,287.3 511.9,281.3 505.5,279.1 511.9,277.2 513.8,270.8 	
		"/>
	<polygon class="st18" points="525.5,311 534.9,314.4 525.5,317.4 522.1,327.2 518.7,317.4 509.3,314.4 518.7,311 522.1,301.6 	"/>
	<polygon class="st18" points="453.9,311 463.7,314.4 453.9,317.8 450.6,327.6 447.2,317.8 437,314.4 447.2,311 450.6,300.9 	"/>
	<polygon class="st18" points="596.6,306.9 607.2,310.3 596.6,314.1 592.9,324.6 589.5,314.1 578.6,310.3 589.5,306.9 592.9,296.4 	
		"/>
	<polygon class="st18" points="482.9,309.5 489.3,311.8 482.9,313.7 480.7,320.5 478.4,313.7 472,311.8 478.4,309.5 480.7,303.1 	
		"/>
	<g>
		<g>
			
				<rect x="491.2" y="431.5" transform="matrix(0.8029 -0.5961 0.5961 0.8029 -156.0651 409.8789)" class="st34" width="101.3" height="18.8"/>
		</g>
		<g>
			
				<rect x="537.2" y="387.4" transform="matrix(0.6073 -0.7945 0.7945 0.6073 -136.9306 608.111)" class="st34" width="18.8" height="110.3"/>
		</g>
	</g>
	<rect x="476.5" y="354.7" class="st15" width="106.2" height="5.6"/>
	<g>
		<path class="st12" d="M122.7,186.4L122.7,186.4c-0.4-0.4-2.3-2.6-5.6-5.3c-1.9-1.1-3.8-2.3-6-3.4c-2.3-0.8-4.9-1.5-7.5-1.5
			c-3.4,0-7.2,0.8-10.9,3c-4.1,2.3-8.3,5.6-12.8,10.9l-1.1-0.8c4.5-5.3,9-9,13.2-11.3c4.1-2.3,8.3-3,11.7-3c3,0,6,0.8,8.7,1.5
			c3.8,1.5,6.8,3.8,9,5.6c2.3,1.9,3.4,3.4,3.4,3.4L122.7,186.4L122.7,186.4z"/>
		<path class="st2" d="M93.3,214.7c0,13.9,13.6,25.2,30.1,25.2s30.1-11.3,30.1-25.2c0-13.9-13.6-25.2-30.1-25.2
			C106.5,189.8,93.3,201.1,93.3,214.7z"/>
		<path class="st35" d="M136.2,205.6c2.3,3,6,4.1,8.3,3s1.9-4.5-0.4-7.5s-6-4.1-8.3-3S134,202.6,136.2,205.6z"/>
		<path class="st2" d="M123.4,189.8c-1.1,0-2.3,0-3.8,0v-4.1h7.2v4.1C125.7,189.8,124.5,189.8,123.4,189.8z"/>
		<path class="st13" d="M74.8,180c3.4,9,4.5,9,7.9,0c-3.4,9-3,9.4,6.4,3.8c-9.4,5.6-9,6.4,2.3,6.4c-11.7,0-11.7,0.8-2.3,6.4
			c-9.4-5.6-9.8-5.3-6.4,3.8c-3.4-9-4.5-9-7.9,0c3.4-9,3-9.4-6.4-3.8c9.4-5.6,9-6.4-2.3-6.4c11.7,0,11.7-0.8,2.3-6.4
			C77.9,189.5,78.6,189.1,74.8,180z"/>
	</g>
	<g>
		<path class="st28" d="M576.3-216L425.7,0.5h361.4L636.5-216C621.8-237.1,591-237.1,576.3-216z"/>
		<path class="st29" d="M550.7-171.6c9.4,0,9.4,13.2,18.4,13.2c9.4,0,9.4-13.2,18.4-13.2c9.4,0,9.4,13.2,18.4,13.2
			s9.4-13.2,18.4-13.2c9.4,0,9.4,13.2,18.4,13.2c9.4,0,9.4-13.2,18.4-13.2c7.2,0,8.7,7.9,13.6,11.7l-8.3-12
			c-27.1-38.8-94.1-38.8-121.2,0l-8.3,12C542-163.7,543.5-171.6,550.7-171.6z"/>
		<path class="st30" d="M675.7-159.5c-10.5,66.3-54.6,123.9-118.2,160h229.3L675.7-159.5z"/>
	</g>
	<g>
		<path class="st28" d="M779.6-116.6L675.3,33.2h250L821-116.6C811.2-130.9,789.7-130.9,779.6-116.6z"/>
		<path class="st29" d="M761.9-85.7c6.4,0,6.4,9,12.8,9c6.4,0,6.4-9,12.8-9s6.4,9,12.8,9c6.4,0,6.4-9,12.8-9s6.4,9,12.8,9
			s6.4-9,12.8-9c4.9,0,6,5.6,9.4,7.9l-6-8.3c-18.4-26.7-65.1-26.7-84,0l-5.6,8.3C755.9-80.5,757-85.7,761.9-85.7z"/>
		<path class="st30" d="M848.5-77.5c-7.2,45.9-38,85.8-81.7,110.7h158.5L848.5-77.5z"/>
	</g>
	<g>
		<path class="st28" d="M365.9-117.7L283.8,0.1h196.9l-82.1-117.8C390.7-129,373.8-129,365.9-117.7z"/>
		<path class="st29" d="M351.9-93.6c4.9,0,4.9,7.2,10.2,7.2c4.9,0,4.9-7.2,10.2-7.2c4.9,0,4.9,7.2,10.2,7.2c4.9,0,4.9-7.2,10.2-7.2
			c4.9,0,4.9,7.2,10.2,7.2c4.9,0,4.9-7.2,10.2-7.2c3.8,0,4.9,4.5,7.5,6.4l-4.5-6.8c-14.7-21.1-51.2-21.1-65.9,0l-4.5,6.4
			C347.4-89.5,348.2-93.6,351.9-93.6z"/>
		<path class="st30" d="M420.1-86.9c-5.6,36.1-29.7,67.4-64.4,87.3h125L420.1-86.9z"/>
	</g>
	<g>
		<g>
			<path class="st21" d="M853.7,52.8c-24.5,0-44,16.2-44,36.5h88.1C897.8,69,878.2,52.8,853.7,52.8z"/>
		</g>
	</g>
	<g>
		<g>
			<path class="st21" d="M299.2,52c-31.2,0-56.5,21.1-56.5,47.1h113.3C355.7,73.1,330.5,52,299.2,52z"/>
		</g>
	</g>
	<g>
		<rect x="225.4" y="95" class="st17" width="9" height="64.8"/>
		<path class="st22" d="M270.6,53.2c0,26.7-18.4,46.3-41,46.3s-41-20-41-46.3s41-100.1,41-100.1S270.6,26.4,270.6,53.2z"/>
		<path class="st23" d="M256.7,7.2c5.6,44.4-13.9,82.4-46.3,86.6c-0.4,0-0.4,0-0.8,0c6,3.8,12.8,6,20.3,6c22.6,0,41-20,41-46.3
			C270.6,42.6,264.2,24.9,256.7,7.2z"/>
	</g>
	<g>
		<rect x="913.2" y="321.2" class="st17" width="13.2" height="93.4"/>
		<path class="st22" d="M978.7,261.4c0,38.4-26.4,67-59.1,67c-32.8,0-59.1-28.6-59.1-67s59.1-144.6,59.1-144.6
			S978.7,222.6,978.7,261.4z"/>
		<path class="st23" d="M958.4,195.1c8.3,64-20.3,118.6-67,125c-0.4,0-0.8,0-1.1,0c8.7,5.3,18.4,8.3,29.4,8.3
			c32.8,0,59.1-28.6,59.1-67C978.7,246.3,969.7,220.7,958.4,195.1z"/>
	</g>
	<g>
		<path class="st21" d="M112.9,536.5L112.9,536.5c-25.6,0-46.7,17.3-46.7,38.8v76h93.4v-76.4C159.5,553.9,138.5,536.5,112.9,536.5z"
			/>
		<path class="st30" d="M153.1,555.7c-12.4,38-44.4,69.6-87,86.2v9h93.4v-76C159.5,568.2,157.3,561.4,153.1,555.7z"/>
	</g>
	<g>
		<path class="st21" d="M188.9,586.6L188.9,586.6c-38.4,0-69.6,26-69.6,58v113.7h139.7V644.6C258.6,612.6,227.3,586.6,188.9,586.6z"
			/>
		<path class="st30" d="M249.1,615.6c-18.4,57.2-66.6,104.3-130.3,129.1v13.6h139.7V644.6C258.6,634.1,255.2,624.3,249.1,615.6z"/>
	</g>
	<g>
		<path class="st21" d="M88,633.7L88,633.7c-27.9,0-50.8,18.8-50.8,42.2v82.4h101.3v-82.4C138.8,652.5,116.3,633.7,88,633.7z"/>
		<path class="st30" d="M132.1,654.8c-13.6,41.4-48.6,75.7-94.5,93.7v9.8h101.3v-82.4C138.8,667.9,136.2,660.8,132.1,654.8z"/>
	</g>
	<g>
		<rect x="636.9" y="756" class="st17" width="6" height="42.5"/>
		<path class="st22" d="M677.9,727.4c0,17.3-16.9,31.6-38,31.6s-38-14.3-38-31.6s16.9-31.6,38-31.6S677.9,710.1,677.9,727.4z"/>
		<path class="st23" d="M659.5,700.3c3.4,4.9,5.6,10.5,5.6,16.2c0,17.3-16.9,31.6-38,31.6c-7.2,0-13.9-1.5-19.6-4.5
			c6.8,9,18.8,15.4,32.8,15.4c21.1,0,38-14.3,38-31.6C677.9,716.1,670.8,706,659.5,700.3z"/>
	</g>
	<path class="st36" d="M823.6,483.5c-14.7,39.9-38.4,77.6-70.4,109.6c-119.3,119.3-312.8,119.3-432.2,0s-119.3-312.8,0-432.2
		s312.8-119.3,432.2,0c68.1,68.1,97.1,160.4,87.7,249.2"/>
	<g>
		<path class="st21" d="M581.2,535.4c-8.7,2.3-4.9,16.2,3.8,13.9c43.3-11.7,80.6-38.8,105-76c20.3-30.9,30.5-68.1,29-104.7
			c-1.1-37.3-13.9-73.8-36.9-103.2c-24.1-31.6-58-55-96.8-65.1c-14.7-4.1-29.7-6-45.2-6l-1.5-18.8c32.8,0.4,65.1,8.3,94.1,24.1
			c40.3,21.8,71.9,57.6,89.6,99.8c1.5,3.8,6.8,4.5,9.4,2.6c3.8-2.3,4.1-6.4,2.6-9.4c-16.9-40.3-46.7-74.9-83.2-98.3
			c-30.5-19.6-66.6-30.5-102.8-32.4c-35.8-1.9-72.3,5.3-105,21.5c-35.8,17.3-66.6,45.2-87.7,78.7c-22.2,35-33.5,76.8-32.4,118.2
			c0.4,4.9,0.4,9.8,1.1,15.1c0.4,4.1,3,7.2,7.2,7.2c3.8,0,7.5-3,7.2-7.2c-3.8-38.8,3.8-78.3,22.2-112.6
			c17.7-33.9,45.6-62.1,78.7-80.9c27.1-15.4,57.2-23.7,87.7-24.8l1.5,18.4c-19.6,0.8-38.8,4.9-56.8,12c-4.5,1.9-9.4,4.1-13.9,6
			c-8.3,4.1-1.1,16.6,7.2,12.4c32.4-15.8,69.3-20.3,104.3-13.2c26.4,4.9,50.8,16.9,71.9,33.5L626.4,264
			c-13.2-10.5-28.6-19.2-45.9-24.5c-7.2-2.3-14.7-4.1-22.6-4.9c-3.8-0.4-7.5,1.1-8.7,4.9c-0.8,3.4,1.5,8.3,4.9,8.7
			c29.7,4.1,56.8,18.1,77.6,40.3c16.6,17.7,27.9,39.9,32.4,64c9,47.4-9.8,97.1-48.2,126.5c-37.6,29.4-90.7,35-133.6,14.3
			c-1.9-0.8-3-1.5-4.9-2.6c-0.4-0.4-0.8-0.8-1.5-0.8c-0.4-0.4-0.4,0-0.8-0.4c-40.3-22.2-66.6-65.1-67.4-111.4
			c-0.4-52.3,31.2-100.9,79.4-121.2c6.8-3,13.9-4.9,21.1-6.8c9-2.3,5.3-15.8-3.8-13.9c-35,7.9-65.1,29.4-85.1,57.6l-19.6-12.8
			c6.8-9.8,14.7-18.8,23.3-27.1c6.8-6.4-3.4-16.2-10.2-10.2c-39.5,37.3-60.6,91.1-56.8,144.9c4.1,56.8,35.4,109.6,83.6,140
			c29.4,18.8,64.8,28.6,99.4,28.2c9.4-0.4,9-14.3,0-14.3c-26,0.4-51.2-5.3-74.2-16.6l9.4-21.1c41.8,20,92.6,18.4,133.3-4.9
			c18.4-10.5,34.3-24.8,45.9-42.2l19.6,12.8C652.3,501.5,618.8,525.3,581.2,535.4z M457,519.6c-24.1-13.2-44.8-32.4-59.9-56.1
			c-26-41.4-32.8-93.4-17.7-140.4c4.1-12,9-23.3,15.4-34.3l19.6,12.8c-9.8,16.9-16.6,35.8-19.2,55.3c-6.4,53.8,18.8,107.3,64,137
			c2.3,1.5,4.1,2.6,6.8,4.1L457,519.6z M661,448.1c14.3-24.5,21.8-52.7,20-81.7c-2.3-37.6-19.6-72.3-45.9-96.8l15.1-17.7
			c4.5,4.1,8.7,7.9,12.4,12.4c45.9,51.6,54.6,129.1,21.5,189.7c-1.1,2.3-2.6,4.1-3.8,6.4L661,448.1z"/>
		<path class="st21" d="M748,204.5c-3,3-2.3,7.2,0,10.2c21.8,28.2,36.9,61,45.9,95.2l-16.9,3c-17.3-68.5-65.1-127.6-128.4-159.2
			c-6.8-3.4-13.9-6.4-20.7-9l4.1-16.6c26.7,10.2,52,24.8,74.2,43.3c3,2.3,7.2,3,10.2,0c2.6-2.6,3-7.9,0-10.2
			c-28.6-24.1-62.1-41.8-97.9-52.3c-35-10.5-71.5-13.9-107.7-10.5c-36.9,3.8-72.3,14.3-104.7,32.4c-36.1,19.6-67.8,47.4-91.9,80.6
			c-26,35.4-43.3,77.6-50.1,120.8c-0.8,5.6-1.5,10.9-1.9,16.2c-0.4,4.1,3.4,7.2,7.2,7.2c4.1,0,6.8-3,7.2-7.2
			c3-33.1,13.2-65.1,28.2-94.1l14.7,8.3c-25.2,49.7-33.1,107.7-22.2,162.6c10.2,49.7,36.1,96,73,130.3l-10.5,13.6
			c-26.7-24.5-47.8-54.2-62.5-87c-12-26.7-19.2-55.7-21.5-85.5c-0.4-4.1-3-7.2-7.2-7.2c-3.8,0-7.5,3-7.2,7.2
			c4.1,56.5,26,109.9,61.4,154c35,42.9,82.4,74.9,135.9,91.1c28.6,8.7,58.7,12.4,88.5,11.3c9.4-0.4,9.4-14.7,0-14.3
			c-51.2,1.5-101.6-11.7-145.3-37.6c-12-7.2-23.3-15.1-33.5-24.1l10.5-13.6c3,2.3,6,4.9,8.7,6.8c45.2,35,101.3,53.5,158.5,51.6
			c57.6-1.9,113.7-24.1,156.6-62.5c7.2-6.8,13.9-13.2,20.3-20.3c6-6.8-4.1-17.3-10.2-10.2c-33.9,38-79.1,64.8-128.7,74.5l-3-17.7
			c20.7-4.1,40.7-11.3,59.5-21.5c36.9-20,67.8-51.2,87.3-88.5s27.9-80.6,23.3-122.3c-0.4-5.3-1.5-10.9-2.3-16.2
			c-0.4-3.8-4.9-6-8.7-4.9c-4.1,0.8-6,4.9-4.9,8.7c6.8,38.4,2.3,79.1-13.2,114.8c-15.8,36.1-42.5,67.8-76,88.8
			c-29.7,19.2-64.8,30.1-100.5,31.2c-35,1.1-70.4-6.8-101.3-23.7c-36.5-19.6-66.3-50.4-85.1-87.7c-2.6-5.3-4.9-10.5-7.2-16.2
			c-1.5-3.4-4.5-6-8.7-4.9c-3.4,0.8-6.8,4.9-4.9,8.7c16.6,43.3,46.7,80.2,85.8,105c32,20.3,69.6,31.6,107.7,33.1
			c13.2,0.4,26-0.4,38.8-2.3l3,17.7c-2.3,0.4-4.9,0.8-7.5,1.1c-53.5,6-107.7-6-153.2-35.4c-46.3-29.7-80.9-76-96.8-129.1
			c-15.1-50.4-12.4-106.5,8.3-155.1c23.7-56.8,70-103.2,127.2-126.1c7.9-3,15.8-6,24.1-8.3c8.7-2.3,5.3-16.6-3.8-13.9
			c-61.7,17.7-115.2,59.5-147.2,114.8l-14.7-8.3c22.2-38.8,53.8-71.9,92.6-95.2c59.5-35.8,132.1-46.7,199.5-29.7
			c6.4,1.5,13.2,3.4,19.6,5.6l-4.1,16.6c-27.9-9.4-57.6-13.9-87.3-12.8c-9.4,0.4-9.4,14.7,0,14.3c70.8-2.3,138.9,27.9,185.2,81.3
			c40.7,47.8,60.2,111.4,54.2,173.5c-3.4,36.5-15.8,71.9-36.1,102.8c-4.9,7.9,7.5,15.1,12.4,7.2c34.6-54.2,46.7-120.8,33.9-183.3
			l16.9-3c4.9,23.3,6.8,47.8,4.9,71.5c-4.1,64-32.4,124.6-77.6,169.4c-32.4,32-72.7,55-116.3,66.6c-8.7,2.3-4.9,16.2,3.8,13.9
			c75.3-20.3,140.4-72.7,175.4-142.3c28.6-56.8,36.9-123.1,23.7-185.6c0-0.4,0-1.1,0-1.5c-0.4-0.8-0.4-1.5-0.8-1.9
			c-0.4-1.5-0.4-2.6-0.8-4.1C800.3,271.5,783,236.5,760,206C755.5,201.9,750.2,202.3,748,204.5z"/>
	</g>
</g>
</svg>
